<svg width="1920" height="1280" viewBox="0 0 1920 1280" fill="none" xmlns="http://www.w3.org/2000/svg">
<rect width="1920" height="1280" fill="url(#paint0_linear_7_383)"/>
<path d="M298.155 210L280.854 146.727H288.639L301.862 198.26H302.48L315.95 146.727H324.601L338.071 198.26H338.689L351.912 146.727H359.697L342.396 210H334.487L320.523 159.58H320.028L306.064 210H298.155ZM383.734 210.989C379.161 210.989 375.217 209.979 371.901 207.961C368.605 205.922 366.062 203.08 364.27 199.434C362.499 195.768 361.613 191.504 361.613 186.643C361.613 181.783 362.499 177.499 364.27 173.791C366.062 170.063 368.554 167.159 371.746 165.079C374.96 162.978 378.708 161.928 382.992 161.928C385.464 161.928 387.904 162.339 390.314 163.163C392.724 163.987 394.918 165.326 396.895 167.18C398.872 169.013 400.448 171.443 401.622 174.471C402.796 177.499 403.383 181.227 403.383 185.655V188.744H366.803V182.442H395.968C395.968 179.764 395.433 177.375 394.362 175.274C393.311 173.173 391.808 171.515 389.851 170.3C387.915 169.085 385.629 168.477 382.992 168.477C380.088 168.477 377.575 169.198 375.454 170.64C373.353 172.061 371.736 173.915 370.603 176.201C369.471 178.487 368.904 180.938 368.904 183.554V187.756C368.904 191.339 369.522 194.377 370.758 196.87C372.014 199.341 373.755 201.226 375.979 202.523C378.203 203.8 380.788 204.439 383.734 204.439C385.649 204.439 387.379 204.171 388.924 203.636C390.489 203.08 391.838 202.256 392.971 201.164C394.104 200.052 394.979 198.672 395.597 197.024L402.641 199.001C401.9 201.391 400.654 203.491 398.903 205.304C397.152 207.096 394.99 208.496 392.415 209.506C389.841 210.494 386.947 210.989 383.734 210.989ZM421.765 146.727V210H414.474V146.727H421.765ZM454.398 210.989C449.949 210.989 446.118 209.938 442.905 207.837C439.692 205.737 437.22 202.843 435.49 199.156C433.76 195.469 432.895 191.257 432.895 186.52C432.895 181.7 433.781 177.447 435.552 173.76C437.344 170.053 439.836 167.159 443.029 165.079C446.242 162.978 449.99 161.928 454.274 161.928C457.611 161.928 460.618 162.545 463.296 163.781C465.973 165.017 468.167 166.747 469.876 168.972C471.586 171.196 472.647 173.791 473.059 176.757H465.767C465.211 174.594 463.975 172.679 462.06 171.011C460.165 169.322 457.611 168.477 454.398 168.477C451.556 168.477 449.063 169.219 446.921 170.702C444.8 172.164 443.142 174.234 441.947 176.912C440.773 179.569 440.186 182.689 440.186 186.273C440.186 189.939 440.763 193.131 441.916 195.85C443.09 198.569 444.738 200.68 446.86 202.184C449.002 203.687 451.514 204.439 454.398 204.439C456.293 204.439 458.013 204.109 459.557 203.45C461.102 202.791 462.41 201.844 463.481 200.608C464.552 199.372 465.314 197.889 465.767 196.159H473.059C472.647 198.96 471.627 201.483 470 203.728C468.393 205.953 466.262 207.724 463.605 209.042C460.968 210.34 457.899 210.989 454.398 210.989ZM502.996 210.989C498.712 210.989 494.953 209.969 491.719 207.93C488.506 205.891 485.993 203.038 484.181 199.372C482.389 195.706 481.493 191.422 481.493 186.52C481.493 181.577 482.389 177.262 484.181 173.575C485.993 169.888 488.506 167.025 491.719 164.986C494.953 162.947 498.712 161.928 502.996 161.928C507.28 161.928 511.028 162.947 514.241 164.986C517.475 167.025 519.988 169.888 521.78 173.575C523.592 177.262 524.498 181.577 524.498 186.52C524.498 191.422 523.592 195.706 521.78 199.372C519.988 203.038 517.475 205.891 514.241 207.93C511.028 209.969 507.28 210.989 502.996 210.989ZM502.996 204.439C506.25 204.439 508.927 203.605 511.028 201.936C513.129 200.268 514.684 198.075 515.693 195.356C516.703 192.637 517.207 189.692 517.207 186.52C517.207 183.348 516.703 180.392 515.693 177.653C514.684 174.914 513.129 172.7 511.028 171.011C508.927 169.322 506.25 168.477 502.996 168.477C499.741 168.477 497.064 169.322 494.963 171.011C492.862 172.7 491.307 174.914 490.298 177.653C489.289 180.392 488.784 183.348 488.784 186.52C488.784 189.692 489.289 192.637 490.298 195.356C491.307 198.075 492.862 200.268 494.963 201.936C497.064 203.605 499.741 204.439 502.996 204.439ZM535.628 210V162.545H542.672V169.96H543.29C544.279 167.427 545.875 165.46 548.079 164.059C550.283 162.638 552.93 161.928 556.019 161.928C559.15 161.928 561.755 162.638 563.835 164.059C565.936 165.46 567.574 167.427 568.748 169.96H569.242C570.457 167.509 572.28 165.563 574.71 164.121C577.141 162.659 580.055 161.928 583.454 161.928C587.697 161.928 591.167 163.256 593.865 165.913C596.563 168.549 597.912 172.658 597.912 178.24V210H590.621V178.24C590.621 174.739 589.664 172.236 587.748 170.733C585.833 169.229 583.577 168.477 580.982 168.477C577.645 168.477 575.061 169.487 573.227 171.505C571.394 173.503 570.478 176.036 570.478 179.105V210H563.063V177.499C563.063 174.8 562.188 172.627 560.437 170.98C558.686 169.311 556.431 168.477 553.671 168.477C551.776 168.477 550.005 168.982 548.357 169.991C546.73 171 545.412 172.401 544.403 174.193C543.414 175.964 542.92 178.013 542.92 180.341V210H535.628ZM631.14 210.989C626.567 210.989 622.623 209.979 619.307 207.961C616.012 205.922 613.468 203.08 611.676 199.434C609.905 195.768 609.019 191.504 609.019 186.643C609.019 181.783 609.905 177.499 611.676 173.791C613.468 170.063 615.96 167.159 619.153 165.079C622.366 162.978 626.114 161.928 630.398 161.928C632.87 161.928 635.311 162.339 637.721 163.163C640.13 163.987 642.324 165.326 644.301 167.18C646.278 169.013 647.854 171.443 649.028 174.471C650.202 177.499 650.789 181.227 650.789 185.655V188.744H614.21V182.442H643.374C643.374 179.764 642.839 177.375 641.768 175.274C640.717 173.173 639.214 171.515 637.257 170.3C635.321 169.085 633.035 168.477 630.398 168.477C627.494 168.477 624.982 169.198 622.86 170.64C620.759 172.061 619.142 173.915 618.01 176.201C616.877 178.487 616.31 180.938 616.31 183.554V187.756C616.31 191.339 616.928 194.377 618.164 196.87C619.42 199.341 621.161 201.226 623.385 202.523C625.61 203.8 628.195 204.439 631.14 204.439C633.055 204.439 634.786 204.171 636.33 203.636C637.896 203.08 639.245 202.256 640.377 201.164C641.51 200.052 642.386 198.672 643.004 197.024L650.048 199.001C649.306 201.391 648.06 203.491 646.309 205.304C644.559 207.096 642.396 208.496 639.821 209.506C637.247 210.494 634.353 210.989 631.14 210.989ZM706.987 162.545V168.724H682.395V162.545H706.987ZM689.562 151.176H696.853V196.406C696.853 198.466 697.152 200.011 697.749 201.04C698.367 202.05 699.15 202.729 700.097 203.08C701.065 203.409 702.085 203.574 703.156 203.574C703.959 203.574 704.618 203.533 705.133 203.45C705.648 203.347 706.06 203.265 706.369 203.203L707.852 209.753C707.358 209.938 706.668 210.124 705.782 210.309C704.896 210.515 703.774 210.618 702.414 210.618C700.355 210.618 698.336 210.175 696.359 209.289C694.402 208.404 692.775 207.055 691.478 205.242C690.201 203.43 689.562 201.143 689.562 198.384V151.176ZM736.723 210.989C732.439 210.989 728.68 209.969 725.447 207.93C722.233 205.891 719.721 203.038 717.908 199.372C716.116 195.706 715.22 191.422 715.22 186.52C715.22 181.577 716.116 177.262 717.908 173.575C719.721 169.888 722.233 167.025 725.447 164.986C728.68 162.947 732.439 161.928 736.723 161.928C741.007 161.928 744.756 162.947 747.969 164.986C751.203 167.025 753.715 169.888 755.507 173.575C757.32 177.262 758.226 181.577 758.226 186.52C758.226 191.422 757.32 195.706 755.507 199.372C753.715 203.038 751.203 205.891 747.969 207.93C744.756 209.969 741.007 210.989 736.723 210.989ZM736.723 204.439C739.977 204.439 742.655 203.605 744.756 201.936C746.857 200.268 748.412 198.075 749.421 195.356C750.43 192.637 750.935 189.692 750.935 186.52C750.935 183.348 750.43 180.392 749.421 177.653C748.412 174.914 746.857 172.7 744.756 171.011C742.655 169.322 739.977 168.477 736.723 168.477C733.469 168.477 730.791 169.322 728.691 171.011C726.59 172.7 725.035 174.914 724.025 177.653C723.016 180.392 722.512 183.348 722.512 186.52C722.512 189.692 723.016 192.637 724.025 195.356C725.035 198.075 726.59 200.268 728.691 201.936C730.791 203.605 733.469 204.439 736.723 204.439ZM829.416 162.545C829.045 159.415 827.541 156.984 824.905 155.254C822.269 153.524 819.035 152.659 815.204 152.659C812.403 152.659 809.952 153.112 807.851 154.018C805.771 154.925 804.144 156.171 802.97 157.757C801.816 159.343 801.239 161.145 801.239 163.163C801.239 164.852 801.641 166.304 802.444 167.52C803.268 168.714 804.319 169.713 805.596 170.516C806.873 171.299 808.211 171.948 809.612 172.463C811.013 172.957 812.3 173.359 813.474 173.668L819.9 175.398C821.548 175.83 823.381 176.428 825.399 177.19C827.438 177.952 829.385 178.992 831.238 180.31C833.113 181.608 834.657 183.276 835.873 185.315C837.088 187.354 837.695 189.857 837.695 192.822C837.695 196.241 836.799 199.331 835.008 202.091C833.236 204.851 830.641 207.044 827.222 208.672C823.824 210.299 819.694 211.112 814.833 211.112C810.302 211.112 806.378 210.381 803.062 208.919C799.767 207.456 797.172 205.417 795.277 202.801C793.402 200.186 792.342 197.148 792.095 193.688H800.004C800.21 196.077 801.013 198.054 802.413 199.619C803.835 201.164 805.627 202.317 807.789 203.08C809.972 203.821 812.32 204.192 814.833 204.192C817.758 204.192 820.384 203.718 822.711 202.771C825.039 201.803 826.882 200.464 828.242 198.754C829.601 197.024 830.281 195.006 830.281 192.699C830.281 190.598 829.694 188.888 828.52 187.57C827.346 186.252 825.801 185.181 823.885 184.357C821.97 183.533 819.9 182.812 817.676 182.195L809.89 179.97C804.947 178.549 801.033 176.52 798.15 173.884C795.266 171.248 793.825 167.798 793.825 163.534C793.825 159.991 794.782 156.902 796.698 154.266C798.634 151.609 801.229 149.549 804.483 148.087C807.758 146.604 811.414 145.862 815.451 145.862C819.529 145.862 823.154 146.593 826.326 148.056C829.498 149.498 832.011 151.475 833.864 153.988C835.739 156.5 836.727 159.353 836.83 162.545H829.416ZM849.304 227.795V162.545H856.348V170.084H857.213C857.749 169.26 858.49 168.21 859.438 166.933C860.406 165.635 861.786 164.482 863.578 163.472C865.39 162.442 867.841 161.928 870.931 161.928C874.926 161.928 878.448 162.926 881.497 164.924C884.545 166.922 886.924 169.754 888.633 173.42C890.343 177.087 891.198 181.412 891.198 186.396C891.198 191.422 890.343 195.778 888.633 199.465C886.924 203.131 884.555 205.973 881.528 207.992C878.5 209.99 875.009 210.989 871.054 210.989C868.006 210.989 865.565 210.484 863.732 209.475C861.899 208.445 860.488 207.281 859.499 205.984C858.511 204.665 857.749 203.574 857.213 202.709H856.595V227.795H849.304ZM856.472 186.273C856.472 189.857 856.997 193.018 858.047 195.757C859.098 198.476 860.632 200.608 862.651 202.153C864.669 203.677 867.141 204.439 870.066 204.439C873.114 204.439 875.657 203.636 877.697 202.029C879.756 200.402 881.301 198.219 882.331 195.479C883.381 192.719 883.906 189.651 883.906 186.273C883.906 182.936 883.392 179.929 882.362 177.251C881.352 174.553 879.818 172.422 877.758 170.856C875.719 169.27 873.155 168.477 870.066 168.477C867.1 168.477 864.607 169.229 862.589 170.733C860.57 172.216 859.046 174.296 858.017 176.973C856.987 179.63 856.472 182.73 856.472 186.273ZM916.284 211.112C913.277 211.112 910.548 210.546 908.097 209.413C905.646 208.26 903.7 206.602 902.258 204.439C900.816 202.256 900.095 199.619 900.095 196.53C900.095 193.811 900.631 191.607 901.702 189.918C902.773 188.209 904.204 186.87 905.996 185.902C907.788 184.934 909.765 184.213 911.928 183.739C914.111 183.245 916.305 182.854 918.509 182.565C921.392 182.195 923.73 181.917 925.522 181.731C927.334 181.525 928.653 181.185 929.476 180.712C930.321 180.238 930.743 179.414 930.743 178.24V177.993C930.743 174.945 929.909 172.576 928.241 170.887C926.593 169.198 924.09 168.354 920.733 168.354C917.252 168.354 914.523 169.116 912.546 170.64C910.569 172.164 909.178 173.791 908.375 175.521L901.455 173.05C902.691 170.166 904.338 167.921 906.398 166.315C908.478 164.687 910.744 163.555 913.195 162.916C915.666 162.257 918.097 161.928 920.486 161.928C922.01 161.928 923.761 162.113 925.738 162.484C927.736 162.834 929.662 163.565 931.515 164.677C933.39 165.789 934.945 167.468 936.181 169.713C937.416 171.958 938.034 174.965 938.034 178.734V210H930.743V203.574H930.372C929.878 204.604 929.054 205.706 927.901 206.88C926.747 208.054 925.213 209.053 923.297 209.876C921.382 210.7 919.044 211.112 916.284 211.112ZM917.396 204.562C920.28 204.562 922.71 203.996 924.688 202.863C926.686 201.73 928.189 200.268 929.198 198.476C930.228 196.684 930.743 194.8 930.743 192.822V186.149C930.434 186.52 929.754 186.86 928.704 187.169C927.674 187.457 926.48 187.714 925.12 187.941C923.781 188.147 922.474 188.332 921.197 188.497C919.94 188.641 918.921 188.765 918.138 188.868C916.243 189.115 914.472 189.517 912.824 190.073C911.197 190.608 909.879 191.422 908.869 192.513C907.881 193.585 907.387 195.047 907.387 196.901C907.387 199.434 908.324 201.349 910.198 202.647C912.093 203.924 914.492 204.562 917.396 204.562ZM951.342 210V162.545H958.386V169.713H958.881C959.746 167.365 961.311 165.46 963.577 163.998C965.842 162.535 968.396 161.804 971.239 161.804C971.774 161.804 972.443 161.814 973.247 161.835C974.05 161.855 974.658 161.886 975.07 161.928V169.342C974.822 169.281 974.256 169.188 973.37 169.064C972.505 168.92 971.589 168.848 970.621 168.848C968.314 168.848 966.254 169.332 964.442 170.3C962.65 171.248 961.229 172.566 960.178 174.255C959.148 175.923 958.633 177.828 958.633 179.97V210H951.342ZM990.509 192.699L990.386 183.678H991.869L1012.63 162.545H1021.65L999.531 184.913H998.913L990.509 192.699ZM983.712 210V146.727H991.004V210H983.712ZM1013.87 210L995.329 186.52L1000.52 181.453L1023.13 210H1013.87ZM1038.33 146.727V210H1031.04V146.727H1038.33ZM1071.58 210.989C1067 210.989 1063.06 209.979 1059.74 207.961C1056.45 205.922 1053.91 203.08 1052.11 199.434C1050.34 195.768 1049.46 191.504 1049.46 186.643C1049.46 181.783 1050.34 177.499 1052.11 173.791C1053.91 170.063 1056.4 167.159 1059.59 165.079C1062.8 162.978 1066.55 161.928 1070.84 161.928C1073.31 161.928 1075.75 162.339 1078.16 163.163C1080.57 163.987 1082.76 165.326 1084.74 167.18C1086.72 169.013 1088.29 171.443 1089.47 174.471C1090.64 177.499 1091.23 181.227 1091.23 185.655V188.744H1054.65V182.442H1083.81C1083.81 179.764 1083.28 177.375 1082.21 175.274C1081.15 173.173 1079.65 171.515 1077.69 170.3C1075.76 169.085 1073.47 168.477 1070.84 168.477C1067.93 168.477 1065.42 169.198 1063.3 170.64C1061.2 172.061 1059.58 173.915 1058.45 176.201C1057.31 178.487 1056.75 180.938 1056.75 183.554V187.756C1056.75 191.339 1057.37 194.377 1058.6 196.87C1059.86 199.341 1061.6 201.226 1063.82 202.523C1066.05 203.8 1068.63 204.439 1071.58 204.439C1073.49 204.439 1075.22 204.171 1076.77 203.636C1078.33 203.08 1079.68 202.256 1080.81 201.164C1081.95 200.052 1082.82 198.672 1083.44 197.024L1090.49 199.001C1089.74 201.391 1088.5 203.491 1086.75 205.304C1085 207.096 1082.83 208.496 1080.26 209.506C1077.68 210.494 1074.79 210.989 1071.58 210.989ZM1137.91 162.545C1137.54 159.415 1136.03 156.984 1133.4 155.254C1130.76 153.524 1127.53 152.659 1123.7 152.659C1120.9 152.659 1118.44 153.112 1116.34 154.018C1114.26 154.925 1112.64 156.171 1111.46 157.757C1110.31 159.343 1109.73 161.145 1109.73 163.163C1109.73 164.852 1110.13 166.304 1110.94 167.52C1111.76 168.714 1112.81 169.713 1114.09 170.516C1115.37 171.299 1116.7 171.948 1118.11 172.463C1119.51 172.957 1120.79 173.359 1121.97 173.668L1128.39 175.398C1130.04 175.83 1131.87 176.428 1133.89 177.19C1135.93 177.952 1137.88 178.992 1139.73 180.31C1141.61 181.608 1143.15 183.276 1144.37 185.315C1145.58 187.354 1146.19 189.857 1146.19 192.822C1146.19 196.241 1145.29 199.331 1143.5 202.091C1141.73 204.851 1139.13 207.044 1135.72 208.672C1132.32 210.299 1128.19 211.112 1123.33 211.112C1118.8 211.112 1114.87 210.381 1111.56 208.919C1108.26 207.456 1105.66 205.417 1103.77 202.801C1101.9 200.186 1100.83 197.148 1100.59 193.688H1108.5C1108.7 196.077 1109.51 198.054 1110.91 199.619C1112.33 201.164 1114.12 202.317 1116.28 203.08C1118.47 203.821 1120.81 204.192 1123.33 204.192C1126.25 204.192 1128.88 203.718 1131.2 202.771C1133.53 201.803 1135.38 200.464 1136.73 198.754C1138.09 197.024 1138.77 195.006 1138.77 192.699C1138.77 190.598 1138.19 188.888 1137.01 187.57C1135.84 186.252 1134.29 185.181 1132.38 184.357C1130.46 183.533 1128.39 182.812 1126.17 182.195L1118.38 179.97C1113.44 178.549 1109.53 176.52 1106.64 173.884C1103.76 171.248 1102.32 167.798 1102.32 163.534C1102.32 159.991 1103.28 156.902 1105.19 154.266C1107.13 151.609 1109.72 149.549 1112.98 148.087C1116.25 146.604 1119.91 145.862 1123.94 145.862C1128.02 145.862 1131.65 146.593 1134.82 148.056C1137.99 149.498 1140.5 151.475 1142.36 153.988C1144.23 156.5 1145.22 159.353 1145.32 162.545H1137.91ZM1177.08 210.989C1172.63 210.989 1168.8 209.938 1165.58 207.837C1162.37 205.737 1159.9 202.843 1158.17 199.156C1156.44 195.469 1155.57 191.257 1155.57 186.52C1155.57 181.7 1156.46 177.447 1158.23 173.76C1160.02 170.053 1162.51 167.159 1165.71 165.079C1168.92 162.978 1172.67 161.928 1176.95 161.928C1180.29 161.928 1183.3 162.545 1185.97 163.781C1188.65 165.017 1190.84 166.747 1192.55 168.972C1194.26 171.196 1195.32 173.791 1195.74 176.757H1188.45C1187.89 174.594 1186.65 172.679 1184.74 171.011C1182.84 169.322 1180.29 168.477 1177.08 168.477C1174.23 168.477 1171.74 169.219 1169.6 170.702C1167.48 172.164 1165.82 174.234 1164.63 176.912C1163.45 179.569 1162.86 182.689 1162.86 186.273C1162.86 189.939 1163.44 193.131 1164.59 195.85C1165.77 198.569 1167.42 200.68 1169.54 202.184C1171.68 203.687 1174.19 204.439 1177.08 204.439C1178.97 204.439 1180.69 204.109 1182.24 203.45C1183.78 202.791 1185.09 201.844 1186.16 200.608C1187.23 199.372 1187.99 197.889 1188.45 196.159H1195.74C1195.32 198.96 1194.3 201.483 1192.68 203.728C1191.07 205.953 1188.94 207.724 1186.28 209.042C1183.65 210.34 1180.58 210.989 1177.08 210.989ZM1206.39 210V162.545H1213.44V169.713H1213.93C1214.8 167.365 1216.36 165.46 1218.63 163.998C1220.89 162.535 1223.45 161.804 1226.29 161.804C1226.83 161.804 1227.5 161.814 1228.3 161.835C1229.1 161.855 1229.71 161.886 1230.12 161.928V169.342C1229.88 169.281 1229.31 169.188 1228.42 169.064C1227.56 168.92 1226.64 168.848 1225.67 168.848C1223.37 168.848 1221.31 169.332 1219.49 170.3C1217.7 171.248 1216.28 172.566 1215.23 174.255C1214.2 175.923 1213.69 177.828 1213.69 179.97V210H1206.39ZM1238.77 210V162.545H1246.06V210H1238.77ZM1242.47 154.636C1241.05 154.636 1239.83 154.152 1238.8 153.184C1237.79 152.216 1237.28 151.053 1237.28 149.693C1237.28 148.334 1237.79 147.17 1238.8 146.202C1239.83 145.234 1241.05 144.75 1242.47 144.75C1243.89 144.75 1245.11 145.234 1246.12 146.202C1247.15 147.17 1247.66 148.334 1247.66 149.693C1247.66 151.053 1247.15 152.216 1246.12 153.184C1245.11 154.152 1243.89 154.636 1242.47 154.636ZM1259.41 227.795V162.545H1266.45V170.084H1267.32C1267.86 169.26 1268.6 168.21 1269.54 166.933C1270.51 165.635 1271.89 164.482 1273.68 163.472C1275.5 162.442 1277.95 161.928 1281.04 161.928C1285.03 161.928 1288.55 162.926 1291.6 164.924C1294.65 166.922 1297.03 169.754 1298.74 173.42C1300.45 177.087 1301.3 181.412 1301.3 186.396C1301.3 191.422 1300.45 195.778 1298.74 199.465C1297.03 203.131 1294.66 205.973 1291.63 207.992C1288.61 209.99 1285.12 210.989 1281.16 210.989C1278.11 210.989 1275.67 210.484 1273.84 209.475C1272.01 208.445 1270.59 207.281 1269.61 205.984C1268.62 204.665 1267.86 203.574 1267.32 202.709H1266.7V227.795H1259.41ZM1266.58 186.273C1266.58 189.857 1267.1 193.018 1268.15 195.757C1269.2 198.476 1270.74 200.608 1272.76 202.153C1274.78 203.677 1277.25 204.439 1280.17 204.439C1283.22 204.439 1285.76 203.636 1287.8 202.029C1289.86 200.402 1291.41 198.219 1292.44 195.479C1293.49 192.719 1294.01 189.651 1294.01 186.273C1294.01 182.936 1293.5 179.929 1292.47 177.251C1291.46 174.553 1289.92 172.422 1287.86 170.856C1285.83 169.27 1283.26 168.477 1280.17 168.477C1277.21 168.477 1274.71 169.229 1272.7 170.733C1270.68 172.216 1269.15 174.296 1268.12 176.973C1267.09 179.63 1266.58 182.73 1266.58 186.273ZM1333.06 162.545V168.724H1308.47V162.545H1333.06ZM1315.64 151.176H1322.93V196.406C1322.93 198.466 1323.23 200.011 1323.83 201.04C1324.44 202.05 1325.23 202.729 1326.17 203.08C1327.14 203.409 1328.16 203.574 1329.23 203.574C1330.04 203.574 1330.7 203.533 1331.21 203.45C1331.73 203.347 1332.14 203.265 1332.45 203.203L1333.93 209.753C1333.43 209.938 1332.74 210.124 1331.86 210.309C1330.97 210.515 1329.85 210.618 1328.49 210.618C1326.43 210.618 1324.41 210.175 1322.44 209.289C1320.48 208.404 1318.85 207.055 1317.55 205.242C1316.28 203.43 1315.64 201.143 1315.64 198.384V151.176ZM1395.94 166.5H1388.27C1387.82 164.296 1387.03 162.36 1385.89 160.692C1384.78 159.023 1383.42 157.623 1381.82 156.49C1380.23 155.337 1378.47 154.472 1376.53 153.895C1374.6 153.318 1372.58 153.03 1370.48 153.03C1366.65 153.03 1363.18 153.998 1360.07 155.934C1356.98 157.87 1354.52 160.723 1352.68 164.492C1350.87 168.261 1349.96 172.885 1349.96 178.364C1349.96 183.842 1350.87 188.466 1352.68 192.235C1354.52 196.005 1356.98 198.857 1360.07 200.793C1363.18 202.729 1366.65 203.697 1370.48 203.697C1372.58 203.697 1374.6 203.409 1376.53 202.832C1378.47 202.256 1380.23 201.401 1381.82 200.268C1383.42 199.115 1384.78 197.704 1385.89 196.036C1387.03 194.347 1387.82 192.411 1388.27 190.227H1395.94C1395.36 193.461 1394.31 196.355 1392.78 198.909C1391.26 201.463 1389.36 203.636 1387.1 205.428C1384.83 207.199 1382.29 208.548 1379.47 209.475C1376.67 210.402 1373.67 210.865 1370.48 210.865C1365.08 210.865 1360.28 209.547 1356.08 206.911C1351.88 204.274 1348.57 200.526 1346.16 195.665C1343.75 190.804 1342.55 185.037 1342.55 178.364C1342.55 171.69 1343.75 165.923 1346.16 161.062C1348.57 156.202 1351.88 152.453 1356.08 149.817C1360.28 147.18 1365.08 145.862 1370.48 145.862C1373.67 145.862 1376.67 146.326 1379.47 147.252C1382.29 148.179 1384.83 149.539 1387.1 151.331C1389.36 153.102 1391.26 155.265 1392.78 157.819C1394.31 160.352 1395.36 163.246 1395.94 166.5ZM1414.62 146.727V210H1407.33V146.727H1414.62ZM1457.88 190.598V162.545H1465.17V210H1457.88V201.967H1457.39C1456.27 204.377 1454.54 206.426 1452.19 208.115C1449.85 209.784 1446.88 210.618 1443.3 210.618C1440.33 210.618 1437.69 209.969 1435.39 208.672C1433.08 207.353 1431.27 205.376 1429.95 202.74C1428.63 200.083 1427.97 196.736 1427.97 192.699V162.545H1435.26V192.205C1435.26 195.665 1436.23 198.425 1438.17 200.484C1440.13 202.544 1442.62 203.574 1445.64 203.574C1447.46 203.574 1449.3 203.11 1451.18 202.184C1453.07 201.257 1454.66 199.836 1455.93 197.92C1457.23 196.005 1457.88 193.564 1457.88 190.598ZM1479.51 210V146.727H1486.8V170.084H1487.42C1487.96 169.26 1488.7 168.21 1489.65 166.933C1490.62 165.635 1492 164.482 1493.79 163.472C1495.6 162.442 1498.05 161.928 1501.14 161.928C1505.14 161.928 1508.66 162.926 1511.71 164.924C1514.75 166.922 1517.13 169.754 1518.84 173.42C1520.55 177.087 1521.41 181.412 1521.41 186.396C1521.41 191.422 1520.55 195.778 1518.84 199.465C1517.13 203.131 1514.76 205.973 1511.74 207.992C1508.71 209.99 1505.22 210.989 1501.26 210.989C1498.22 210.989 1495.77 210.484 1493.94 209.475C1492.11 208.445 1490.7 207.281 1489.71 205.984C1488.72 204.665 1487.96 203.574 1487.42 202.709H1486.56V210H1479.51ZM1486.68 186.273C1486.68 189.857 1487.21 193.018 1488.26 195.757C1489.31 198.476 1490.84 200.608 1492.86 202.153C1494.88 203.677 1497.35 204.439 1500.27 204.439C1503.32 204.439 1505.87 203.636 1507.91 202.029C1509.97 200.402 1511.51 198.219 1512.54 195.479C1513.59 192.719 1514.12 189.651 1514.12 186.273C1514.12 182.936 1513.6 179.929 1512.57 177.251C1511.56 174.553 1510.03 172.422 1507.97 170.856C1505.93 169.27 1503.36 168.477 1500.27 168.477C1497.31 168.477 1494.82 169.229 1492.8 170.733C1490.78 172.216 1489.26 174.296 1488.23 176.973C1487.2 179.63 1486.68 182.73 1486.68 186.273ZM1542.2 146.727L1541.58 192.205H1534.41L1533.8 146.727H1542.2ZM1538 210.494C1536.47 210.494 1535.17 209.949 1534.07 208.857C1532.98 207.765 1532.44 206.457 1532.44 204.933C1532.44 203.409 1532.98 202.101 1534.07 201.01C1535.17 199.918 1536.47 199.372 1538 199.372C1539.52 199.372 1540.83 199.918 1541.92 201.01C1543.01 202.101 1543.56 203.409 1543.56 204.933C1543.56 205.942 1543.3 206.869 1542.79 207.714C1542.29 208.558 1541.62 209.238 1540.78 209.753C1539.95 210.247 1539.03 210.494 1538 210.494Z" fill="#EBDDD5"/>
<ellipse cx="960" cy="639.5" rx="273" ry="266.5" fill="url(#paint1_angular_7_383)"/>
<path d="M960.908 681.94C911.763 709.829 852.09 695.84 827.224 652.023C802.358 608.207 820.947 549.803 870.092 521.913C919.236 494.023 978.909 508.013 1003.78 551.83C1028.64 595.646 1010.05 654.05 960.908 681.94Z" fill="#D9D9D9" stroke="black" stroke-width="10"/>
<path d="M911.426 578.16C919.405 596.294 923.203 596.029 934.986 601.722C946.769 607.415 964.16 607.65 969.424 592.54C974.687 577.431 960.629 564.591 960.629 564.591C950.83 554.575 941.827 551.687 930.453 550.902C919.078 550.116 903.448 560.025 911.426 578.16Z" stroke="black" stroke-width="10"/>
<path d="M935.917 619.048C925.835 596.879 921.101 597.131 906.369 590.001C891.636 582.872 869.953 582.269 863.504 600.523C857.055 618.778 874.678 634.628 874.678 634.628C886.97 646.972 898.215 650.643 912.402 651.805C926.588 652.967 946 641.218 935.917 619.048Z" stroke="black" stroke-width="10"/>
<path d="M806.257 1124H798.224L821.457 1060.73H829.366L852.599 1124H844.567L825.659 1070.74H825.165L806.257 1124ZM809.223 1099.28H841.601V1106.08H809.223V1099.28ZM895.08 1087.17L888.53 1089.03C888.118 1087.94 887.511 1086.87 886.707 1085.84C885.925 1084.79 884.854 1083.93 883.494 1083.25C882.135 1082.57 880.395 1082.23 878.273 1082.23C875.369 1082.23 872.949 1082.9 871.013 1084.24C869.097 1085.56 868.14 1087.24 868.14 1089.27C868.14 1091.09 868.799 1092.52 870.117 1093.57C871.435 1094.62 873.495 1095.49 876.296 1096.19L883.34 1097.92C887.583 1098.95 890.744 1100.53 892.825 1102.65C894.905 1104.75 895.945 1107.46 895.945 1110.78C895.945 1113.5 895.162 1115.93 893.597 1118.07C892.052 1120.21 889.89 1121.9 887.109 1123.13C884.328 1124.37 881.095 1124.99 877.408 1124.99C872.568 1124.99 868.562 1123.94 865.39 1121.84C862.218 1119.74 860.21 1116.67 859.365 1112.63L866.286 1110.9C866.945 1113.45 868.191 1115.37 870.024 1116.65C871.878 1117.92 874.298 1118.56 877.284 1118.56C880.683 1118.56 883.381 1117.84 885.379 1116.4C887.397 1114.94 888.407 1113.19 888.407 1111.15C888.407 1109.5 887.83 1108.12 886.676 1107.01C885.523 1105.88 883.752 1105.03 881.363 1104.47L873.453 1102.62C869.108 1101.59 865.915 1099.99 863.876 1097.83C861.858 1095.65 860.848 1092.92 860.848 1089.64C860.848 1086.97 861.6 1084.6 863.104 1082.54C864.628 1080.48 866.698 1078.86 869.314 1077.69C871.95 1076.51 874.936 1075.93 878.273 1075.93C882.969 1075.93 886.656 1076.96 889.333 1079.02C892.032 1081.08 893.947 1083.8 895.08 1087.17ZM913.717 1106.7L913.594 1097.68H915.077L935.838 1076.55H944.859L922.739 1098.91H922.121L913.717 1106.7ZM906.92 1124V1060.73H914.212V1124H906.92ZM937.074 1124L918.537 1100.52L923.727 1095.45L946.342 1124H937.074ZM979.701 1060.73H988.846L1010.35 1113.25H1011.09L1032.59 1060.73H1041.74V1124H1034.57V1075.93H1033.95L1014.18 1124H1007.26L987.487 1075.93H986.869V1124H979.701V1060.73ZM1076.01 1124.99C1071.44 1124.99 1067.49 1123.98 1064.18 1121.96C1060.88 1119.92 1058.34 1117.08 1056.54 1113.43C1054.77 1109.77 1053.89 1105.5 1053.89 1100.64C1053.89 1095.78 1054.77 1091.5 1056.54 1087.79C1058.34 1084.06 1060.83 1081.16 1064.02 1079.08C1067.23 1076.98 1070.98 1075.93 1075.27 1075.93C1077.74 1075.93 1080.18 1076.34 1082.59 1077.16C1085 1077.99 1087.19 1079.33 1089.17 1081.18C1091.15 1083.01 1092.72 1085.44 1093.9 1088.47C1095.07 1091.5 1095.66 1095.23 1095.66 1099.65V1102.74H1059.08V1096.44H1088.24C1088.24 1093.76 1087.71 1091.37 1086.64 1089.27C1085.59 1087.17 1084.08 1085.52 1082.13 1084.3C1080.19 1083.08 1077.9 1082.48 1075.27 1082.48C1072.36 1082.48 1069.85 1083.2 1067.73 1084.64C1065.63 1086.06 1064.01 1087.91 1062.88 1090.2C1061.74 1092.49 1061.18 1094.94 1061.18 1097.55V1101.76C1061.18 1105.34 1061.8 1108.38 1063.03 1110.87C1064.29 1113.34 1066.03 1115.23 1068.25 1116.52C1070.48 1117.8 1073.06 1118.44 1076.01 1118.44C1077.92 1118.44 1079.65 1118.17 1081.2 1117.64C1082.76 1117.08 1084.11 1116.26 1085.25 1115.16C1086.38 1114.05 1087.25 1112.67 1087.87 1111.02L1094.92 1113C1094.17 1115.39 1092.93 1117.49 1091.18 1119.3C1089.43 1121.1 1087.26 1122.5 1084.69 1123.51C1082.11 1124.49 1079.22 1124.99 1076.01 1124.99Z" fill="white"/>
<defs>
<linearGradient id="paint0_linear_7_383" x1="960" y1="0" x2="960" y2="1280" gradientUnits="userSpaceOnUse">
<stop stop-color="#2D4E00"/>
<stop offset="1" stop-color="#003827"/>
</linearGradient>
<radialGradient id="paint1_angular_7_383" cx="0" cy="0" r="1" gradientUnits="userSpaceOnUse" gradientTransform="translate(960 639.5) rotate(72.633) scale(262.989 269.403)">
<stop offset="0.113165" stop-color="#480020"/>
<stop offset="0.380208" stop-color="#6B6B6B" stop-opacity="0.938393"/>
<stop offset="0.664675" stop-color="#90305A"/>
</radialGradient>
</defs>
</svg>
