<svg width="1920" height="1280" viewBox="0 0 1920 1280" fill="none" xmlns="http://www.w3.org/2000/svg">
<rect width="1920" height="1280" fill="url(#paint0_linear_7_311)"/>
<path d="M298.155 210L280.854 146.727H288.639L301.862 198.26H302.48L315.95 146.727H324.601L338.071 198.26H338.689L351.912 146.727H359.697L342.396 210H334.487L320.523 159.58H320.028L306.064 210H298.155ZM383.734 210.989C379.161 210.989 375.217 209.979 371.901 207.961C368.605 205.922 366.062 203.08 364.27 199.434C362.499 195.768 361.613 191.504 361.613 186.643C361.613 181.783 362.499 177.499 364.27 173.791C366.062 170.063 368.554 167.159 371.746 165.079C374.96 162.978 378.708 161.928 382.992 161.928C385.464 161.928 387.904 162.339 390.314 163.163C392.724 163.987 394.918 165.326 396.895 167.18C398.872 169.013 400.448 171.443 401.622 174.471C402.796 177.499 403.383 181.227 403.383 185.655V188.744H366.803V182.442H395.968C395.968 179.764 395.433 177.375 394.362 175.274C393.311 173.173 391.808 171.515 389.851 170.3C387.915 169.085 385.629 168.477 382.992 168.477C380.088 168.477 377.575 169.198 375.454 170.64C373.353 172.061 371.736 173.915 370.603 176.201C369.471 178.487 368.904 180.938 368.904 183.554V187.756C368.904 191.339 369.522 194.377 370.758 196.87C372.014 199.341 373.755 201.226 375.979 202.523C378.203 203.8 380.788 204.439 383.734 204.439C385.649 204.439 387.379 204.171 388.924 203.636C390.489 203.08 391.838 202.256 392.971 201.164C394.104 200.052 394.979 198.672 395.597 197.024L402.641 199.001C401.9 201.391 400.654 203.491 398.903 205.304C397.152 207.096 394.99 208.496 392.415 209.506C389.841 210.494 386.947 210.989 383.734 210.989ZM421.765 146.727V210H414.474V146.727H421.765ZM454.398 210.989C449.949 210.989 446.118 209.938 442.905 207.837C439.692 205.737 437.22 202.843 435.49 199.156C433.76 195.469 432.895 191.257 432.895 186.52C432.895 181.7 433.781 177.447 435.552 173.76C437.344 170.053 439.836 167.159 443.029 165.079C446.242 162.978 449.99 161.928 454.274 161.928C457.611 161.928 460.618 162.545 463.296 163.781C465.973 165.017 468.167 166.747 469.876 168.972C471.586 171.196 472.647 173.791 473.059 176.757H465.767C465.211 174.594 463.975 172.679 462.06 171.011C460.165 169.322 457.611 168.477 454.398 168.477C451.556 168.477 449.063 169.219 446.921 170.702C444.8 172.164 443.142 174.234 441.947 176.912C440.773 179.569 440.186 182.689 440.186 186.273C440.186 189.939 440.763 193.131 441.916 195.85C443.09 198.569 444.738 200.68 446.86 202.184C449.002 203.687 451.514 204.439 454.398 204.439C456.293 204.439 458.013 204.109 459.557 203.45C461.102 202.791 462.41 201.844 463.481 200.608C464.552 199.372 465.314 197.889 465.767 196.159H473.059C472.647 198.96 471.627 201.483 470 203.728C468.393 205.953 466.262 207.724 463.605 209.042C460.968 210.34 457.899 210.989 454.398 210.989ZM502.996 210.989C498.712 210.989 494.953 209.969 491.719 207.93C488.506 205.891 485.993 203.038 484.181 199.372C482.389 195.706 481.493 191.422 481.493 186.52C481.493 181.577 482.389 177.262 484.181 173.575C485.993 169.888 488.506 167.025 491.719 164.986C494.953 162.947 498.712 161.928 502.996 161.928C507.28 161.928 511.028 162.947 514.241 164.986C517.475 167.025 519.988 169.888 521.78 173.575C523.592 177.262 524.498 181.577 524.498 186.52C524.498 191.422 523.592 195.706 521.78 199.372C519.988 203.038 517.475 205.891 514.241 207.93C511.028 209.969 507.28 210.989 502.996 210.989ZM502.996 204.439C506.25 204.439 508.927 203.605 511.028 201.936C513.129 200.268 514.684 198.075 515.693 195.356C516.703 192.637 517.207 189.692 517.207 186.52C517.207 183.348 516.703 180.392 515.693 177.653C514.684 174.914 513.129 172.7 511.028 171.011C508.927 169.322 506.25 168.477 502.996 168.477C499.741 168.477 497.064 169.322 494.963 171.011C492.862 172.7 491.307 174.914 490.298 177.653C489.289 180.392 488.784 183.348 488.784 186.52C488.784 189.692 489.289 192.637 490.298 195.356C491.307 198.075 492.862 200.268 494.963 201.936C497.064 203.605 499.741 204.439 502.996 204.439ZM535.628 210V162.545H542.672V169.96H543.29C544.279 167.427 545.875 165.46 548.079 164.059C550.283 162.638 552.93 161.928 556.019 161.928C559.15 161.928 561.755 162.638 563.835 164.059C565.936 165.46 567.574 167.427 568.748 169.96H569.242C570.457 167.509 572.28 165.563 574.71 164.121C577.141 162.659 580.055 161.928 583.454 161.928C587.697 161.928 591.167 163.256 593.865 165.913C596.563 168.549 597.912 172.658 597.912 178.24V210H590.621V178.24C590.621 174.739 589.664 172.236 587.748 170.733C585.833 169.229 583.577 168.477 580.982 168.477C577.645 168.477 575.061 169.487 573.227 171.505C571.394 173.503 570.478 176.036 570.478 179.105V210H563.063V177.499C563.063 174.8 562.188 172.627 560.437 170.98C558.686 169.311 556.431 168.477 553.671 168.477C551.776 168.477 550.005 168.982 548.357 169.991C546.73 171 545.412 172.401 544.403 174.193C543.414 175.964 542.92 178.013 542.92 180.341V210H535.628ZM631.14 210.989C626.567 210.989 622.623 209.979 619.307 207.961C616.012 205.922 613.468 203.08 611.676 199.434C609.905 195.768 609.019 191.504 609.019 186.643C609.019 181.783 609.905 177.499 611.676 173.791C613.468 170.063 615.96 167.159 619.153 165.079C622.366 162.978 626.114 161.928 630.398 161.928C632.87 161.928 635.311 162.339 637.721 163.163C640.13 163.987 642.324 165.326 644.301 167.18C646.278 169.013 647.854 171.443 649.028 174.471C650.202 177.499 650.789 181.227 650.789 185.655V188.744H614.21V182.442H643.374C643.374 179.764 642.839 177.375 641.768 175.274C640.717 173.173 639.214 171.515 637.257 170.3C635.321 169.085 633.035 168.477 630.398 168.477C627.494 168.477 624.982 169.198 622.86 170.64C620.759 172.061 619.142 173.915 618.01 176.201C616.877 178.487 616.31 180.938 616.31 183.554V187.756C616.31 191.339 616.928 194.377 618.164 196.87C619.42 199.341 621.161 201.226 623.385 202.523C625.61 203.8 628.195 204.439 631.14 204.439C633.055 204.439 634.786 204.171 636.33 203.636C637.896 203.08 639.245 202.256 640.377 201.164C641.51 200.052 642.386 198.672 643.004 197.024L650.048 199.001C649.306 201.391 648.06 203.491 646.309 205.304C644.559 207.096 642.396 208.496 639.821 209.506C637.247 210.494 634.353 210.989 631.14 210.989ZM706.987 162.545V168.724H682.395V162.545H706.987ZM689.562 151.176H696.853V196.406C696.853 198.466 697.152 200.011 697.749 201.04C698.367 202.05 699.15 202.729 700.097 203.08C701.065 203.409 702.085 203.574 703.156 203.574C703.959 203.574 704.618 203.533 705.133 203.45C705.648 203.347 706.06 203.265 706.369 203.203L707.852 209.753C707.358 209.938 706.668 210.124 705.782 210.309C704.896 210.515 703.774 210.618 702.414 210.618C700.355 210.618 698.336 210.175 696.359 209.289C694.402 208.404 692.775 207.055 691.478 205.242C690.201 203.43 689.562 201.143 689.562 198.384V151.176ZM736.723 210.989C732.439 210.989 728.68 209.969 725.447 207.93C722.233 205.891 719.721 203.038 717.908 199.372C716.116 195.706 715.22 191.422 715.22 186.52C715.22 181.577 716.116 177.262 717.908 173.575C719.721 169.888 722.233 167.025 725.447 164.986C728.68 162.947 732.439 161.928 736.723 161.928C741.007 161.928 744.756 162.947 747.969 164.986C751.203 167.025 753.715 169.888 755.507 173.575C757.32 177.262 758.226 181.577 758.226 186.52C758.226 191.422 757.32 195.706 755.507 199.372C753.715 203.038 751.203 205.891 747.969 207.93C744.756 209.969 741.007 210.989 736.723 210.989ZM736.723 204.439C739.977 204.439 742.655 203.605 744.756 201.936C746.857 200.268 748.412 198.075 749.421 195.356C750.43 192.637 750.935 189.692 750.935 186.52C750.935 183.348 750.43 180.392 749.421 177.653C748.412 174.914 746.857 172.7 744.756 171.011C742.655 169.322 739.977 168.477 736.723 168.477C733.469 168.477 730.791 169.322 728.691 171.011C726.59 172.7 725.035 174.914 724.025 177.653C723.016 180.392 722.512 183.348 722.512 186.52C722.512 189.692 723.016 192.637 724.025 195.356C725.035 198.075 726.59 200.268 728.691 201.936C730.791 203.605 733.469 204.439 736.723 204.439ZM829.416 162.545C829.045 159.415 827.541 156.984 824.905 155.254C822.269 153.524 819.035 152.659 815.204 152.659C812.403 152.659 809.952 153.112 807.851 154.018C805.771 154.925 804.144 156.171 802.97 157.757C801.816 159.343 801.239 161.145 801.239 163.163C801.239 164.852 801.641 166.304 802.444 167.52C803.268 168.714 804.319 169.713 805.596 170.516C806.873 171.299 808.211 171.948 809.612 172.463C811.013 172.957 812.3 173.359 813.474 173.668L819.9 175.398C821.548 175.83 823.381 176.428 825.399 177.19C827.438 177.952 829.385 178.992 831.238 180.31C833.113 181.608 834.657 183.276 835.873 185.315C837.088 187.354 837.695 189.857 837.695 192.822C837.695 196.241 836.799 199.331 835.008 202.091C833.236 204.851 830.641 207.044 827.222 208.672C823.824 210.299 819.694 211.112 814.833 211.112C810.302 211.112 806.378 210.381 803.062 208.919C799.767 207.456 797.172 205.417 795.277 202.801C793.402 200.186 792.342 197.148 792.095 193.688H800.004C800.21 196.077 801.013 198.054 802.413 199.619C803.835 201.164 805.627 202.317 807.789 203.08C809.972 203.821 812.32 204.192 814.833 204.192C817.758 204.192 820.384 203.718 822.711 202.771C825.039 201.803 826.882 200.464 828.242 198.754C829.601 197.024 830.281 195.006 830.281 192.699C830.281 190.598 829.694 188.888 828.52 187.57C827.346 186.252 825.801 185.181 823.885 184.357C821.97 183.533 819.9 182.812 817.676 182.195L809.89 179.97C804.947 178.549 801.033 176.52 798.15 173.884C795.266 171.248 793.825 167.798 793.825 163.534C793.825 159.991 794.782 156.902 796.698 154.266C798.634 151.609 801.229 149.549 804.483 148.087C807.758 146.604 811.414 145.862 815.451 145.862C819.529 145.862 823.154 146.593 826.326 148.056C829.498 149.498 832.011 151.475 833.864 153.988C835.739 156.5 836.727 159.353 836.83 162.545H829.416ZM849.304 227.795V162.545H856.348V170.084H857.213C857.749 169.26 858.49 168.21 859.438 166.933C860.406 165.635 861.786 164.482 863.578 163.472C865.39 162.442 867.841 161.928 870.931 161.928C874.926 161.928 878.448 162.926 881.497 164.924C884.545 166.922 886.924 169.754 888.633 173.42C890.343 177.087 891.198 181.412 891.198 186.396C891.198 191.422 890.343 195.778 888.633 199.465C886.924 203.131 884.555 205.973 881.528 207.992C878.5 209.99 875.009 210.989 871.054 210.989C868.006 210.989 865.565 210.484 863.732 209.475C861.899 208.445 860.488 207.281 859.499 205.984C858.511 204.665 857.749 203.574 857.213 202.709H856.595V227.795H849.304ZM856.472 186.273C856.472 189.857 856.997 193.018 858.047 195.757C859.098 198.476 860.632 200.608 862.651 202.153C864.669 203.677 867.141 204.439 870.066 204.439C873.114 204.439 875.657 203.636 877.697 202.029C879.756 200.402 881.301 198.219 882.331 195.479C883.381 192.719 883.906 189.651 883.906 186.273C883.906 182.936 883.392 179.929 882.362 177.251C881.352 174.553 879.818 172.422 877.758 170.856C875.719 169.27 873.155 168.477 870.066 168.477C867.1 168.477 864.607 169.229 862.589 170.733C860.57 172.216 859.046 174.296 858.017 176.973C856.987 179.63 856.472 182.73 856.472 186.273ZM916.284 211.112C913.277 211.112 910.548 210.546 908.097 209.413C905.646 208.26 903.7 206.602 902.258 204.439C900.816 202.256 900.095 199.619 900.095 196.53C900.095 193.811 900.631 191.607 901.702 189.918C902.773 188.209 904.204 186.87 905.996 185.902C907.788 184.934 909.765 184.213 911.928 183.739C914.111 183.245 916.305 182.854 918.509 182.565C921.392 182.195 923.73 181.917 925.522 181.731C927.334 181.525 928.653 181.185 929.476 180.712C930.321 180.238 930.743 179.414 930.743 178.24V177.993C930.743 174.945 929.909 172.576 928.241 170.887C926.593 169.198 924.09 168.354 920.733 168.354C917.252 168.354 914.523 169.116 912.546 170.64C910.569 172.164 909.178 173.791 908.375 175.521L901.455 173.05C902.691 170.166 904.338 167.921 906.398 166.315C908.478 164.687 910.744 163.555 913.195 162.916C915.666 162.257 918.097 161.928 920.486 161.928C922.01 161.928 923.761 162.113 925.738 162.484C927.736 162.834 929.662 163.565 931.515 164.677C933.39 165.789 934.945 167.468 936.181 169.713C937.416 171.958 938.034 174.965 938.034 178.734V210H930.743V203.574H930.372C929.878 204.604 929.054 205.706 927.901 206.88C926.747 208.054 925.213 209.053 923.297 209.876C921.382 210.7 919.044 211.112 916.284 211.112ZM917.396 204.562C920.28 204.562 922.71 203.996 924.688 202.863C926.686 201.73 928.189 200.268 929.198 198.476C930.228 196.684 930.743 194.8 930.743 192.822V186.149C930.434 186.52 929.754 186.86 928.704 187.169C927.674 187.457 926.48 187.714 925.12 187.941C923.781 188.147 922.474 188.332 921.197 188.497C919.94 188.641 918.921 188.765 918.138 188.868C916.243 189.115 914.472 189.517 912.824 190.073C911.197 190.608 909.879 191.422 908.869 192.513C907.881 193.585 907.387 195.047 907.387 196.901C907.387 199.434 908.324 201.349 910.198 202.647C912.093 203.924 914.492 204.562 917.396 204.562ZM951.342 210V162.545H958.386V169.713H958.881C959.746 167.365 961.311 165.46 963.577 163.998C965.842 162.535 968.396 161.804 971.239 161.804C971.774 161.804 972.443 161.814 973.247 161.835C974.05 161.855 974.658 161.886 975.07 161.928V169.342C974.822 169.281 974.256 169.188 973.37 169.064C972.505 168.92 971.589 168.848 970.621 168.848C968.314 168.848 966.254 169.332 964.442 170.3C962.65 171.248 961.229 172.566 960.178 174.255C959.148 175.923 958.633 177.828 958.633 179.97V210H951.342ZM990.509 192.699L990.386 183.678H991.869L1012.63 162.545H1021.65L999.531 184.913H998.913L990.509 192.699ZM983.712 210V146.727H991.004V210H983.712ZM1013.87 210L995.329 186.52L1000.52 181.453L1023.13 210H1013.87ZM1038.33 146.727V210H1031.04V146.727H1038.33ZM1071.58 210.989C1067 210.989 1063.06 209.979 1059.74 207.961C1056.45 205.922 1053.91 203.08 1052.11 199.434C1050.34 195.768 1049.46 191.504 1049.46 186.643C1049.46 181.783 1050.34 177.499 1052.11 173.791C1053.91 170.063 1056.4 167.159 1059.59 165.079C1062.8 162.978 1066.55 161.928 1070.84 161.928C1073.31 161.928 1075.75 162.339 1078.16 163.163C1080.57 163.987 1082.76 165.326 1084.74 167.18C1086.72 169.013 1088.29 171.443 1089.47 174.471C1090.64 177.499 1091.23 181.227 1091.23 185.655V188.744H1054.65V182.442H1083.81C1083.81 179.764 1083.28 177.375 1082.21 175.274C1081.15 173.173 1079.65 171.515 1077.69 170.3C1075.76 169.085 1073.47 168.477 1070.84 168.477C1067.93 168.477 1065.42 169.198 1063.3 170.64C1061.2 172.061 1059.58 173.915 1058.45 176.201C1057.31 178.487 1056.75 180.938 1056.75 183.554V187.756C1056.75 191.339 1057.37 194.377 1058.6 196.87C1059.86 199.341 1061.6 201.226 1063.82 202.523C1066.05 203.8 1068.63 204.439 1071.58 204.439C1073.49 204.439 1075.22 204.171 1076.77 203.636C1078.33 203.08 1079.68 202.256 1080.81 201.164C1081.95 200.052 1082.82 198.672 1083.44 197.024L1090.49 199.001C1089.74 201.391 1088.5 203.491 1086.75 205.304C1085 207.096 1082.83 208.496 1080.26 209.506C1077.68 210.494 1074.79 210.989 1071.58 210.989ZM1137.91 162.545C1137.54 159.415 1136.03 156.984 1133.4 155.254C1130.76 153.524 1127.53 152.659 1123.7 152.659C1120.9 152.659 1118.44 153.112 1116.34 154.018C1114.26 154.925 1112.64 156.171 1111.46 157.757C1110.31 159.343 1109.73 161.145 1109.73 163.163C1109.73 164.852 1110.13 166.304 1110.94 167.52C1111.76 168.714 1112.81 169.713 1114.09 170.516C1115.37 171.299 1116.7 171.948 1118.11 172.463C1119.51 172.957 1120.79 173.359 1121.97 173.668L1128.39 175.398C1130.04 175.83 1131.87 176.428 1133.89 177.19C1135.93 177.952 1137.88 178.992 1139.73 180.31C1141.61 181.608 1143.15 183.276 1144.37 185.315C1145.58 187.354 1146.19 189.857 1146.19 192.822C1146.19 196.241 1145.29 199.331 1143.5 202.091C1141.73 204.851 1139.13 207.044 1135.72 208.672C1132.32 210.299 1128.19 211.112 1123.33 211.112C1118.8 211.112 1114.87 210.381 1111.56 208.919C1108.26 207.456 1105.66 205.417 1103.77 202.801C1101.9 200.186 1100.83 197.148 1100.59 193.688H1108.5C1108.7 196.077 1109.51 198.054 1110.91 199.619C1112.33 201.164 1114.12 202.317 1116.28 203.08C1118.47 203.821 1120.81 204.192 1123.33 204.192C1126.25 204.192 1128.88 203.718 1131.2 202.771C1133.53 201.803 1135.38 200.464 1136.73 198.754C1138.09 197.024 1138.77 195.006 1138.77 192.699C1138.77 190.598 1138.19 188.888 1137.01 187.57C1135.84 186.252 1134.29 185.181 1132.38 184.357C1130.46 183.533 1128.39 182.812 1126.17 182.195L1118.38 179.97C1113.44 178.549 1109.53 176.52 1106.64 173.884C1103.76 171.248 1102.32 167.798 1102.32 163.534C1102.32 159.991 1103.28 156.902 1105.19 154.266C1107.13 151.609 1109.72 149.549 1112.98 148.087C1116.25 146.604 1119.91 145.862 1123.94 145.862C1128.02 145.862 1131.65 146.593 1134.82 148.056C1137.99 149.498 1140.5 151.475 1142.36 153.988C1144.23 156.5 1145.22 159.353 1145.32 162.545H1137.91ZM1177.08 210.989C1172.63 210.989 1168.8 209.938 1165.58 207.837C1162.37 205.737 1159.9 202.843 1158.17 199.156C1156.44 195.469 1155.57 191.257 1155.57 186.52C1155.57 181.7 1156.46 177.447 1158.23 173.76C1160.02 170.053 1162.51 167.159 1165.71 165.079C1168.92 162.978 1172.67 161.928 1176.95 161.928C1180.29 161.928 1183.3 162.545 1185.97 163.781C1188.65 165.017 1190.84 166.747 1192.55 168.972C1194.26 171.196 1195.32 173.791 1195.74 176.757H1188.45C1187.89 174.594 1186.65 172.679 1184.74 171.011C1182.84 169.322 1180.29 168.477 1177.08 168.477C1174.23 168.477 1171.74 169.219 1169.6 170.702C1167.48 172.164 1165.82 174.234 1164.63 176.912C1163.45 179.569 1162.86 182.689 1162.86 186.273C1162.86 189.939 1163.44 193.131 1164.59 195.85C1165.77 198.569 1167.42 200.68 1169.54 202.184C1171.68 203.687 1174.19 204.439 1177.08 204.439C1178.97 204.439 1180.69 204.109 1182.24 203.45C1183.78 202.791 1185.09 201.844 1186.16 200.608C1187.23 199.372 1187.99 197.889 1188.45 196.159H1195.74C1195.32 198.96 1194.3 201.483 1192.68 203.728C1191.07 205.953 1188.94 207.724 1186.28 209.042C1183.65 210.34 1180.58 210.989 1177.08 210.989ZM1206.39 210V162.545H1213.44V169.713H1213.93C1214.8 167.365 1216.36 165.46 1218.63 163.998C1220.89 162.535 1223.45 161.804 1226.29 161.804C1226.83 161.804 1227.5 161.814 1228.3 161.835C1229.1 161.855 1229.71 161.886 1230.12 161.928V169.342C1229.88 169.281 1229.31 169.188 1228.42 169.064C1227.56 168.92 1226.64 168.848 1225.67 168.848C1223.37 168.848 1221.31 169.332 1219.49 170.3C1217.7 171.248 1216.28 172.566 1215.23 174.255C1214.2 175.923 1213.69 177.828 1213.69 179.97V210H1206.39ZM1238.77 210V162.545H1246.06V210H1238.77ZM1242.47 154.636C1241.05 154.636 1239.83 154.152 1238.8 153.184C1237.79 152.216 1237.28 151.053 1237.28 149.693C1237.28 148.334 1237.79 147.17 1238.8 146.202C1239.83 145.234 1241.05 144.75 1242.47 144.75C1243.89 144.75 1245.11 145.234 1246.12 146.202C1247.15 147.17 1247.66 148.334 1247.66 149.693C1247.66 151.053 1247.15 152.216 1246.12 153.184C1245.11 154.152 1243.89 154.636 1242.47 154.636ZM1259.41 227.795V162.545H1266.45V170.084H1267.32C1267.86 169.26 1268.6 168.21 1269.54 166.933C1270.51 165.635 1271.89 164.482 1273.68 163.472C1275.5 162.442 1277.95 161.928 1281.04 161.928C1285.03 161.928 1288.55 162.926 1291.6 164.924C1294.65 166.922 1297.03 169.754 1298.74 173.42C1300.45 177.087 1301.3 181.412 1301.3 186.396C1301.3 191.422 1300.45 195.778 1298.74 199.465C1297.03 203.131 1294.66 205.973 1291.63 207.992C1288.61 209.99 1285.12 210.989 1281.16 210.989C1278.11 210.989 1275.67 210.484 1273.84 209.475C1272.01 208.445 1270.59 207.281 1269.61 205.984C1268.62 204.665 1267.86 203.574 1267.32 202.709H1266.7V227.795H1259.41ZM1266.58 186.273C1266.58 189.857 1267.1 193.018 1268.15 195.757C1269.2 198.476 1270.74 200.608 1272.76 202.153C1274.78 203.677 1277.25 204.439 1280.17 204.439C1283.22 204.439 1285.76 203.636 1287.8 202.029C1289.86 200.402 1291.41 198.219 1292.44 195.479C1293.49 192.719 1294.01 189.651 1294.01 186.273C1294.01 182.936 1293.5 179.929 1292.47 177.251C1291.46 174.553 1289.92 172.422 1287.86 170.856C1285.83 169.27 1283.26 168.477 1280.17 168.477C1277.21 168.477 1274.71 169.229 1272.7 170.733C1270.68 172.216 1269.15 174.296 1268.12 176.973C1267.09 179.63 1266.58 182.73 1266.58 186.273ZM1333.06 162.545V168.724H1308.47V162.545H1333.06ZM1315.64 151.176H1322.93V196.406C1322.93 198.466 1323.23 200.011 1323.83 201.04C1324.44 202.05 1325.23 202.729 1326.17 203.08C1327.14 203.409 1328.16 203.574 1329.23 203.574C1330.04 203.574 1330.7 203.533 1331.21 203.45C1331.73 203.347 1332.14 203.265 1332.45 203.203L1333.93 209.753C1333.43 209.938 1332.74 210.124 1331.86 210.309C1330.97 210.515 1329.85 210.618 1328.49 210.618C1326.43 210.618 1324.41 210.175 1322.44 209.289C1320.48 208.404 1318.85 207.055 1317.55 205.242C1316.28 203.43 1315.64 201.143 1315.64 198.384V151.176ZM1395.94 166.5H1388.27C1387.82 164.296 1387.03 162.36 1385.89 160.692C1384.78 159.023 1383.42 157.623 1381.82 156.49C1380.23 155.337 1378.47 154.472 1376.53 153.895C1374.6 153.318 1372.58 153.03 1370.48 153.03C1366.65 153.03 1363.18 153.998 1360.07 155.934C1356.98 157.87 1354.52 160.723 1352.68 164.492C1350.87 168.261 1349.96 172.885 1349.96 178.364C1349.96 183.842 1350.87 188.466 1352.68 192.235C1354.52 196.005 1356.98 198.857 1360.07 200.793C1363.18 202.729 1366.65 203.697 1370.48 203.697C1372.58 203.697 1374.6 203.409 1376.53 202.832C1378.47 202.256 1380.23 201.401 1381.82 200.268C1383.42 199.115 1384.78 197.704 1385.89 196.036C1387.03 194.347 1387.82 192.411 1388.27 190.227H1395.94C1395.36 193.461 1394.31 196.355 1392.78 198.909C1391.26 201.463 1389.36 203.636 1387.1 205.428C1384.83 207.199 1382.29 208.548 1379.47 209.475C1376.67 210.402 1373.67 210.865 1370.48 210.865C1365.08 210.865 1360.28 209.547 1356.08 206.911C1351.88 204.274 1348.57 200.526 1346.16 195.665C1343.75 190.804 1342.55 185.037 1342.55 178.364C1342.55 171.69 1343.75 165.923 1346.16 161.062C1348.57 156.202 1351.88 152.453 1356.08 149.817C1360.28 147.18 1365.08 145.862 1370.48 145.862C1373.67 145.862 1376.67 146.326 1379.47 147.252C1382.29 148.179 1384.83 149.539 1387.1 151.331C1389.36 153.102 1391.26 155.265 1392.78 157.819C1394.31 160.352 1395.36 163.246 1395.94 166.5ZM1414.62 146.727V210H1407.33V146.727H1414.62ZM1457.88 190.598V162.545H1465.17V210H1457.88V201.967H1457.39C1456.27 204.377 1454.54 206.426 1452.19 208.115C1449.85 209.784 1446.88 210.618 1443.3 210.618C1440.33 210.618 1437.69 209.969 1435.39 208.672C1433.08 207.353 1431.27 205.376 1429.95 202.74C1428.63 200.083 1427.97 196.736 1427.97 192.699V162.545H1435.26V192.205C1435.26 195.665 1436.23 198.425 1438.17 200.484C1440.13 202.544 1442.62 203.574 1445.64 203.574C1447.46 203.574 1449.3 203.11 1451.18 202.184C1453.07 201.257 1454.66 199.836 1455.93 197.92C1457.23 196.005 1457.88 193.564 1457.88 190.598ZM1479.51 210V146.727H1486.8V170.084H1487.42C1487.96 169.26 1488.7 168.21 1489.65 166.933C1490.62 165.635 1492 164.482 1493.79 163.472C1495.6 162.442 1498.05 161.928 1501.14 161.928C1505.14 161.928 1508.66 162.926 1511.71 164.924C1514.75 166.922 1517.13 169.754 1518.84 173.42C1520.55 177.087 1521.41 181.412 1521.41 186.396C1521.41 191.422 1520.55 195.778 1518.84 199.465C1517.13 203.131 1514.76 205.973 1511.74 207.992C1508.71 209.99 1505.22 210.989 1501.26 210.989C1498.22 210.989 1495.77 210.484 1493.94 209.475C1492.11 208.445 1490.7 207.281 1489.71 205.984C1488.72 204.665 1487.96 203.574 1487.42 202.709H1486.56V210H1479.51ZM1486.68 186.273C1486.68 189.857 1487.21 193.018 1488.26 195.757C1489.31 198.476 1490.84 200.608 1492.86 202.153C1494.88 203.677 1497.35 204.439 1500.27 204.439C1503.32 204.439 1505.87 203.636 1507.91 202.029C1509.97 200.402 1511.51 198.219 1512.54 195.479C1513.59 192.719 1514.12 189.651 1514.12 186.273C1514.12 182.936 1513.6 179.929 1512.57 177.251C1511.56 174.553 1510.03 172.422 1507.97 170.856C1505.93 169.27 1503.36 168.477 1500.27 168.477C1497.31 168.477 1494.82 169.229 1492.8 170.733C1490.78 172.216 1489.26 174.296 1488.23 176.973C1487.2 179.63 1486.68 182.73 1486.68 186.273ZM1542.2 146.727L1541.58 192.205H1534.41L1533.8 146.727H1542.2ZM1538 210.494C1536.47 210.494 1535.17 209.949 1534.07 208.857C1532.98 207.765 1532.44 206.457 1532.44 204.933C1532.44 203.409 1532.98 202.101 1534.07 201.01C1535.17 199.918 1536.47 199.372 1538 199.372C1539.52 199.372 1540.83 199.918 1541.92 201.01C1543.01 202.101 1543.56 203.409 1543.56 204.933C1543.56 205.942 1543.3 206.869 1542.79 207.714C1542.29 208.558 1541.62 209.238 1540.78 209.753C1539.95 210.247 1539.03 210.494 1538 210.494Z" fill="#EBDDD5"/>
<path d="M1478.52 641.581C1477.09 643.553 1475.6 645.106 1474 646.265C1460.46 662.447 1427.97 702.631 1427.97 702.631C1409.12 700.586 1404.04 695.724 1404.57 680.581C1384.17 680.581 1381.75 678.074 1393.32 665.581C1363.32 668.881 1366.69 662.603 1388.52 649.531C1316.22 654.331 1361.7 603.702 1407.87 625.531C1447.96 644.483 1463.47 653.9 1474 646.265C1479.09 640.192 1481.5 637.499 1478.52 641.581Z" fill="url(#paint1_linear_7_311)" stroke="#59260A" stroke-width="1.5"/>
<path d="M1509.72 799.231C1422.57 790.381 1404.42 805.831 1443.72 802.381L1509.72 799.231Z" fill="url(#paint2_linear_7_311)" stroke="#B25622" stroke-width="1.5"/>
<path d="M1445.67 802.381C1490.07 794.281 1529.52 796.081 1529.52 796.081L1554.57 802.381C1554.57 802.381 1488.57 818.581 1447.62 818.581C1406.67 818.581 1401.27 810.481 1445.67 802.381Z" fill="url(#paint3_linear_7_311)" stroke="#AA8239" stroke-width="1.5"/>
<path d="M1446.87 818.131C1406.99 832.618 1469.22 831.331 1555.77 805.081L1446.87 818.131Z" fill="url(#paint4_linear_7_311)" stroke="#B25622" stroke-width="1.5"/>
<path d="M1537.17 818.881C1466.52 813.181 1447.92 839.731 1486.92 828.931L1537.17 818.881Z" fill="url(#paint5_linear_7_311)" stroke="#B2661B" stroke-width="1.5"/>
<path d="M1487.82 828.931C1531.02 813.031 1533.27 819.781 1533.27 819.781L1551.57 828.931C1551.57 828.931 1528.92 852.031 1489.47 853.681C1450.02 855.331 1444.62 844.831 1487.82 828.931Z" fill="url(#paint6_linear_7_311)" stroke="#B25622" stroke-width="1.5"/>
<path d="M1567.62 821.281C1557.09 809.624 1555.15 802.339 1556.52 788.431H1530.57C1534.59 814.866 1532.02 829.478 1491.57 853.981C1455.7 869.855 1451.37 880.381 1540.62 867.181C1629.87 853.981 1625.21 825.613 1567.62 821.281Z" fill="url(#paint7_linear_7_311)" stroke="#B2661B" stroke-width="1.5"/>
<path fill-rule="evenodd" clip-rule="evenodd" d="M1531.62 655.981C1521.42 644.731 1521.56 615.832 1537.62 590.431L1497.57 594.481L1474.32 629.611C1474.17 629.748 1474.02 629.888 1473.87 630.031C1469.75 633.925 1465.54 637.713 1461.36 641.47C1435.27 664.921 1410.53 687.169 1417.77 726.481C1418.6 716.391 1419.28 712.725 1420.92 710.431L1420.93 710.417C1426.39 780.778 1450.48 793.698 1521.42 781.381C1526.67 767.503 1531.44 741.958 1534.03 717.426C1549.83 749.272 1579.92 802.307 1599.42 788.881C1626.87 769.981 1652.59 696.004 1612.32 658.831C1612.76 680.797 1602.24 690.158 1596.18 695.548C1594.84 696.735 1593.72 697.73 1592.99 698.624C1595.25 694.875 1600.58 683.511 1589.07 678.481C1595.46 692.766 1580.26 701.44 1537.17 717.481L1534.47 713.024C1537.01 686.296 1536.81 661.702 1531.62 655.981Z" fill="url(#paint8_linear_7_311)"/>
<path d="M1537.62 590.431L1538.26 590.832L1539.08 589.53L1537.55 589.685L1537.62 590.431ZM1531.62 655.981L1532.18 655.477L1531.62 655.981ZM1497.57 594.481L1497.5 593.735L1497.14 593.771L1496.95 594.067L1497.57 594.481ZM1474.32 629.611L1474.83 630.159L1474.9 630.099L1474.95 630.025L1474.32 629.611ZM1473.87 630.031L1473.36 629.486L1473.36 629.486L1473.87 630.031ZM1461.36 641.47L1460.86 640.912L1461.36 641.47ZM1417.77 726.481L1417.04 726.617L1418.52 726.543L1417.77 726.481ZM1420.92 710.431L1420.33 709.976L1420.32 709.985L1420.31 709.994L1420.92 710.431ZM1420.93 710.417L1421.68 710.359L1421.53 708.399L1420.34 709.962L1420.93 710.417ZM1521.42 781.381L1521.55 782.12L1521.97 782.047L1522.12 781.646L1521.42 781.381ZM1534.03 717.426L1534.7 717.092L1533.55 714.78L1533.28 717.347L1534.03 717.426ZM1599.42 788.881L1599 788.263L1599.42 788.881ZM1612.32 658.831L1612.83 658.28L1611.54 657.086L1611.57 658.846L1612.32 658.831ZM1596.18 695.548L1596.67 696.108L1596.18 695.548ZM1592.99 698.624L1592.34 698.236L1593.56 699.101L1592.99 698.624ZM1589.07 678.481L1589.37 677.794L1587.6 677.017L1588.39 678.787L1589.07 678.481ZM1537.17 717.481L1536.53 717.87L1536.85 718.4L1537.43 718.184L1537.17 717.481ZM1534.47 713.024L1533.72 712.953L1533.7 713.2L1533.83 713.413L1534.47 713.024ZM1536.99 590.03C1528.89 602.835 1524.8 616.531 1524.03 628.464C1523.25 640.364 1525.77 650.644 1531.07 656.485L1532.18 655.477C1527.27 650.068 1524.76 640.274 1525.52 628.561C1526.28 616.882 1530.29 603.428 1538.26 590.832L1536.99 590.03ZM1497.65 595.227L1537.7 591.177L1537.55 589.685L1497.5 593.735L1497.65 595.227ZM1474.95 630.025L1498.2 594.895L1496.95 594.067L1473.69 629.197L1474.95 630.025ZM1474.39 630.576C1474.54 630.434 1474.69 630.295 1474.83 630.159L1473.81 629.063C1473.66 629.201 1473.51 629.341 1473.36 629.486L1474.39 630.576ZM1461.86 642.028C1466.04 638.272 1470.26 634.478 1474.39 630.576L1473.36 629.486C1469.24 633.372 1465.04 637.154 1460.86 640.912L1461.86 642.028ZM1418.51 726.345C1411.35 687.499 1435.72 665.525 1461.86 642.028L1460.86 640.912C1434.82 664.318 1409.7 686.839 1417.04 726.617L1418.51 726.345ZM1420.31 709.994C1419.4 711.266 1418.8 712.875 1418.31 715.39C1417.82 717.899 1417.44 721.375 1417.03 726.419L1418.52 726.543C1418.94 721.497 1419.31 718.095 1419.78 715.675C1420.25 713.261 1420.8 711.891 1421.53 710.868L1420.31 709.994ZM1420.34 709.962L1420.33 709.976L1421.52 710.886L1421.53 710.872L1420.34 709.962ZM1521.29 780.642C1503.58 783.718 1488.84 785.209 1476.6 784.634C1464.36 784.06 1454.68 781.422 1447.04 776.281C1431.78 766.008 1424.41 745.525 1421.68 710.359L1420.19 710.475C1422.91 745.67 1430.31 766.827 1446.2 777.525C1454.14 782.87 1464.12 785.55 1476.53 786.133C1488.93 786.715 1503.8 785.203 1521.55 782.12L1521.29 780.642ZM1533.28 717.347C1530.7 741.864 1525.94 767.331 1520.72 781.116L1522.12 781.646C1527.41 767.675 1532.19 742.052 1534.77 717.504L1533.28 717.347ZM1599 788.263C1594.47 791.384 1589.27 790.72 1583.59 787.22C1577.9 783.711 1571.88 777.432 1565.93 769.674C1554.04 754.173 1542.59 733.006 1534.7 717.092L1533.36 717.759C1541.26 733.691 1552.76 754.965 1564.74 770.587C1570.73 778.39 1576.88 784.843 1582.81 788.497C1588.75 792.161 1594.63 793.091 1599.85 789.499L1599 788.263ZM1611.81 659.382C1631.68 677.725 1635.33 705.202 1630.53 730.569C1628.13 743.242 1623.63 755.347 1618.03 765.451C1612.42 775.565 1605.73 783.627 1599 788.263L1599.85 789.499C1606.84 784.686 1613.66 776.412 1619.34 766.179C1625.02 755.935 1629.58 743.679 1632 730.848C1636.86 705.208 1633.23 677.11 1612.83 658.28L1611.81 659.382ZM1596.67 696.108C1599.71 693.411 1603.94 689.655 1607.34 683.781C1610.74 677.898 1613.29 669.93 1613.07 658.816L1611.57 658.846C1611.79 669.698 1609.3 677.394 1606.04 683.03C1602.77 688.676 1598.7 692.295 1595.68 694.987L1596.67 696.108ZM1593.56 699.101C1594.26 698.262 1595.32 697.311 1596.67 696.108L1595.68 694.987C1594.36 696.159 1593.19 697.198 1592.41 698.147L1593.56 699.101ZM1588.77 679.168C1591.53 680.374 1593.22 681.931 1594.21 683.605C1595.2 685.283 1595.53 687.139 1595.45 688.999C1595.28 692.75 1593.46 696.398 1592.34 698.236L1593.63 699.012C1594.78 697.101 1596.76 693.193 1596.94 689.066C1597.04 686.988 1596.68 684.826 1595.5 682.841C1594.33 680.853 1592.37 679.103 1589.37 677.794L1588.77 679.168ZM1537.43 718.184C1558.96 710.171 1573.63 703.961 1582.11 697.934C1586.36 694.916 1589.14 691.887 1590.42 688.618C1591.7 685.317 1591.42 681.884 1589.76 678.175L1588.39 678.787C1589.92 682.221 1590.13 685.229 1589.02 688.073C1587.89 690.95 1585.38 693.77 1581.24 696.711C1572.95 702.603 1558.47 708.751 1536.91 716.778L1537.43 718.184ZM1533.83 713.413L1536.53 717.87L1537.81 717.092L1535.11 712.635L1533.83 713.413ZM1531.07 656.485C1532.22 657.755 1533.17 660.189 1533.88 663.697C1534.58 667.17 1535.01 671.572 1535.2 676.653C1535.58 686.813 1534.99 699.608 1533.72 712.953L1535.22 713.095C1536.49 699.713 1537.08 686.847 1536.69 676.597C1536.5 671.474 1536.07 666.984 1535.35 663.401C1534.64 659.854 1533.62 657.068 1532.18 655.477L1531.07 656.485Z" fill="#B25622"/>
<rect x="1358.82" y="345" width="269.7" height="267.181" fill="url(#paint9_radial_7_311)"/>
<rect x="1358.82" y="345" width="269.7" height="267.181" stroke="black"/>
<mask id="path-12-inside-1_7_311" fill="white">
<path fill-rule="evenodd" clip-rule="evenodd" d="M1460.22 318.781C1452.42 333.331 1446.27 309.481 1460.22 312.781C1473.03 315.812 1475.47 339.21 1456.38 349.284C1400.84 361.51 1359.57 411.574 1360.27 470.971C1360.41 482.863 1362.22 494.34 1365.48 505.181C1359.12 523.916 1359.38 537.356 1367.82 555.631L1390.14 550.096C1391.35 551.501 1392.59 552.879 1393.86 554.227C1414.11 588.574 1456.17 612.181 1504.77 612.181C1573.12 612.181 1628.52 565.507 1628.52 507.931C1628.52 483.84 1618.82 461.657 1602.53 444.004C1591.05 389.296 1543.49 348.132 1486.3 346.483C1482.54 319.296 1466.36 306.181 1460.22 306.181C1453.77 306.181 1445.82 308.131 1445.07 318.781C1445.52 323.431 1448.67 328.531 1453.32 328.831C1458.12 328.081 1459.62 326.581 1459.92 324.181C1460.22 321.781 1460.22 318.781 1460.22 318.781Z"/>
</mask>
<path fill-rule="evenodd" clip-rule="evenodd" d="M1460.22 318.781C1452.42 333.331 1446.27 309.481 1460.22 312.781C1473.03 315.812 1475.47 339.21 1456.38 349.284C1400.84 361.51 1359.57 411.574 1360.27 470.971C1360.41 482.863 1362.22 494.34 1365.48 505.181C1359.12 523.916 1359.38 537.356 1367.82 555.631L1390.14 550.096C1391.35 551.501 1392.59 552.879 1393.86 554.227C1414.11 588.574 1456.17 612.181 1504.77 612.181C1573.12 612.181 1628.52 565.507 1628.52 507.931C1628.52 483.84 1618.82 461.657 1602.53 444.004C1591.05 389.296 1543.49 348.132 1486.3 346.483C1482.54 319.296 1466.36 306.181 1460.22 306.181C1453.77 306.181 1445.82 308.131 1445.07 318.781C1445.52 323.431 1448.67 328.531 1453.32 328.831C1458.12 328.081 1459.62 326.581 1459.92 324.181C1460.22 321.781 1460.22 318.781 1460.22 318.781Z" fill="url(#paint10_radial_7_311)"/>
<path d="M1460.22 312.781L1460.57 311.321L1460.22 312.781ZM1460.22 318.781H1461.72L1458.9 318.072L1460.22 318.781ZM1456.38 349.284L1456.7 350.749L1456.9 350.706L1457.08 350.611L1456.38 349.284ZM1360.27 470.971L1361.77 470.954L1360.27 470.971ZM1365.48 505.181L1366.9 505.663L1367.06 505.209L1366.92 504.749L1365.48 505.181ZM1367.82 555.631L1366.46 556.26L1366.98 557.385L1368.18 557.087L1367.82 555.631ZM1390.14 550.096L1391.27 549.117L1390.67 548.419L1389.78 548.641L1390.14 550.096ZM1393.86 554.227L1395.16 553.465L1395.07 553.32L1394.96 553.197L1393.86 554.227ZM1602.53 444.004L1601.07 444.312L1601.15 444.717L1601.43 445.021L1602.53 444.004ZM1486.3 346.483L1484.81 346.689L1484.99 347.946L1486.26 347.983L1486.3 346.483ZM1445.07 318.781L1443.58 318.676L1443.57 318.801L1443.58 318.926L1445.07 318.781ZM1453.32 328.831L1453.23 330.328L1453.39 330.339L1453.55 330.313L1453.32 328.831ZM1459.92 324.181L1458.43 323.995V323.995L1459.92 324.181ZM1460.57 311.321C1456.68 310.402 1453.8 311.321 1452.08 313.423C1450.46 315.407 1450.15 318.123 1450.6 320.303C1450.83 321.409 1451.27 322.484 1451.94 323.335C1452.62 324.193 1453.59 324.893 1454.83 325.011C1456.07 325.129 1457.28 324.634 1458.38 323.713C1459.46 322.8 1460.52 321.403 1461.55 319.49L1458.9 318.072C1457.98 319.796 1457.14 320.837 1456.45 321.418C1455.77 321.99 1455.33 322.045 1455.11 322.025C1454.9 322.004 1454.61 321.878 1454.3 321.478C1453.97 321.071 1453.69 320.456 1453.54 319.697C1453.22 318.145 1453.5 316.427 1454.4 315.322C1455.21 314.335 1456.79 313.511 1459.88 314.241L1460.57 311.321ZM1457.08 350.611C1467.11 345.318 1471.58 336.454 1471.77 328.427C1471.95 320.503 1467.9 313.055 1460.57 311.321L1459.88 314.241C1465.36 315.537 1468.93 321.304 1468.77 328.356C1468.6 335.304 1464.74 343.176 1455.68 347.958L1457.08 350.611ZM1361.77 470.954C1361.08 412.276 1401.85 362.824 1456.7 350.749L1456.06 347.819C1399.83 360.196 1358.06 410.872 1358.77 470.989L1361.77 470.954ZM1366.92 504.749C1363.7 494.042 1361.91 482.703 1361.77 470.954L1358.77 470.989C1358.91 483.022 1360.75 494.639 1364.05 505.613L1366.92 504.749ZM1369.18 555.002C1365.02 545.99 1362.91 538.256 1362.6 530.517C1362.29 522.774 1363.76 514.922 1366.9 505.663L1364.06 504.699C1360.85 514.175 1359.27 522.41 1359.6 530.639C1359.94 538.873 1362.18 546.997 1366.46 556.26L1369.18 555.002ZM1389.78 548.641L1367.46 554.175L1368.18 557.087L1390.5 551.552L1389.78 548.641ZM1394.96 553.197C1393.7 551.865 1392.47 550.505 1391.27 549.117L1389 551.076C1390.23 552.498 1391.49 553.892 1392.77 555.256L1394.96 553.197ZM1504.77 610.681C1456.63 610.681 1415.09 587.298 1395.16 553.465L1392.57 554.988C1413.12 589.849 1455.71 613.681 1504.77 613.681V610.681ZM1627.02 507.931C1627.02 564.448 1572.54 610.681 1504.77 610.681V613.681C1573.7 613.681 1630.02 566.566 1630.02 507.931H1627.02ZM1601.43 445.021C1617.5 462.43 1627.02 484.259 1627.02 507.931H1630.02C1630.02 483.42 1620.15 460.884 1603.64 442.987L1601.43 445.021ZM1486.26 347.983C1542.74 349.611 1589.72 390.267 1601.07 444.312L1604 443.696C1592.38 388.324 1544.24 346.653 1486.34 344.984L1486.26 347.983ZM1460.22 307.681C1461.31 307.681 1463.17 308.305 1465.52 309.896C1467.81 311.453 1470.42 313.832 1472.98 317.067C1478.09 323.531 1482.97 333.355 1484.81 346.689L1487.79 346.278C1485.87 332.424 1480.78 322.097 1475.33 315.206C1472.61 311.764 1469.78 309.165 1467.2 307.414C1464.67 305.697 1462.2 304.681 1460.22 304.681V307.681ZM1446.57 318.886C1446.91 313.983 1448.87 311.292 1451.31 309.757C1453.84 308.16 1457.11 307.681 1460.22 307.681V304.681C1456.89 304.681 1452.95 305.177 1449.71 307.218C1446.37 309.32 1443.98 312.929 1443.58 318.676L1446.57 318.886ZM1453.42 327.334C1451.65 327.22 1450.07 326.192 1448.82 324.535C1447.57 322.876 1446.77 320.704 1446.57 318.637L1443.58 318.926C1443.83 321.508 1444.82 324.212 1446.42 326.339C1448.03 328.47 1450.34 330.142 1453.23 330.328L1453.42 327.334ZM1458.43 323.995C1458.32 324.881 1458.03 325.454 1457.4 325.93C1456.69 326.474 1455.41 326.987 1453.09 327.349L1453.55 330.313C1456.04 329.925 1457.91 329.313 1459.22 328.319C1460.62 327.258 1461.22 325.881 1461.41 324.367L1458.43 323.995ZM1460.22 318.781C1458.72 318.781 1458.72 318.781 1458.72 318.781C1458.72 318.781 1458.72 318.781 1458.72 318.781C1458.72 318.781 1458.72 318.781 1458.72 318.781C1458.72 318.781 1458.72 318.782 1458.72 318.782C1458.72 318.783 1458.72 318.785 1458.72 318.787C1458.72 318.792 1458.72 318.8 1458.72 318.81C1458.72 318.831 1458.72 318.863 1458.72 318.905C1458.72 318.988 1458.72 319.11 1458.72 319.265C1458.71 319.576 1458.71 320.015 1458.69 320.528C1458.65 321.56 1458.58 322.86 1458.43 323.995L1461.41 324.367C1461.57 323.103 1461.65 321.702 1461.68 320.635C1461.7 320.097 1461.71 319.636 1461.72 319.309C1461.72 319.146 1461.72 319.015 1461.72 318.925C1461.72 318.88 1461.72 318.844 1461.72 318.82C1461.72 318.808 1461.72 318.799 1461.72 318.792C1461.72 318.789 1461.72 318.786 1461.72 318.784C1461.72 318.784 1461.72 318.783 1461.72 318.782C1461.72 318.782 1461.72 318.782 1461.72 318.781C1461.72 318.781 1461.72 318.781 1461.72 318.781C1461.72 318.781 1461.72 318.781 1460.22 318.781Z" fill="#B25622" mask="url(#path-12-inside-1_7_311)"/>
<ellipse cx="1490.52" cy="499.831" rx="41.7" ry="56.85" fill="#D9D9D9"/>
<ellipse cx="1496.04" cy="478.374" rx="27.6" ry="40.1846" transform="rotate(-14.5129 1496.04 478.374)" fill="url(#paint11_linear_7_311)"/>
<ellipse cx="1497.23" cy="474.671" rx="20.55" ry="28.4137" transform="rotate(-14.9755 1497.23 474.671)" fill="black"/>
<path d="M1461.57 458.581L1453.62 472.081L1456.32 462.181L1461.57 452.881L1467.57 446.431L1476.12 440.131L1485.12 436.981H1496.22L1504.92 440.131L1513.77 446.431L1519.32 452.881L1524.42 460.981L1527.57 469.381V472.531L1523.07 463.681L1513.62 451.831L1502.67 444.631L1489.77 441.931L1474.17 446.881C1468.8 449.866 1466.12 452.68 1461.57 458.581Z" fill="#B2661B" stroke="#D9D9D9" stroke-width="0.3"/>
<ellipse cx="1476.72" cy="468.481" rx="6.6" ry="6.3" fill="url(#paint12_linear_7_311)"/>
<path fill-rule="evenodd" clip-rule="evenodd" d="M1531.31 497.818C1531.05 513.71 1526.46 528.001 1519.25 538.375C1511.88 548.97 1501.87 555.366 1490.97 555.479C1490.87 555.48 1490.77 555.481 1490.67 555.481C1490.57 555.481 1490.48 555.48 1490.38 555.479C1479.48 555.366 1469.47 548.97 1462.1 538.375C1454.88 528.001 1450.3 513.71 1450.03 497.818C1450.3 482.689 1454.88 469.082 1462.08 459.204C1469.5 449.027 1479.63 442.892 1490.67 442.892C1501.72 442.892 1511.84 449.027 1519.27 459.204C1526.47 469.082 1531.05 482.689 1531.31 497.818ZM1490.99 556.979C1514.12 556.748 1532.82 530.962 1532.82 499.187C1532.82 498.729 1532.82 498.272 1532.81 497.817C1532.82 497.34 1532.82 496.861 1532.82 496.381C1532.82 462.913 1513.95 435.781 1490.67 435.781C1467.39 435.781 1448.52 462.913 1448.52 496.381C1448.52 496.861 1448.53 497.34 1448.53 497.817C1448.53 498.272 1448.52 498.729 1448.52 499.187C1448.52 530.962 1467.22 556.748 1490.36 556.979C1490.46 556.98 1490.57 556.981 1490.67 556.981C1490.78 556.981 1490.88 556.98 1490.99 556.979ZM1454.37 469.81C1456.36 464.064 1458.99 458.861 1462.1 454.387C1469.54 443.696 1479.66 437.281 1490.67 437.281C1501.68 437.281 1511.81 443.696 1519.25 454.387C1522.36 458.861 1524.98 464.064 1526.98 469.81C1519.64 452.8 1506.13 441.392 1490.67 441.392C1475.22 441.392 1461.7 452.8 1454.37 469.81Z" fill="#59260A"/>
<path d="M1476.27 408.181C1506.55 406.301 1519.19 416.24 1536.87 446.281" stroke="url(#paint13_linear_7_311)" stroke-opacity="0.8" stroke-width="1.5" stroke-linecap="round"/>
<ellipse cx="1391.85" cy="505.729" rx="24.5162" ry="43.2629" transform="rotate(-13.3208 1391.85 505.729)" fill="#D9D9D9"/>
<ellipse cx="21.0279" cy="35.0002" rx="21.0279" ry="35.0002" transform="matrix(0.948275 -0.317451 0.287962 0.957642 1365.72 471.332)" fill="url(#paint14_linear_7_311)"/>
<ellipse cx="15.493" cy="24.6313" rx="15.493" ry="24.6313" transform="matrix(0.979932 -0.199333 0.179739 0.983714 1378.95 471.711)" fill="black"/>
<path d="M1370.97 482.281L1367.67 493.231L1366.47 494.581L1368.42 481.081L1371.87 472.831L1376.37 465.781L1383.72 461.281L1390.02 460.531L1399.77 464.281L1406.97 470.881L1410.27 475.981L1414.32 484.231L1413.42 485.881L1405.62 474.781L1394.37 467.581L1383.72 468.631L1376.37 473.731L1370.97 482.281Z" fill="#B2661B" stroke="#59260A" stroke-width="0.3" stroke-linecap="round"/>
<path d="M1419.02 503.883C1420.77 515.109 1419.46 525.69 1415.95 533.716C1412.44 541.75 1406.79 547.123 1399.91 548.199C1393.03 549.275 1386.01 545.882 1380.21 539.301C1374.43 532.729 1369.95 523.053 1368.19 511.827C1366.44 500.601 1367.75 490.019 1371.26 481.994C1374.77 473.959 1380.42 468.586 1387.3 467.511C1394.18 466.435 1401.2 469.828 1406.99 476.408C1412.78 482.981 1417.26 492.656 1419.02 503.883Z" stroke="#59260A" stroke-width="1.5"/>
<path d="M1418.46 500.344C1420.37 512.558 1419.19 524.034 1415.78 532.705C1412.36 541.394 1406.76 547.128 1399.91 548.199C1393.06 549.27 1385.98 545.517 1380.07 538.286C1374.17 531.07 1369.55 520.502 1367.64 508.288C1365.73 496.073 1366.91 484.598 1370.32 475.927C1373.74 467.237 1379.34 461.503 1386.19 460.432C1393.04 459.362 1400.12 463.114 1406.03 470.346C1411.93 477.561 1416.55 488.129 1418.46 500.344Z" stroke="#59260A" stroke-width="1.5"/>
<ellipse cx="1412.52" cy="506.281" rx="2.4" ry="2.7" fill="#D9D9D9" fill-opacity="0.3"/>
<circle cx="1514.67" cy="490.831" r="3.45" fill="#D9D9D9" fill-opacity="0.3"/>
<path d="M1361.07 457.981C1374.31 441.244 1382.63 435.405 1399.62 433.531" stroke="url(#paint15_linear_7_311)" stroke-width="1.5" stroke-linecap="round"/>
<path d="M1391.52 547.681L1373.07 536.731L1387.62 588.031C1415.6 609.684 1427.64 614.237 1444.32 612.331L1429.17 533.581C1417.68 533.547 1411.44 535.559 1401.12 547.681H1391.52Z" fill="url(#paint16_linear_7_311)"/>
<path d="M1335.12 588.031C1352.09 610.537 1375.26 606.938 1387.32 588.031L1378.92 539.881C1358.3 529.413 1346.84 523.801 1335.12 537.031C1334.02 534.671 1318.16 565.526 1335.12 588.031Z" fill="url(#paint17_linear_7_311)"/>
<path d="M1469.52 547.381C1444.86 536.221 1432.74 531.369 1425.27 534.331L1411.92 541.381L1445.07 613.381C1457.67 635.771 1487.07 639.181 1506.12 620.881C1525.17 602.581 1483.77 548.881 1483.77 548.881C1479.26 550.244 1476.06 549.766 1469.52 547.381Z" fill="url(#paint18_linear_7_311)"/>
<path d="M1481.22 550.981C1492.29 541.373 1497.49 537.685 1502.67 538.081C1518.95 542.192 1525.38 564.27 1524.27 586.381C1523.25 606.814 1506.69 620.028 1505.61 621.743L1505.67 621.931C1505.54 621.948 1505.52 621.884 1505.61 621.743L1481.22 550.981Z" fill="url(#paint19_linear_7_311)"/>
<g filter="url(#filter0_dd_7_311)">
<path d="M1500.12 563.581C1500.12 563.581 1490.19 609.934 1444.77 612.781C1399.36 615.628 1367.43 560.621 1360.92 563.581C1354.41 566.541 1354.27 567.412 1354.32 572.731M1388.22 588.181C1367.61 621.823 1312.43 593.143 1330.62 544.681C1348.81 496.219 1415.37 580.51 1441.17 563.581M1392.27 547.531C1398.95 548.112 1400.95 547.658 1402.77 546.181C1423.12 519.686 1457.01 542.527 1470.57 547.531C1484.14 552.535 1485.12 547.531 1485.12 547.531C1498.85 535.76 1506.01 533.186 1516.32 547.531C1549.45 615.33 1472.34 662.16 1444.17 613.081" stroke="#59260A" stroke-width="1.5"/>
</g>
<path d="M1526.16 694.102C1523.66 695.146 1522.65 695.165 1525.17 692.881L1526.16 694.102C1534.29 690.707 1558.14 676.475 1527.12 695.286L1601.82 787.681C1541.48 831.401 1374.57 787.681 1484.52 721.081C1504.49 708.985 1518.12 700.744 1527.12 695.286L1526.16 694.102Z" fill="url(#paint20_linear_7_311)"/>
<path d="M1525.17 692.881C1512.04 704.744 1594.47 654.481 1484.52 721.081C1374.57 787.681 1541.48 831.401 1601.82 787.681L1525.17 692.881Z" stroke="#B25622" stroke-width="1.5"/>
<path d="M1523.52 670.081C1538.35 664.765 1601.89 704.906 1575.87 729.631C1596.56 741.182 1597.57 745.831 1581.12 750.931C1604.68 755.576 1605.07 758.907 1581.12 766.231L1606.02 787.831C1556.52 808.156 1498.42 769.201 1501.47 745.831C1504.52 722.462 1512.06 723.71 1515.57 705.631C1513.84 702.672 1508.7 675.397 1523.52 670.081Z" fill="url(#paint21_linear_7_311)" stroke="#B25622" stroke-width="1.5"/>
<path opacity="0.5" d="M256.202 435.524V428.727H303.656V435.524H283.76V492H276.098V435.524H256.202ZM321.784 463.453V492H314.493V428.727H321.784V451.96H322.402C323.514 449.509 325.182 447.563 327.407 446.121C329.652 444.659 332.638 443.928 336.366 443.928C339.6 443.928 342.432 444.576 344.862 445.874C347.293 447.151 349.177 449.118 350.516 451.775C351.875 454.411 352.555 457.768 352.555 461.847V492H345.264V462.341C345.264 458.572 344.286 455.657 342.329 453.598C340.393 451.517 337.705 450.477 334.265 450.477C331.876 450.477 329.734 450.982 327.839 451.991C325.965 453 324.482 454.473 323.39 456.409C322.319 458.345 321.784 460.693 321.784 463.453ZM365.894 492V444.545H373.185V492H365.894ZM369.601 436.636C368.18 436.636 366.955 436.152 365.925 435.184C364.916 434.216 364.411 433.053 364.411 431.693C364.411 430.334 364.916 429.17 365.925 428.202C366.955 427.234 368.18 426.75 369.601 426.75C371.023 426.75 372.238 427.234 373.247 428.202C374.277 429.17 374.792 430.334 374.792 431.693C374.792 433.053 374.277 434.216 373.247 435.184C372.238 436.152 371.023 436.636 369.601 436.636ZM420.153 455.173L413.603 457.027C413.191 455.935 412.584 454.875 411.781 453.845C410.998 452.794 409.927 451.929 408.568 451.25C407.208 450.57 405.468 450.23 403.346 450.23C400.442 450.23 398.022 450.9 396.086 452.238C394.171 453.556 393.213 455.235 393.213 457.274C393.213 459.087 393.872 460.518 395.19 461.569C396.508 462.619 398.568 463.494 401.369 464.195L408.413 465.925C412.656 466.955 415.818 468.53 417.898 470.652C419.978 472.752 421.018 475.461 421.018 478.777C421.018 481.496 420.236 483.926 418.67 486.068C417.125 488.21 414.963 489.899 412.182 491.135C409.402 492.371 406.168 492.989 402.481 492.989C397.641 492.989 393.635 491.938 390.463 489.837C387.291 487.737 385.283 484.668 384.439 480.631L391.359 478.901C392.018 481.455 393.264 483.37 395.097 484.647C396.951 485.924 399.371 486.562 402.358 486.562C405.756 486.562 408.454 485.842 410.452 484.4C412.471 482.937 413.48 481.187 413.48 479.148C413.48 477.5 412.903 476.12 411.75 475.008C410.596 473.875 408.825 473.031 406.436 472.474L398.527 470.621C394.181 469.591 390.988 467.995 388.949 465.832C386.931 463.649 385.922 460.92 385.922 457.645C385.922 454.967 386.673 452.599 388.177 450.539C389.701 448.479 391.771 446.863 394.387 445.689C397.023 444.515 400.01 443.928 403.346 443.928C408.042 443.928 411.729 444.957 414.407 447.017C417.105 449.077 419.02 451.795 420.153 455.173ZM467.214 492L452.755 444.545H460.417L470.674 480.878H471.168L481.302 444.545H489.087L499.097 480.754H499.592L509.849 444.545H517.511L503.052 492H495.884L485.504 455.544H484.762L474.381 492H467.214ZM527.15 492V444.545H534.441V492H527.15ZM530.857 436.636C529.436 436.636 528.211 436.152 527.181 435.184C526.172 434.216 525.667 433.053 525.667 431.693C525.667 430.334 526.172 429.17 527.181 428.202C528.211 427.234 529.436 426.75 530.857 426.75C532.278 426.75 533.494 427.234 534.503 428.202C535.533 429.17 536.048 430.334 536.048 431.693C536.048 433.053 535.533 434.216 534.503 435.184C533.494 436.152 532.278 436.636 530.857 436.636ZM555.087 428.727V492H547.795V428.727H555.087ZM575.732 428.727V492H568.441V428.727H575.732ZM614.544 492V428.727H621.835V452.084H622.453C622.988 451.26 623.73 450.21 624.677 448.933C625.645 447.635 627.025 446.482 628.817 445.472C630.63 444.442 633.081 443.928 636.17 443.928C640.166 443.928 643.688 444.926 646.736 446.924C649.785 448.922 652.163 451.754 653.873 455.42C655.582 459.087 656.437 463.412 656.437 468.396C656.437 473.422 655.582 477.778 653.873 481.465C652.163 485.131 649.795 487.973 646.767 489.992C643.739 491.99 640.248 492.989 636.294 492.989C633.245 492.989 630.805 492.484 628.972 491.475C627.139 490.445 625.728 489.281 624.739 487.984C623.75 486.665 622.988 485.574 622.453 484.709H621.588V492H614.544ZM621.711 468.273C621.711 471.857 622.237 475.018 623.287 477.757C624.337 480.476 625.872 482.608 627.89 484.153C629.909 485.677 632.38 486.439 635.305 486.439C638.353 486.439 640.897 485.636 642.936 484.029C644.996 482.402 646.541 480.219 647.57 477.479C648.621 474.719 649.146 471.651 649.146 468.273C649.146 464.936 648.631 461.929 647.601 459.251C646.592 456.553 645.058 454.422 642.998 452.856C640.959 451.27 638.395 450.477 635.305 450.477C632.339 450.477 629.847 451.229 627.829 452.733C625.81 454.216 624.286 456.296 623.256 458.973C622.226 461.63 621.711 464.73 621.711 468.273ZM687.487 492.989C682.914 492.989 678.97 491.979 675.654 489.961C672.358 487.922 669.815 485.08 668.023 481.434C666.252 477.768 665.366 473.504 665.366 468.643C665.366 463.783 666.252 459.499 668.023 455.791C669.815 452.063 672.307 449.159 675.499 447.079C678.712 444.978 682.461 443.928 686.745 443.928C689.217 443.928 691.657 444.339 694.067 445.163C696.477 445.987 698.671 447.326 700.648 449.18C702.625 451.013 704.201 453.443 705.375 456.471C706.549 459.499 707.136 463.227 707.136 467.655V470.744H670.556V464.442H699.721C699.721 461.764 699.185 459.375 698.114 457.274C697.064 455.173 695.56 453.515 693.604 452.3C691.668 451.085 689.381 450.477 686.745 450.477C683.841 450.477 681.328 451.198 679.207 452.64C677.106 454.061 675.489 455.915 674.356 458.201C673.223 460.487 672.657 462.938 672.657 465.554V469.756C672.657 473.339 673.275 476.377 674.511 478.87C675.767 481.341 677.508 483.226 679.732 484.523C681.956 485.8 684.541 486.439 687.487 486.439C689.402 486.439 691.132 486.171 692.677 485.636C694.242 485.08 695.591 484.256 696.724 483.164C697.857 482.052 698.732 480.672 699.35 479.024L706.394 481.001C705.653 483.391 704.407 485.491 702.656 487.304C700.905 489.096 698.743 490.496 696.168 491.506C693.593 492.494 690.7 492.989 687.487 492.989ZM269.425 597L254.966 549.545H262.628L272.885 585.878H273.379L283.513 549.545H291.298L301.308 585.754H301.803L312.06 549.545H319.722L305.263 597H298.095L287.714 560.544H286.973L276.592 597H269.425ZM336.652 568.453V597H329.361V533.727H336.652V556.96H337.27C338.382 554.509 340.05 552.563 342.275 551.121C344.52 549.659 347.506 548.928 351.234 548.928C354.468 548.928 357.3 549.576 359.73 550.874C362.161 552.151 364.045 554.118 365.384 556.775C366.744 559.411 367.423 562.768 367.423 566.847V597H360.132V567.341C360.132 563.572 359.154 560.657 357.197 558.598C355.261 556.517 352.573 555.477 349.134 555.477C346.744 555.477 344.602 555.982 342.707 556.991C340.833 558 339.35 559.473 338.259 561.409C337.188 563.345 336.652 565.693 336.652 568.453ZM400.658 597.989C396.086 597.989 392.142 596.979 388.826 594.961C385.53 592.922 382.987 590.08 381.195 586.434C379.423 582.768 378.538 578.504 378.538 573.643C378.538 568.783 379.423 564.499 381.195 560.791C382.987 557.063 385.479 554.159 388.671 552.079C391.884 549.978 395.633 548.928 399.917 548.928C402.389 548.928 404.829 549.339 407.239 550.163C409.649 550.987 411.842 552.326 413.82 554.18C415.797 556.013 417.373 558.443 418.547 561.471C419.721 564.499 420.308 568.227 420.308 572.655V575.744H383.728V569.442H412.893C412.893 566.764 412.357 564.375 411.286 562.274C410.236 560.173 408.732 558.515 406.776 557.3C404.84 556.085 402.553 555.477 399.917 555.477C397.013 555.477 394.5 556.198 392.379 557.64C390.278 559.061 388.661 560.915 387.528 563.201C386.395 565.487 385.829 567.938 385.829 570.554V574.756C385.829 578.339 386.447 581.377 387.683 583.87C388.939 586.341 390.679 588.226 392.904 589.523C395.128 590.8 397.713 591.439 400.658 591.439C402.574 591.439 404.304 591.171 405.849 590.636C407.414 590.08 408.763 589.256 409.896 588.164C411.029 587.052 411.904 585.672 412.522 584.024L419.566 586.001C418.825 588.391 417.579 590.491 415.828 592.304C414.077 594.096 411.915 595.496 409.34 596.506C406.765 597.494 403.872 597.989 400.658 597.989ZM431.399 597V549.545H438.443V556.713H438.937C439.802 554.365 441.368 552.46 443.633 550.998C445.899 549.535 448.453 548.804 451.295 548.804C451.831 548.804 452.5 548.814 453.303 548.835C454.107 548.855 454.714 548.886 455.126 548.928V556.342C454.879 556.281 454.313 556.188 453.427 556.064C452.562 555.92 451.645 555.848 450.677 555.848C448.37 555.848 446.311 556.332 444.498 557.3C442.706 558.248 441.285 559.566 440.235 561.255C439.205 562.923 438.69 564.828 438.69 566.97V597H431.399ZM482.221 597.989C477.649 597.989 473.704 596.979 470.388 594.961C467.093 592.922 464.549 590.08 462.757 586.434C460.986 582.768 460.1 578.504 460.1 573.643C460.1 568.783 460.986 564.499 462.757 560.791C464.549 557.063 467.041 554.159 470.234 552.079C473.447 549.978 477.195 548.928 481.479 548.928C483.951 548.928 486.392 549.339 488.802 550.163C491.211 550.987 493.405 552.326 495.382 554.18C497.359 556.013 498.935 558.443 500.109 561.471C501.283 564.499 501.87 568.227 501.87 572.655V575.744H465.291V569.442H494.455C494.455 566.764 493.92 564.375 492.849 562.274C491.798 560.173 490.295 558.515 488.338 557.3C486.402 556.085 484.116 555.477 481.479 555.477C478.575 555.477 476.063 556.198 473.941 557.64C471.84 559.061 470.223 560.915 469.091 563.201C467.958 565.487 467.391 567.938 467.391 570.554V574.756C467.391 578.339 468.009 581.377 469.245 583.87C470.502 586.341 472.242 588.226 474.466 589.523C476.691 590.8 479.276 591.439 482.221 591.439C484.136 591.439 485.867 591.171 487.411 590.636C488.977 590.08 490.326 589.256 491.459 588.164C492.591 587.052 493.467 585.672 494.085 584.024L501.129 586.001C500.387 588.391 499.141 590.491 497.39 592.304C495.64 594.096 493.477 595.496 490.902 596.506C488.328 597.494 485.434 597.989 482.221 597.989ZM558.068 549.545V555.724H533.476V549.545H558.068ZM540.643 538.176H547.934V583.406C547.934 585.466 548.233 587.011 548.83 588.04C549.448 589.05 550.231 589.729 551.178 590.08C552.146 590.409 553.166 590.574 554.237 590.574C555.04 590.574 555.699 590.533 556.214 590.45C556.729 590.347 557.141 590.265 557.45 590.203L558.933 596.753C558.439 596.938 557.749 597.124 556.863 597.309C555.977 597.515 554.855 597.618 553.495 597.618C551.436 597.618 549.417 597.175 547.44 596.289C545.483 595.404 543.856 594.055 542.559 592.242C541.282 590.43 540.643 588.143 540.643 585.384V538.176ZM577.346 568.453V597H570.055V533.727H577.346V556.96H577.964C579.076 554.509 580.745 552.563 582.969 551.121C585.214 549.659 588.201 548.928 591.929 548.928C595.162 548.928 597.994 549.576 600.425 550.874C602.855 552.151 604.74 554.118 606.079 556.775C607.438 559.411 608.118 562.768 608.118 566.847V597H600.826V567.341C600.826 563.572 599.848 560.657 597.891 558.598C595.955 556.517 593.267 555.477 589.828 555.477C587.439 555.477 585.297 555.982 583.402 556.991C581.527 558 580.044 559.473 578.953 561.409C577.882 563.345 577.346 565.693 577.346 568.453ZM641.353 597.989C636.78 597.989 632.836 596.979 629.52 594.961C626.225 592.922 623.681 590.08 621.889 586.434C620.118 582.768 619.232 578.504 619.232 573.643C619.232 568.783 620.118 564.499 621.889 560.791C623.681 557.063 626.173 554.159 629.366 552.079C632.579 549.978 636.327 548.928 640.611 548.928C643.083 548.928 645.524 549.339 647.933 550.163C650.343 550.987 652.537 552.326 654.514 554.18C656.491 556.013 658.067 558.443 659.241 561.471C660.415 564.499 661.002 568.227 661.002 572.655V575.744H624.422V569.442H653.587C653.587 566.764 653.052 564.375 651.981 562.274C650.93 560.173 649.427 558.515 647.47 557.3C645.534 556.085 643.248 555.477 640.611 555.477C637.707 555.477 635.194 556.198 633.073 557.64C630.972 559.061 629.355 560.915 628.222 563.201C627.09 565.487 626.523 567.938 626.523 570.554V574.756C626.523 578.339 627.141 581.377 628.377 583.87C629.633 586.341 631.374 588.226 633.598 589.523C635.823 590.8 638.407 591.439 641.353 591.439C643.268 591.439 644.998 591.171 646.543 590.636C648.108 590.08 649.458 589.256 650.59 588.164C651.723 587.052 652.599 585.672 653.216 584.024L660.26 586.001C659.519 588.391 658.273 590.491 656.522 592.304C654.771 594.096 652.609 595.496 650.034 596.506C647.46 597.494 644.566 597.989 641.353 597.989ZM276.592 702.989C272.638 702.989 269.147 701.99 266.119 699.992C263.091 697.973 260.723 695.131 259.013 691.465C257.304 687.778 256.449 683.422 256.449 678.396C256.449 673.412 257.304 669.087 259.013 665.42C260.723 661.754 263.102 658.922 266.15 656.924C269.198 654.926 272.72 653.928 276.716 653.928C279.805 653.928 282.246 654.442 284.038 655.472C285.85 656.482 287.23 657.635 288.178 658.933C289.146 660.21 289.898 661.26 290.433 662.084H291.051V638.727H298.342V702H291.298V694.709H290.433C289.898 695.574 289.136 696.665 288.147 697.984C287.158 699.281 285.748 700.445 283.914 701.475C282.081 702.484 279.641 702.989 276.592 702.989ZM277.581 696.439C280.506 696.439 282.977 695.677 284.996 694.153C287.014 692.608 288.549 690.476 289.599 687.757C290.65 685.018 291.175 681.857 291.175 678.273C291.175 674.73 290.66 671.63 289.63 668.973C288.6 666.296 287.076 664.216 285.058 662.733C283.039 661.229 280.547 660.477 277.581 660.477C274.491 660.477 271.917 661.27 269.857 662.856C267.818 664.422 266.284 666.553 265.254 669.251C264.245 671.929 263.74 674.936 263.74 678.273C263.74 681.651 264.255 684.719 265.285 687.479C266.335 690.219 267.88 692.402 269.919 694.029C271.979 695.636 274.533 696.439 277.581 696.439ZM332.605 702.989C328.032 702.989 324.088 701.979 320.772 699.961C317.477 697.922 314.933 695.08 313.141 691.434C311.37 687.768 310.484 683.504 310.484 678.643C310.484 673.783 311.37 669.499 313.141 665.791C314.933 662.063 317.425 659.159 320.618 657.079C323.831 654.978 327.579 653.928 331.863 653.928C334.335 653.928 336.776 654.339 339.185 655.163C341.595 655.987 343.789 657.326 345.766 659.18C347.743 661.013 349.319 663.443 350.493 666.471C351.667 669.499 352.254 673.227 352.254 677.655V680.744H315.674V674.442H344.839C344.839 671.764 344.304 669.375 343.233 667.274C342.182 665.173 340.679 663.515 338.722 662.3C336.786 661.085 334.5 660.477 331.863 660.477C328.959 660.477 326.446 661.198 324.325 662.64C322.224 664.061 320.607 665.915 319.474 668.201C318.342 670.487 317.775 672.938 317.775 675.554V679.756C317.775 683.339 318.393 686.377 319.629 688.87C320.885 691.341 322.626 693.226 324.85 694.523C327.075 695.8 329.659 696.439 332.605 696.439C334.52 696.439 336.25 696.171 337.795 695.636C339.36 695.08 340.71 694.256 341.842 693.164C342.975 692.052 343.85 690.672 344.468 689.024L351.512 691.001C350.771 693.391 349.525 695.491 347.774 697.304C346.023 699.096 343.861 700.496 341.286 701.506C338.712 702.494 335.818 702.989 332.605 702.989ZM364.334 702V638.727H371.625V662.084H372.243C372.778 661.26 373.52 660.21 374.467 658.933C375.435 657.635 376.815 656.482 378.607 655.472C380.42 654.442 382.871 653.928 385.96 653.928C389.956 653.928 393.478 654.926 396.526 656.924C399.575 658.922 401.953 661.754 403.663 665.42C405.373 669.087 406.227 673.412 406.227 678.396C406.227 683.422 405.373 687.778 403.663 691.465C401.953 695.131 399.585 697.973 396.557 699.992C393.529 701.99 390.038 702.989 386.084 702.989C383.036 702.989 380.595 702.484 378.762 701.475C376.929 700.445 375.518 699.281 374.529 697.984C373.54 696.665 372.778 695.574 372.243 694.709H371.378V702H364.334ZM371.501 678.273C371.501 681.857 372.027 685.018 373.077 687.757C374.127 690.476 375.662 692.608 377.68 694.153C379.699 695.677 382.17 696.439 385.095 696.439C388.143 696.439 390.687 695.636 392.726 694.029C394.786 692.402 396.331 690.219 397.36 687.479C398.411 684.719 398.936 681.651 398.936 678.273C398.936 674.936 398.421 671.929 397.391 669.251C396.382 666.553 394.848 664.422 392.788 662.856C390.749 661.27 388.185 660.477 385.095 660.477C382.129 660.477 379.637 661.229 377.619 662.733C375.6 664.216 374.076 666.296 373.046 668.973C372.016 671.63 371.501 674.73 371.501 678.273ZM447.287 682.598V654.545H454.578V702H447.287V693.967H446.792C445.68 696.377 443.95 698.426 441.602 700.115C439.254 701.784 436.288 702.618 432.704 702.618C429.738 702.618 427.102 701.969 424.795 700.672C422.488 699.353 420.676 697.376 419.358 694.74C418.039 692.083 417.38 688.736 417.38 684.699V654.545H424.672V684.205C424.672 687.665 425.64 690.425 427.576 692.484C429.532 694.544 432.025 695.574 435.052 695.574C436.865 695.574 438.708 695.11 440.582 694.184C442.477 693.257 444.063 691.836 445.34 689.92C446.638 688.005 447.287 685.564 447.287 682.598ZM487.087 720.784C483.565 720.784 480.537 720.331 478.004 719.425C475.47 718.539 473.359 717.365 471.67 715.903C470.002 714.461 468.674 712.916 467.685 711.268L473.493 707.19C474.152 708.055 474.986 709.044 475.996 710.156C477.005 711.289 478.385 712.267 480.136 713.091C481.907 713.936 484.224 714.358 487.087 714.358C490.918 714.358 494.079 713.431 496.572 711.577C499.064 709.724 500.31 706.82 500.31 702.865V693.226H499.692C499.157 694.091 498.394 695.162 497.406 696.439C496.438 697.695 495.037 698.818 493.204 699.806C491.392 700.775 488.941 701.259 485.851 701.259C482.02 701.259 478.581 700.352 475.532 698.54C472.505 696.727 470.105 694.091 468.334 690.631C466.583 687.17 465.708 682.969 465.708 678.026C465.708 673.165 466.562 668.932 468.272 665.328C469.981 661.703 472.36 658.902 475.409 656.924C478.457 654.926 481.979 653.928 485.975 653.928C489.064 653.928 491.515 654.442 493.328 655.472C495.161 656.482 496.561 657.635 497.529 658.933C498.518 660.21 499.28 661.26 499.816 662.084H500.557V654.545H507.601V703.359C507.601 707.438 506.674 710.754 504.821 713.308C502.987 715.882 500.516 717.767 497.406 718.961C494.316 720.176 490.877 720.784 487.087 720.784ZM486.84 694.709C489.764 694.709 492.236 694.039 494.255 692.701C496.273 691.362 497.807 689.436 498.858 686.923C499.908 684.411 500.434 681.403 500.434 677.902C500.434 674.483 499.919 671.466 498.889 668.85C497.859 666.234 496.335 664.185 494.316 662.702C492.298 661.219 489.806 660.477 486.84 660.477C483.75 660.477 481.176 661.26 479.116 662.825C477.077 664.391 475.543 666.491 474.513 669.128C473.503 671.764 472.999 674.689 472.999 677.902C472.999 681.197 473.514 684.112 474.544 686.645C475.594 689.158 477.139 691.135 479.178 692.577C481.237 693.998 483.791 694.709 486.84 694.709ZM540.103 720.784C536.581 720.784 533.553 720.331 531.019 719.425C528.486 718.539 526.375 717.365 524.686 715.903C523.018 714.461 521.689 712.916 520.701 711.268L526.509 707.19C527.168 708.055 528.002 709.044 529.011 710.156C530.021 711.289 531.4 712.267 533.151 713.091C534.922 713.936 537.24 714.358 540.103 714.358C543.934 714.358 547.095 713.431 549.587 711.577C552.079 709.724 553.326 706.82 553.326 702.865V693.226H552.708C552.172 694.091 551.41 695.162 550.421 696.439C549.453 697.695 548.053 698.818 546.22 699.806C544.407 700.775 541.956 701.259 538.867 701.259C535.036 701.259 531.596 700.352 528.548 698.54C525.52 696.727 523.121 694.091 521.349 690.631C519.599 687.17 518.723 682.969 518.723 678.026C518.723 673.165 519.578 668.932 521.288 665.328C522.997 661.703 525.376 658.902 528.424 656.924C531.473 654.926 534.995 653.928 538.99 653.928C542.08 653.928 544.531 654.442 546.343 655.472C548.176 656.482 549.577 657.635 550.545 658.933C551.534 660.21 552.296 661.26 552.831 662.084H553.573V654.545H560.617V703.359C560.617 707.438 559.69 710.754 557.836 713.308C556.003 715.882 553.532 717.767 550.421 718.961C547.332 720.176 543.892 720.784 540.103 720.784ZM539.855 694.709C542.78 694.709 545.252 694.039 547.27 692.701C549.289 691.362 550.823 689.436 551.873 686.923C552.924 684.411 553.449 681.403 553.449 677.902C553.449 674.483 552.934 671.466 551.904 668.85C550.875 666.234 549.35 664.185 547.332 662.702C545.313 661.219 542.821 660.477 539.855 660.477C536.766 660.477 534.191 661.26 532.132 662.825C530.093 664.391 528.558 666.491 527.528 669.128C526.519 671.764 526.014 674.689 526.014 677.902C526.014 681.197 526.529 684.112 527.559 686.645C528.61 689.158 530.154 691.135 532.193 692.577C534.253 693.998 536.807 694.709 539.855 694.709ZM573.963 702V654.545H581.255V702H573.963ZM577.671 646.636C576.25 646.636 575.024 646.152 573.994 645.184C572.985 644.216 572.48 643.053 572.48 641.693C572.48 640.334 572.985 639.17 573.994 638.202C575.024 637.234 576.25 636.75 577.671 636.75C579.092 636.75 580.307 637.234 581.316 638.202C582.346 639.17 582.861 640.334 582.861 641.693C582.861 643.053 582.346 644.216 581.316 645.184C580.307 646.152 579.092 646.636 577.671 646.636ZM601.9 673.453V702H594.609V654.545H601.653V661.96H602.271C603.383 659.55 605.072 657.614 607.338 656.152C609.603 654.669 612.528 653.928 616.112 653.928C619.325 653.928 622.136 654.587 624.546 655.905C626.956 657.202 628.83 659.18 630.169 661.837C631.508 664.473 632.177 667.81 632.177 671.847V702H624.886V672.341C624.886 668.613 623.918 665.709 621.982 663.629C620.046 661.528 617.389 660.477 614.011 660.477C611.683 660.477 609.603 660.982 607.77 661.991C605.958 663 604.526 664.473 603.476 666.409C602.425 668.345 601.9 670.693 601.9 673.453ZM664.655 720.784C661.133 720.784 658.106 720.331 655.572 719.425C653.039 718.539 650.928 717.365 649.239 715.903C647.57 714.461 646.242 712.916 645.253 711.268L651.062 707.19C651.721 708.055 652.555 709.044 653.564 710.156C654.573 711.289 655.953 712.267 657.704 713.091C659.475 713.936 661.792 714.358 664.655 714.358C668.486 714.358 671.648 713.431 674.14 711.577C676.632 709.724 677.878 706.82 677.878 702.865V693.226H677.26C676.725 694.091 675.963 695.162 674.974 696.439C674.006 697.695 672.606 698.818 670.772 699.806C668.96 700.775 666.509 701.259 663.419 701.259C659.589 701.259 656.149 700.352 653.101 698.54C650.073 696.727 647.673 694.091 645.902 690.631C644.151 687.17 643.276 682.969 643.276 678.026C643.276 673.165 644.131 668.932 645.84 665.328C647.55 661.703 649.929 658.902 652.977 656.924C656.025 654.926 659.547 653.928 663.543 653.928C666.633 653.928 669.084 654.442 670.896 655.472C672.729 656.482 674.13 657.635 675.098 658.933C676.086 660.21 676.848 661.26 677.384 662.084H678.125V654.545H685.169V703.359C685.169 707.438 684.243 710.754 682.389 713.308C680.556 715.882 678.084 717.767 674.974 718.961C671.885 720.176 668.445 720.784 664.655 720.784ZM664.408 694.709C667.333 694.709 669.804 694.039 671.823 692.701C673.841 691.362 675.376 689.436 676.426 686.923C677.477 684.411 678.002 681.403 678.002 677.902C678.002 674.483 677.487 671.466 676.457 668.85C675.427 666.234 673.903 664.185 671.885 662.702C669.866 661.219 667.374 660.477 664.408 660.477C661.319 660.477 658.744 661.26 656.684 662.825C654.645 664.391 653.111 666.491 652.081 669.128C651.072 671.764 650.567 674.689 650.567 677.902C650.567 681.197 651.082 684.112 652.112 686.645C653.162 689.158 654.707 691.135 656.746 692.577C658.806 693.998 661.36 694.709 664.408 694.709ZM291.051 824.795V799.709H290.433C289.898 800.574 289.136 801.665 288.147 802.984C287.158 804.281 285.748 805.445 283.914 806.475C282.081 807.484 279.641 807.989 276.592 807.989C272.638 807.989 269.147 806.99 266.119 804.992C263.091 802.973 260.723 800.131 259.013 796.465C257.304 792.778 256.449 788.422 256.449 783.396C256.449 778.412 257.304 774.087 259.013 770.42C260.723 766.754 263.102 763.922 266.15 761.924C269.198 759.926 272.72 758.928 276.716 758.928C279.805 758.928 282.246 759.442 284.038 760.472C285.85 761.482 287.23 762.635 288.178 763.933C289.146 765.21 289.898 766.26 290.433 767.084H291.298V759.545H298.342V824.795H291.051ZM277.581 801.439C280.506 801.439 282.977 800.677 284.996 799.153C287.014 797.608 288.549 795.476 289.599 792.757C290.65 790.018 291.175 786.857 291.175 783.273C291.175 779.73 290.66 776.63 289.63 773.973C288.6 771.296 287.076 769.216 285.058 767.733C283.039 766.229 280.547 765.477 277.581 765.477C274.491 765.477 271.917 766.27 269.857 767.856C267.818 769.422 266.284 771.553 265.254 774.251C264.245 776.929 263.74 779.936 263.74 783.273C263.74 786.651 264.255 789.719 265.285 792.479C266.335 795.219 267.88 797.402 269.919 799.029C271.979 800.636 274.533 801.439 277.581 801.439ZM341.595 787.598V759.545H348.886V807H341.595V798.967H341.101C339.989 801.377 338.259 803.426 335.911 805.115C333.563 806.784 330.597 807.618 327.013 807.618C324.047 807.618 321.411 806.969 319.104 805.672C316.797 804.353 314.984 802.376 313.666 799.74C312.348 797.083 311.689 793.736 311.689 789.699V759.545H318.98V789.205C318.98 792.665 319.948 795.425 321.884 797.484C323.841 799.544 326.333 800.574 329.361 800.574C331.173 800.574 333.017 800.11 334.891 799.184C336.786 798.257 338.372 796.836 339.649 794.92C340.946 793.005 341.595 790.564 341.595 787.598ZM382.137 807.989C377.565 807.989 373.62 806.979 370.304 804.961C367.009 802.922 364.465 800.08 362.673 796.434C360.902 792.768 360.016 788.504 360.016 783.643C360.016 778.783 360.902 774.499 362.673 770.791C364.465 767.063 366.957 764.159 370.15 762.079C373.363 759.978 377.111 758.928 381.396 758.928C383.867 758.928 386.308 759.339 388.718 760.163C391.127 760.987 393.321 762.326 395.298 764.18C397.275 766.013 398.851 768.443 400.025 771.471C401.199 774.499 401.786 778.227 401.786 782.655V785.744H365.207V779.442H394.371C394.371 776.764 393.836 774.375 392.765 772.274C391.714 770.173 390.211 768.515 388.254 767.3C386.318 766.085 384.032 765.477 381.396 765.477C378.491 765.477 375.979 766.198 373.857 767.64C371.756 769.061 370.139 770.915 369.007 773.201C367.874 775.487 367.307 777.938 367.307 780.554V784.756C367.307 788.339 367.925 791.377 369.161 793.87C370.418 796.341 372.158 798.226 374.382 799.523C376.607 800.8 379.192 801.439 382.137 801.439C384.052 801.439 385.783 801.171 387.327 800.636C388.893 800.08 390.242 799.256 391.375 798.164C392.507 797.052 393.383 795.672 394.001 794.024L401.045 796.001C400.303 798.391 399.057 800.491 397.306 802.304C395.556 804.096 393.393 805.496 390.818 806.506C388.244 807.494 385.35 807.989 382.137 807.989ZM446.491 770.173L439.941 772.027C439.529 770.935 438.922 769.875 438.119 768.845C437.336 767.794 436.265 766.929 434.905 766.25C433.546 765.57 431.806 765.23 429.684 765.23C426.78 765.23 424.36 765.9 422.424 767.238C420.508 768.556 419.551 770.235 419.551 772.274C419.551 774.087 420.21 775.518 421.528 776.569C422.846 777.619 424.906 778.494 427.707 779.195L434.751 780.925C438.994 781.955 442.155 783.53 444.236 785.652C446.316 787.752 447.356 790.461 447.356 793.777C447.356 796.496 446.573 798.926 445.008 801.068C443.463 803.21 441.301 804.899 438.52 806.135C435.74 807.371 432.506 807.989 428.819 807.989C423.979 807.989 419.973 806.938 416.801 804.837C413.629 802.737 411.621 799.668 410.777 795.631L417.697 793.901C418.356 796.455 419.602 798.37 421.435 799.647C423.289 800.924 425.709 801.562 428.696 801.562C432.094 801.562 434.792 800.842 436.79 799.4C438.809 797.937 439.818 796.187 439.818 794.148C439.818 792.5 439.241 791.12 438.088 790.008C436.934 788.875 435.163 788.031 432.774 787.474L424.865 785.621C420.519 784.591 417.326 782.995 415.287 780.832C413.269 778.649 412.259 775.92 412.259 772.645C412.259 769.967 413.011 767.599 414.515 765.539C416.039 763.479 418.109 761.863 420.725 760.689C423.361 759.515 426.348 758.928 429.684 758.928C434.38 758.928 438.067 759.957 440.745 762.017C443.443 764.077 445.358 766.795 446.491 770.173ZM478.969 759.545V765.724H454.377V759.545H478.969ZM461.545 748.176H468.836V793.406C468.836 795.466 469.134 797.011 469.732 798.04C470.35 799.05 471.132 799.729 472.08 800.08C473.048 800.409 474.067 800.574 475.138 800.574C475.942 800.574 476.601 800.533 477.116 800.45C477.631 800.347 478.042 800.265 478.351 800.203L479.834 806.753C479.34 806.938 478.65 807.124 477.764 807.309C476.879 807.515 475.756 807.618 474.397 807.618C472.337 807.618 470.319 807.175 468.341 806.289C466.385 805.404 464.758 804.055 463.46 802.242C462.183 800.43 461.545 798.143 461.545 795.384V748.176ZM489.937 807V759.545H497.228V807H489.937ZM493.644 751.636C492.223 751.636 490.998 751.152 489.968 750.184C488.959 749.216 488.454 748.053 488.454 746.693C488.454 745.334 488.959 744.17 489.968 743.202C490.998 742.234 492.223 741.75 493.644 741.75C495.066 741.75 496.281 742.234 497.29 743.202C498.32 744.17 498.835 745.334 498.835 746.693C498.835 748.053 498.32 749.216 497.29 750.184C496.281 751.152 495.066 751.636 493.644 751.636ZM529.861 807.989C525.577 807.989 521.818 806.969 518.584 804.93C515.371 802.891 512.858 800.038 511.046 796.372C509.254 792.706 508.358 788.422 508.358 783.52C508.358 778.577 509.254 774.262 511.046 770.575C512.858 766.888 515.371 764.025 518.584 761.986C521.818 759.947 525.577 758.928 529.861 758.928C534.145 758.928 537.894 759.947 541.107 761.986C544.34 764.025 546.853 766.888 548.645 770.575C550.457 774.262 551.364 778.577 551.364 783.52C551.364 788.422 550.457 792.706 548.645 796.372C546.853 800.038 544.34 802.891 541.107 804.93C537.894 806.969 534.145 807.989 529.861 807.989ZM529.861 801.439C533.115 801.439 535.793 800.605 537.894 798.936C539.994 797.268 541.549 795.075 542.559 792.356C543.568 789.637 544.073 786.692 544.073 783.52C544.073 780.348 543.568 777.392 542.559 774.653C541.549 771.914 539.994 769.7 537.894 768.011C535.793 766.322 533.115 765.477 529.861 765.477C526.607 765.477 523.929 766.322 521.828 768.011C519.727 769.7 518.172 771.914 517.163 774.653C516.154 777.392 515.649 780.348 515.649 783.52C515.649 786.692 516.154 789.637 517.163 792.356C518.172 795.075 519.727 797.268 521.828 798.936C523.929 800.605 526.607 801.439 529.861 801.439ZM569.785 778.453V807H562.494V759.545H569.538V766.96H570.156C571.268 764.55 572.957 762.614 575.222 761.152C577.488 759.669 580.413 758.928 583.996 758.928C587.21 758.928 590.021 759.587 592.431 760.905C594.841 762.202 596.715 764.18 598.054 766.837C599.392 769.473 600.062 772.81 600.062 776.847V807H592.771V777.341C592.771 773.613 591.803 770.709 589.866 768.629C587.93 766.528 585.273 765.477 581.896 765.477C579.568 765.477 577.488 765.982 575.655 766.991C573.842 768 572.411 769.473 571.36 771.409C570.31 773.345 569.785 775.693 569.785 778.453ZM646.999 770.173L640.449 772.027C640.037 770.935 639.43 769.875 638.626 768.845C637.844 767.794 636.773 766.929 635.413 766.25C634.054 765.57 632.313 765.23 630.192 765.23C627.288 765.23 624.868 765.9 622.932 767.238C621.016 768.556 620.059 770.235 620.059 772.274C620.059 774.087 620.718 775.518 622.036 776.569C623.354 777.619 625.414 778.494 628.215 779.195L635.259 780.925C639.502 781.955 642.663 783.53 644.744 785.652C646.824 787.752 647.864 790.461 647.864 793.777C647.864 796.496 647.081 798.926 645.516 801.068C643.971 803.21 641.809 804.899 639.028 806.135C636.247 807.371 633.014 807.989 629.327 807.989C624.487 807.989 620.481 806.938 617.309 804.837C614.137 802.737 612.129 799.668 611.284 795.631L618.205 793.901C618.864 796.455 620.11 798.37 621.943 799.647C623.797 800.924 626.217 801.562 629.203 801.562C632.602 801.562 635.3 800.842 637.298 799.4C639.316 797.937 640.326 796.187 640.326 794.148C640.326 792.5 639.749 791.12 638.595 790.008C637.442 788.875 635.671 788.031 633.282 787.474L625.372 785.621C621.027 784.591 617.834 782.995 615.795 780.832C613.777 778.649 612.767 775.92 612.767 772.645C612.767 769.967 613.519 767.599 615.023 765.539C616.547 763.479 618.617 761.863 621.233 760.689C623.869 759.515 626.855 758.928 630.192 758.928C634.888 758.928 638.575 759.957 641.252 762.017C643.951 764.077 645.866 766.795 646.999 770.173ZM702.463 825.784C698.941 825.784 695.913 825.331 693.38 824.425C690.846 823.539 688.735 822.365 687.046 820.903C685.378 819.461 684.05 817.916 683.061 816.268L688.869 812.19C689.528 813.055 690.362 814.044 691.372 815.156C692.381 816.289 693.761 817.267 695.512 818.091C697.283 818.936 699.6 819.358 702.463 819.358C706.294 819.358 709.455 818.431 711.948 816.577C714.44 814.724 715.686 811.82 715.686 807.865V798.226H715.068C714.532 799.091 713.77 800.162 712.782 801.439C711.814 802.695 710.413 803.818 708.58 804.806C706.768 805.775 704.317 806.259 701.227 806.259C697.396 806.259 693.956 805.352 690.908 803.54C687.881 801.727 685.481 799.091 683.71 795.631C681.959 792.17 681.084 787.969 681.084 783.026C681.084 778.165 681.938 773.932 683.648 770.328C685.357 766.703 687.736 763.902 690.785 761.924C693.833 759.926 697.355 758.928 701.351 758.928C704.44 758.928 706.891 759.442 708.704 760.472C710.537 761.482 711.937 762.635 712.905 763.933C713.894 765.21 714.656 766.26 715.192 767.084H715.933V759.545H722.977V808.359C722.977 812.438 722.05 815.754 720.197 818.308C718.363 820.882 715.892 822.767 712.782 823.961C709.692 825.176 706.253 825.784 702.463 825.784ZM702.216 799.709C705.14 799.709 707.612 799.039 709.631 797.701C711.649 796.362 713.183 794.436 714.234 791.923C715.284 789.411 715.809 786.403 715.809 782.902C715.809 779.483 715.295 776.466 714.265 773.85C713.235 771.234 711.711 769.185 709.692 767.702C707.674 766.219 705.182 765.477 702.216 765.477C699.126 765.477 696.552 766.26 694.492 767.825C692.453 769.391 690.919 771.491 689.889 774.128C688.879 776.764 688.375 779.689 688.375 782.902C688.375 786.197 688.89 789.112 689.92 791.645C690.97 794.158 692.515 796.135 694.554 797.577C696.613 798.998 699.167 799.709 702.216 799.709ZM755.602 807.989C751.318 807.989 747.559 806.969 744.325 804.93C741.112 802.891 738.6 800.038 736.787 796.372C734.995 792.706 734.099 788.422 734.099 783.52C734.099 778.577 734.995 774.262 736.787 770.575C738.6 766.888 741.112 764.025 744.325 761.986C747.559 759.947 751.318 758.928 755.602 758.928C759.886 758.928 763.635 759.947 766.848 761.986C770.082 764.025 772.594 766.888 774.386 770.575C776.199 774.262 777.105 778.577 777.105 783.52C777.105 788.422 776.199 792.706 774.386 796.372C772.594 800.038 770.082 802.891 766.848 804.93C763.635 806.969 759.886 807.989 755.602 807.989ZM755.602 801.439C758.856 801.439 761.534 800.605 763.635 798.936C765.736 797.268 767.291 795.075 768.3 792.356C769.309 789.637 769.814 786.692 769.814 783.52C769.814 780.348 769.309 777.392 768.3 774.653C767.291 771.914 765.736 769.7 763.635 768.011C761.534 766.322 758.856 765.477 755.602 765.477C752.348 765.477 749.67 766.322 747.569 768.011C745.469 769.7 743.914 771.914 742.904 774.653C741.895 777.392 741.39 780.348 741.39 783.52C741.39 786.692 741.895 789.637 742.904 792.356C743.914 795.075 745.469 797.268 747.569 798.936C749.67 800.605 752.348 801.439 755.602 801.439Z" fill="white"/>
<rect x="231" y="958" width="604" height="224" rx="40" fill="#D890AF" stroke="#FFC8AA" stroke-width="10"/>
<rect x="1178" y="958" width="604" height="224" rx="40" fill="#D890AF" stroke="#FFC8AA" stroke-width="10"/>
<path d="M1297.84 1037.73V1101H1290.42L1255.94 1051.32H1255.32V1101H1247.66V1037.73H1255.08L1289.68 1087.53H1290.3V1037.73H1297.84ZM1332.07 1101.99C1327.5 1101.99 1323.56 1100.98 1320.24 1098.96C1316.95 1096.92 1314.4 1094.08 1312.61 1090.43C1310.84 1086.77 1309.95 1082.5 1309.95 1077.64C1309.95 1072.78 1310.84 1068.5 1312.61 1064.79C1314.4 1061.06 1316.89 1058.16 1320.09 1056.08C1323.3 1053.98 1327.05 1052.93 1331.33 1052.93C1333.8 1052.93 1336.25 1053.34 1338.66 1054.16C1341.06 1054.99 1343.26 1056.33 1345.24 1058.18C1347.21 1060.01 1348.79 1062.44 1349.96 1065.47C1351.14 1068.5 1351.72 1072.23 1351.72 1076.65V1079.74H1315.14V1073.44H1344.31C1344.31 1070.76 1343.77 1068.37 1342.7 1066.27C1341.65 1064.17 1340.15 1062.52 1338.19 1061.3C1336.26 1060.08 1333.97 1059.48 1331.33 1059.48C1328.43 1059.48 1325.92 1060.2 1323.79 1061.64C1321.69 1063.06 1320.08 1064.91 1318.94 1067.2C1317.81 1069.49 1317.24 1071.94 1317.24 1074.55V1078.76C1317.24 1082.34 1317.86 1085.38 1319.1 1087.87C1320.36 1090.34 1322.1 1092.23 1324.32 1093.52C1326.54 1094.8 1329.13 1095.44 1332.07 1095.44C1333.99 1095.44 1335.72 1095.17 1337.26 1094.64C1338.83 1094.08 1340.18 1093.26 1341.31 1092.16C1342.44 1091.05 1343.32 1089.67 1343.94 1088.02L1350.98 1090C1350.24 1092.39 1348.99 1094.49 1347.24 1096.3C1345.49 1098.1 1343.33 1099.5 1340.76 1100.51C1338.18 1101.49 1335.29 1101.99 1332.07 1101.99ZM1366.98 1053.55L1378.35 1072.95L1389.72 1053.55H1398.12L1382.8 1077.27L1398.12 1101H1389.72L1378.35 1082.59L1366.98 1101H1358.57L1373.65 1077.27L1358.57 1053.55H1366.98ZM1429.16 1053.55V1059.72H1404.57V1053.55H1429.16ZM1411.74 1042.18H1419.03V1087.41C1419.03 1089.47 1419.33 1091.01 1419.92 1092.04C1420.54 1093.05 1421.32 1093.73 1422.27 1094.08C1423.24 1094.41 1424.26 1094.57 1425.33 1094.57C1426.13 1094.57 1426.79 1094.53 1427.31 1094.45C1427.82 1094.35 1428.23 1094.26 1428.54 1094.2L1430.03 1100.75C1429.53 1100.94 1428.84 1101.12 1427.96 1101.31C1427.07 1101.51 1425.95 1101.62 1424.59 1101.62C1422.53 1101.62 1420.51 1101.18 1418.53 1100.29C1416.58 1099.4 1414.95 1098.05 1413.65 1096.24C1412.38 1094.43 1411.74 1092.14 1411.74 1089.38V1042.18ZM1465.59 1101V1037.73H1486.97C1491.93 1037.73 1495.99 1038.62 1499.14 1040.42C1502.31 1042.19 1504.66 1044.59 1506.18 1047.61C1507.71 1050.64 1508.47 1054.02 1508.47 1057.75C1508.47 1061.48 1507.71 1064.86 1506.18 1067.91C1504.68 1070.96 1502.35 1073.39 1499.2 1075.2C1496.05 1076.99 1492.01 1077.89 1487.09 1077.89H1471.77V1071.09H1486.84C1490.24 1071.09 1492.97 1070.51 1495.03 1069.33C1497.09 1068.16 1498.58 1066.57 1499.51 1064.57C1500.46 1062.56 1500.93 1060.28 1500.93 1057.75C1500.93 1055.21 1500.46 1052.95 1499.51 1050.95C1498.58 1048.95 1497.08 1047.39 1495 1046.25C1492.92 1045.1 1490.16 1044.52 1486.72 1044.52H1473.25V1101H1465.59ZM1519.82 1101V1053.55H1526.87V1060.71H1527.36C1528.23 1058.37 1529.79 1056.46 1532.06 1055C1534.32 1053.54 1536.88 1052.8 1539.72 1052.8C1540.25 1052.8 1540.92 1052.81 1541.73 1052.83C1542.53 1052.86 1543.14 1052.89 1543.55 1052.93V1060.34C1543.3 1060.28 1542.74 1060.19 1541.85 1060.06C1540.99 1059.92 1540.07 1059.85 1539.1 1059.85C1536.79 1059.85 1534.73 1060.33 1532.92 1061.3C1531.13 1062.25 1529.71 1063.57 1528.66 1065.25C1527.63 1066.92 1527.11 1068.83 1527.11 1070.97V1101H1519.82ZM1570.03 1101.99C1565.74 1101.99 1561.98 1100.97 1558.75 1098.93C1555.54 1096.89 1553.02 1094.04 1551.21 1090.37C1549.42 1086.71 1548.52 1082.42 1548.52 1077.52C1548.52 1072.58 1549.42 1068.26 1551.21 1064.57C1553.02 1060.89 1555.54 1058.03 1558.75 1055.99C1561.98 1053.95 1565.74 1052.93 1570.03 1052.93C1574.31 1052.93 1578.06 1053.95 1581.27 1055.99C1584.51 1058.03 1587.02 1060.89 1588.81 1064.57C1590.62 1068.26 1591.53 1072.58 1591.53 1077.52C1591.53 1082.42 1590.62 1086.71 1588.81 1090.37C1587.02 1094.04 1584.51 1096.89 1581.27 1098.93C1578.06 1100.97 1574.31 1101.99 1570.03 1101.99ZM1570.03 1095.44C1573.28 1095.44 1575.96 1094.6 1578.06 1092.94C1580.16 1091.27 1581.72 1089.07 1582.72 1086.36C1583.73 1083.64 1584.24 1080.69 1584.24 1077.52C1584.24 1074.35 1583.73 1071.39 1582.72 1068.65C1581.72 1065.91 1580.16 1063.7 1578.06 1062.01C1575.96 1060.32 1573.28 1059.48 1570.03 1059.48C1566.77 1059.48 1564.1 1060.32 1561.99 1062.01C1559.89 1063.7 1558.34 1065.91 1557.33 1068.65C1556.32 1071.39 1555.82 1074.35 1555.82 1077.52C1555.82 1080.69 1556.32 1083.64 1557.33 1086.36C1558.34 1089.07 1559.89 1091.27 1561.99 1092.94C1564.1 1094.6 1566.77 1095.44 1570.03 1095.44ZM1602.66 1101V1053.55H1609.7V1060.96H1610.32C1611.31 1058.43 1612.91 1056.46 1615.11 1055.06C1617.31 1053.64 1619.96 1052.93 1623.05 1052.93C1626.18 1052.93 1628.79 1053.64 1630.87 1055.06C1632.97 1056.46 1634.6 1058.43 1635.78 1060.96H1636.27C1637.49 1058.51 1639.31 1056.56 1641.74 1055.12C1644.17 1053.66 1647.09 1052.93 1650.48 1052.93C1654.73 1052.93 1658.2 1054.26 1660.9 1056.91C1663.59 1059.55 1664.94 1063.66 1664.94 1069.24V1101H1657.65V1069.24C1657.65 1065.74 1656.69 1063.24 1654.78 1061.73C1652.86 1060.23 1650.61 1059.48 1648.01 1059.48C1644.68 1059.48 1642.09 1060.49 1640.26 1062.5C1638.43 1064.5 1637.51 1067.04 1637.51 1070.11V1101H1630.09V1068.5C1630.09 1065.8 1629.22 1063.63 1627.47 1061.98C1625.72 1060.31 1623.46 1059.48 1620.7 1059.48C1618.81 1059.48 1617.04 1059.98 1615.39 1060.99C1613.76 1062 1612.44 1063.4 1611.43 1065.19C1610.45 1066.96 1609.95 1069.01 1609.95 1071.34V1101H1602.66ZM1678.27 1118.8V1053.55H1685.32V1061.08H1686.18C1686.72 1060.26 1687.46 1059.21 1688.41 1057.93C1689.38 1056.63 1690.76 1055.48 1692.55 1054.47C1694.36 1053.44 1696.81 1052.93 1699.9 1052.93C1703.9 1052.93 1707.42 1053.93 1710.47 1055.92C1713.52 1057.92 1715.89 1060.75 1717.6 1064.42C1719.31 1068.09 1720.17 1072.41 1720.17 1077.4C1720.17 1082.42 1719.31 1086.78 1717.6 1090.46C1715.89 1094.13 1713.53 1096.97 1710.5 1098.99C1707.47 1100.99 1703.98 1101.99 1700.02 1101.99C1696.98 1101.99 1694.54 1101.48 1692.7 1100.47C1690.87 1099.44 1689.46 1098.28 1688.47 1096.98C1687.48 1095.67 1686.72 1094.57 1686.18 1093.71H1685.57V1118.8H1678.27ZM1685.44 1077.27C1685.44 1080.86 1685.97 1084.02 1687.02 1086.76C1688.07 1089.48 1689.6 1091.61 1691.62 1093.15C1693.64 1094.68 1696.11 1095.44 1699.04 1095.44C1702.08 1095.44 1704.63 1094.64 1706.67 1093.03C1708.73 1091.4 1710.27 1089.22 1711.3 1086.48C1712.35 1083.72 1712.88 1080.65 1712.88 1077.27C1712.88 1073.94 1712.36 1070.93 1711.33 1068.25C1710.32 1065.55 1708.79 1063.42 1706.73 1061.86C1704.69 1060.27 1702.13 1059.48 1699.04 1059.48C1696.07 1059.48 1693.58 1060.23 1691.56 1061.73C1689.54 1063.22 1688.02 1065.3 1686.99 1067.97C1685.96 1070.63 1685.44 1073.73 1685.44 1077.27ZM1751.93 1053.55V1059.72H1727.34V1053.55H1751.93ZM1734.5 1042.18H1741.79V1087.41C1741.79 1089.47 1742.09 1091.01 1742.69 1092.04C1743.31 1093.05 1744.09 1093.73 1745.04 1094.08C1746.01 1094.41 1747.03 1094.57 1748.1 1094.57C1748.9 1094.57 1749.56 1094.53 1750.07 1094.45C1750.59 1094.35 1751 1094.26 1751.31 1094.2L1752.79 1100.75C1752.3 1100.94 1751.61 1101.12 1750.72 1101.31C1749.84 1101.51 1748.72 1101.62 1747.36 1101.62C1745.3 1101.62 1743.28 1101.18 1741.3 1100.29C1739.34 1099.4 1737.72 1098.05 1736.42 1096.24C1735.14 1094.43 1734.5 1092.14 1734.5 1089.38V1042.18Z" fill="#551E00"/>
<path d="M355.324 1037.73V1101H347.662V1037.73H355.324ZM415.299 1053.55V1059.72H389.718V1053.55H415.299ZM397.38 1101V1047C397.38 1044.28 398.018 1042.01 399.295 1040.2C400.572 1038.39 402.23 1037.03 404.269 1036.12C406.308 1035.21 408.46 1034.76 410.726 1034.76C412.518 1034.76 413.98 1034.91 415.113 1035.19C416.246 1035.48 417.09 1035.75 417.647 1036L415.546 1042.3C415.175 1042.18 414.66 1042.02 414.001 1041.84C413.362 1041.65 412.518 1041.56 411.468 1041.56C409.058 1041.56 407.317 1042.17 406.246 1043.38C405.196 1044.6 404.671 1046.38 404.671 1048.73V1101H397.38ZM442.841 1101.99C438.557 1101.99 434.798 1100.97 431.565 1098.93C428.352 1096.89 425.839 1094.04 424.026 1090.37C422.234 1086.71 421.339 1082.42 421.339 1077.52C421.339 1072.58 422.234 1068.26 424.026 1064.57C425.839 1060.89 428.352 1058.03 431.565 1055.99C434.798 1053.95 438.557 1052.93 442.841 1052.93C447.125 1052.93 450.874 1053.95 454.087 1055.99C457.321 1058.03 459.834 1060.89 461.625 1064.57C463.438 1068.26 464.344 1072.58 464.344 1077.52C464.344 1082.42 463.438 1086.71 461.625 1090.37C459.834 1094.04 457.321 1096.89 454.087 1098.93C450.874 1100.97 447.125 1101.99 442.841 1101.99ZM442.841 1095.44C446.096 1095.44 448.773 1094.6 450.874 1092.94C452.975 1091.27 454.53 1089.07 455.539 1086.36C456.548 1083.64 457.053 1080.69 457.053 1077.52C457.053 1074.35 456.548 1071.39 455.539 1068.65C454.53 1065.91 452.975 1063.7 450.874 1062.01C448.773 1060.32 446.096 1059.48 442.841 1059.48C439.587 1059.48 436.91 1060.32 434.809 1062.01C432.708 1063.7 431.153 1065.91 430.144 1068.65C429.134 1071.39 428.63 1074.35 428.63 1077.52C428.63 1080.69 429.134 1083.64 430.144 1086.36C431.153 1089.07 432.708 1091.27 434.809 1092.94C436.91 1094.6 439.587 1095.44 442.841 1095.44ZM505.38 1081.6V1053.55H512.672V1101H505.38V1092.97H504.886C503.774 1095.38 502.044 1097.43 499.696 1099.12C497.348 1100.78 494.382 1101.62 490.798 1101.62C487.832 1101.62 485.196 1100.97 482.889 1099.67C480.582 1098.35 478.77 1096.38 477.451 1093.74C476.133 1091.08 475.474 1087.74 475.474 1083.7V1053.55H482.765V1083.2C482.765 1086.66 483.733 1089.42 485.669 1091.48C487.626 1093.54 490.118 1094.57 493.146 1094.57C494.958 1094.57 496.802 1094.11 498.676 1093.18C500.571 1092.26 502.157 1090.84 503.434 1088.92C504.732 1087 505.38 1084.56 505.38 1081.6ZM533.317 1072.45V1101H526.026V1053.55H533.07V1060.96H533.688C534.8 1058.55 536.489 1056.61 538.755 1055.15C541.02 1053.67 543.945 1052.93 547.529 1052.93C550.742 1052.93 553.553 1053.59 555.963 1054.9C558.373 1056.2 560.247 1058.18 561.586 1060.84C562.925 1063.47 563.594 1066.81 563.594 1070.85V1101H556.303V1071.34C556.303 1067.61 555.335 1064.71 553.399 1062.63C551.463 1060.53 548.806 1059.48 545.428 1059.48C543.1 1059.48 541.02 1059.98 539.187 1060.99C537.375 1062 535.943 1063.47 534.893 1065.41C533.842 1067.35 533.317 1069.69 533.317 1072.45ZM594.836 1101.99C590.882 1101.99 587.391 1100.99 584.363 1098.99C581.335 1096.97 578.967 1094.13 577.257 1090.46C575.548 1086.78 574.693 1082.42 574.693 1077.4C574.693 1072.41 575.548 1068.09 577.257 1064.42C578.967 1060.75 581.346 1057.92 584.394 1055.92C587.442 1053.93 590.964 1052.93 594.96 1052.93C598.05 1052.93 600.49 1053.44 602.282 1054.47C604.095 1055.48 605.475 1056.63 606.422 1057.93C607.39 1059.21 608.142 1060.26 608.677 1061.08H609.295V1037.73H616.586V1101H609.542V1093.71H608.677C608.142 1094.57 607.38 1095.67 606.391 1096.98C605.403 1098.28 603.992 1099.44 602.159 1100.47C600.325 1101.48 597.885 1101.99 594.836 1101.99ZM595.825 1095.44C598.75 1095.44 601.221 1094.68 603.24 1093.15C605.258 1091.61 606.793 1089.48 607.843 1086.76C608.894 1084.02 609.419 1080.86 609.419 1077.27C609.419 1073.73 608.904 1070.63 607.874 1067.97C606.844 1065.3 605.32 1063.22 603.302 1061.73C601.283 1060.23 598.791 1059.48 595.825 1059.48C592.736 1059.48 590.161 1060.27 588.101 1061.86C586.062 1063.42 584.528 1065.55 583.498 1068.25C582.489 1070.93 581.984 1073.94 581.984 1077.27C581.984 1080.65 582.499 1083.72 583.529 1086.48C584.579 1089.22 586.124 1091.4 588.163 1093.03C590.223 1094.64 592.777 1095.44 595.825 1095.44ZM655.421 1101V1053.55H662.713V1101H655.421ZM659.129 1045.64C657.708 1045.64 656.482 1045.15 655.452 1044.18C654.443 1043.22 653.938 1042.05 653.938 1040.69C653.938 1039.33 654.443 1038.17 655.452 1037.2C656.482 1036.23 657.708 1035.75 659.129 1035.75C660.55 1035.75 661.765 1036.23 662.774 1037.2C663.804 1038.17 664.319 1039.33 664.319 1040.69C664.319 1042.05 663.804 1043.22 662.774 1044.18C661.765 1045.15 660.55 1045.64 659.129 1045.64ZM696.705 1053.55V1059.72H672.112V1053.55H696.705ZM679.28 1042.18H686.571V1087.41C686.571 1089.47 686.87 1091.01 687.467 1092.04C688.085 1093.05 688.868 1093.73 689.815 1094.08C690.783 1094.41 691.803 1094.57 692.874 1094.57C693.677 1094.57 694.336 1094.53 694.851 1094.45C695.366 1094.35 695.778 1094.26 696.087 1094.2L697.57 1100.75C697.075 1100.94 696.385 1101.12 695.5 1101.31C694.614 1101.51 693.492 1101.62 692.132 1101.62C690.073 1101.62 688.054 1101.18 686.077 1100.29C684.12 1099.4 682.493 1098.05 681.195 1096.24C679.918 1094.43 679.28 1092.14 679.28 1089.38V1042.18ZM717.312 1037.73L716.694 1083.2H709.526L708.908 1037.73H717.312ZM713.11 1101.49C711.586 1101.49 710.278 1100.95 709.186 1099.86C708.095 1098.77 707.549 1097.46 707.549 1095.93C707.549 1094.41 708.095 1093.1 709.186 1092.01C710.278 1090.92 711.586 1090.37 713.11 1090.37C714.634 1090.37 715.942 1090.92 717.033 1092.01C718.125 1093.1 718.671 1094.41 718.671 1095.93C718.671 1096.94 718.413 1097.87 717.899 1098.71C717.404 1099.56 716.735 1100.24 715.89 1100.75C715.066 1101.25 714.14 1101.49 713.11 1101.49Z" fill="#551E00"/>
<defs>
<filter id="filter0_dd_7_311" x="1325.05" y="528.713" width="201.342" height="107.847" filterUnits="userSpaceOnUse" color-interpolation-filters="sRGB">
<feFlood flood-opacity="0" result="BackgroundImageFix"/>
<feColorMatrix in="SourceAlpha" type="matrix" values="0 0 0 0 0 0 0 0 0 0 0 0 0 0 0 0 0 0 127 0" result="hardAlpha"/>
<feOffset dy="1.2"/>
<feGaussianBlur stdDeviation="0.6"/>
<feComposite in2="hardAlpha" operator="out"/>
<feColorMatrix type="matrix" values="0 0 0 0 0 0 0 0 0 0 0 0 0 0 0 0 0 0 0.25 0"/>
<feBlend mode="normal" in2="BackgroundImageFix" result="effect1_dropShadow_7_311"/>
<feColorMatrix in="SourceAlpha" type="matrix" values="0 0 0 0 0 0 0 0 0 0 0 0 0 0 0 0 0 0 127 0" result="hardAlpha"/>
<feOffset dy="1.2"/>
<feGaussianBlur stdDeviation="0.6"/>
<feComposite in2="hardAlpha" operator="out"/>
<feColorMatrix type="matrix" values="0 0 0 0 0 0 0 0 0 0 0 0 0 0 0 0 0 0 0.25 0"/>
<feBlend mode="normal" in2="effect1_dropShadow_7_311" result="effect2_dropShadow_7_311"/>
<feBlend mode="normal" in="SourceGraphic" in2="effect2_dropShadow_7_311" result="shape"/>
</filter>
<linearGradient id="paint0_linear_7_311" x1="960" y1="0" x2="960" y2="1280" gradientUnits="userSpaceOnUse">
<stop stop-color="#2D4E00"/>
<stop offset="1" stop-color="#003827"/>
</linearGradient>
<linearGradient id="paint1_linear_7_311" x1="1462.17" y1="661.381" x2="1367.37" y2="639.481" gradientUnits="userSpaceOnUse">
<stop offset="0.167901" stop-color="#59260A"/>
<stop offset="1" stop-color="#B25622"/>
</linearGradient>
<linearGradient id="paint2_linear_7_311" x1="1466.86" y1="796.455" x2="1466.86" y2="802.893" gradientUnits="userSpaceOnUse">
<stop stop-color="#59260A"/>
<stop offset="1" stop-color="#AA8239"/>
</linearGradient>
<linearGradient id="paint3_linear_7_311" x1="1426.32" y1="814.681" x2="1525.17" y2="807.181" gradientUnits="userSpaceOnUse">
<stop stop-color="#B2661B"/>
<stop offset="1" stop-color="#59260A"/>
</linearGradient>
<linearGradient id="paint4_linear_7_311" x1="1495.15" y1="805.081" x2="1495.15" y2="827.362" gradientUnits="userSpaceOnUse">
<stop stop-color="#AA8239"/>
<stop offset="1" stop-color="#B2661B"/>
</linearGradient>
<linearGradient id="paint5_linear_7_311" x1="1477.32" y1="829.381" x2="1518.72" y2="817.981" gradientUnits="userSpaceOnUse">
<stop stop-color="#B25622"/>
<stop offset="1" stop-color="#59260A"/>
</linearGradient>
<linearGradient id="paint6_linear_7_311" x1="1463.37" y1="847.831" x2="1531.32" y2="823.231" gradientUnits="userSpaceOnUse">
<stop stop-color="#B2661B"/>
<stop offset="1" stop-color="#59260A"/>
</linearGradient>
<linearGradient id="paint7_linear_7_311" x1="1538.57" y1="788.431" x2="1478.07" y2="866.581" gradientUnits="userSpaceOnUse">
<stop offset="0.234863" stop-color="#8D4319"/>
<stop offset="0.596019" stop-color="#AA8239"/>
</linearGradient>
<linearGradient id="paint8_linear_7_311" x1="1652.76" y1="590.431" x2="1652.76" y2="1240.68" gradientUnits="userSpaceOnUse">
<stop offset="0.473958" stop-color="#D7CAAA"/>
<stop offset="1" stop-color="#59260A"/>
</linearGradient>
<radialGradient id="paint9_radial_7_311" cx="0" cy="0" r="1" gradientUnits="userSpaceOnUse" gradientTransform="translate(1493.67 478.591) rotate(90) scale(133.591 134.85)">
<stop stop-color="white"/>
<stop offset="1" stop-color="white" stop-opacity="0"/>
</radialGradient>
<radialGradient id="paint10_radial_7_311" cx="0" cy="0" r="1" gradientUnits="userSpaceOnUse" gradientTransform="translate(1494.42 508.231) rotate(-90) scale(157.95 138.47)">
<stop stop-color="#59260A"/>
<stop offset="0.177083" stop-color="#B25622"/>
<stop offset="1" stop-color="white"/>
</radialGradient>
<linearGradient id="paint11_linear_7_311" x1="1496.04" y1="438.19" x2="1496.04" y2="518.559" gradientUnits="userSpaceOnUse">
<stop stop-color="#1F69EB"/>
<stop offset="1" stop-color="#0E5440"/>
</linearGradient>
<linearGradient id="paint12_linear_7_311" x1="1472.37" y1="462.181" x2="1483.32" y2="474.781" gradientUnits="userSpaceOnUse">
<stop stop-color="#D9D9D9" stop-opacity="0.6"/>
<stop offset="1" stop-color="#D9D9D9" stop-opacity="0.2"/>
</linearGradient>
<linearGradient id="paint13_linear_7_311" x1="1506.57" y1="407.961" x2="1506.57" y2="446.281" gradientUnits="userSpaceOnUse">
<stop stop-color="#59260A"/>
<stop offset="1" stop-color="#59260A" stop-opacity="0"/>
</linearGradient>
<linearGradient id="paint14_linear_7_311" x1="21.0279" y1="0" x2="21.0279" y2="70.0004" gradientUnits="userSpaceOnUse">
<stop stop-color="#1F69EB"/>
<stop offset="1" stop-color="#0E5440"/>
</linearGradient>
<linearGradient id="paint15_linear_7_311" x1="1365.87" y1="457.981" x2="1399.62" y2="433.681" gradientUnits="userSpaceOnUse">
<stop stop-color="#59260A"/>
<stop offset="1" stop-color="#59260A" stop-opacity="0"/>
</linearGradient>
<linearGradient id="paint16_linear_7_311" x1="1408.7" y1="533.581" x2="1408.7" y2="612.724" gradientUnits="userSpaceOnUse">
<stop stop-color="#EB671D"/>
<stop offset="1" stop-color="#6C4935"/>
</linearGradient>
<linearGradient id="paint17_linear_7_311" x1="1357.33" y1="529.295" x2="1357.33" y2="603.59" gradientUnits="userSpaceOnUse">
<stop stop-color="#EB671D"/>
<stop offset="1" stop-color="#6C4935"/>
</linearGradient>
<linearGradient id="paint18_linear_7_311" x1="1461.53" y1="533.478" x2="1461.53" y2="632.663" gradientUnits="userSpaceOnUse">
<stop stop-color="#EB671D"/>
<stop offset="1" stop-color="#6C4935"/>
</linearGradient>
<linearGradient id="paint19_linear_7_311" x1="1502.81" y1="538.052" x2="1502.81" y2="621.934" gradientUnits="userSpaceOnUse">
<stop stop-color="#EB671D"/>
<stop offset="1" stop-color="#6C4935"/>
</linearGradient>
<linearGradient id="paint20_linear_7_311" x1="1524.86" y1="685.748" x2="1524.86" y2="805.257" gradientUnits="userSpaceOnUse">
<stop stop-color="#856A5B"/>
<stop offset="1" stop-color="#59260A"/>
</linearGradient>
<linearGradient id="paint21_linear_7_311" x1="1553.69" y1="669.602" x2="1553.69" y2="793.514" gradientUnits="userSpaceOnUse">
<stop offset="0.0260417" stop-color="#AA8239"/>
<stop offset="0.46875" stop-color="#D9D9D9"/>
<stop offset="0.989583" stop-color="#B25622"/>
</linearGradient>
</defs>
</svg>
