<svg width="1920" height="1280" viewBox="0 0 1920 1280" fill="none" xmlns="http://www.w3.org/2000/svg">
<rect width="1920" height="1280" fill="url(#paint0_linear_1_2)"/>
<path d="M298.155 210L280.854 146.727H288.639L301.862 198.26H302.48L315.95 146.727H324.601L338.071 198.26H338.689L351.912 146.727H359.697L342.396 210H334.487L320.523 159.58H320.028L306.064 210H298.155ZM383.734 210.989C379.161 210.989 375.217 209.979 371.901 207.961C368.605 205.922 366.062 203.08 364.27 199.434C362.499 195.768 361.613 191.504 361.613 186.643C361.613 181.783 362.499 177.499 364.27 173.791C366.062 170.063 368.554 167.159 371.746 165.079C374.96 162.978 378.708 161.928 382.992 161.928C385.464 161.928 387.904 162.339 390.314 163.163C392.724 163.987 394.918 165.326 396.895 167.18C398.872 169.013 400.448 171.443 401.622 174.471C402.796 177.499 403.383 181.227 403.383 185.655V188.744H366.803V182.442H395.968C395.968 179.764 395.433 177.375 394.362 175.274C393.311 173.173 391.808 171.515 389.851 170.3C387.915 169.085 385.629 168.477 382.992 168.477C380.088 168.477 377.575 169.198 375.454 170.64C373.353 172.061 371.736 173.915 370.603 176.201C369.471 178.487 368.904 180.938 368.904 183.554V187.756C368.904 191.339 369.522 194.377 370.758 196.87C372.014 199.341 373.755 201.226 375.979 202.523C378.203 203.8 380.788 204.439 383.734 204.439C385.649 204.439 387.379 204.171 388.924 203.636C390.489 203.08 391.838 202.256 392.971 201.164C394.104 200.052 394.979 198.672 395.597 197.024L402.641 199.001C401.9 201.391 400.654 203.491 398.903 205.304C397.152 207.096 394.99 208.496 392.415 209.506C389.841 210.494 386.947 210.989 383.734 210.989ZM421.765 146.727V210H414.474V146.727H421.765ZM454.398 210.989C449.949 210.989 446.118 209.938 442.905 207.837C439.692 205.737 437.22 202.843 435.49 199.156C433.76 195.469 432.895 191.257 432.895 186.52C432.895 181.7 433.781 177.447 435.552 173.76C437.344 170.053 439.836 167.159 443.029 165.079C446.242 162.978 449.99 161.928 454.274 161.928C457.611 161.928 460.618 162.545 463.296 163.781C465.973 165.017 468.167 166.747 469.876 168.972C471.586 171.196 472.647 173.791 473.059 176.757H465.767C465.211 174.594 463.975 172.679 462.06 171.011C460.165 169.322 457.611 168.477 454.398 168.477C451.556 168.477 449.063 169.219 446.921 170.702C444.8 172.164 443.142 174.234 441.947 176.912C440.773 179.569 440.186 182.689 440.186 186.273C440.186 189.939 440.763 193.131 441.916 195.85C443.09 198.569 444.738 200.68 446.86 202.184C449.002 203.687 451.514 204.439 454.398 204.439C456.293 204.439 458.013 204.109 459.557 203.45C461.102 202.791 462.41 201.844 463.481 200.608C464.552 199.372 465.314 197.889 465.767 196.159H473.059C472.647 198.96 471.627 201.483 470 203.728C468.393 205.953 466.262 207.724 463.605 209.042C460.968 210.34 457.899 210.989 454.398 210.989ZM502.996 210.989C498.712 210.989 494.953 209.969 491.719 207.93C488.506 205.891 485.993 203.038 484.181 199.372C482.389 195.706 481.493 191.422 481.493 186.52C481.493 181.577 482.389 177.262 484.181 173.575C485.993 169.888 488.506 167.025 491.719 164.986C494.953 162.947 498.712 161.928 502.996 161.928C507.28 161.928 511.028 162.947 514.241 164.986C517.475 167.025 519.988 169.888 521.78 173.575C523.592 177.262 524.498 181.577 524.498 186.52C524.498 191.422 523.592 195.706 521.78 199.372C519.988 203.038 517.475 205.891 514.241 207.93C511.028 209.969 507.28 210.989 502.996 210.989ZM502.996 204.439C506.25 204.439 508.927 203.605 511.028 201.936C513.129 200.268 514.684 198.075 515.693 195.356C516.703 192.637 517.207 189.692 517.207 186.52C517.207 183.348 516.703 180.392 515.693 177.653C514.684 174.914 513.129 172.7 511.028 171.011C508.927 169.322 506.25 168.477 502.996 168.477C499.741 168.477 497.064 169.322 494.963 171.011C492.862 172.7 491.307 174.914 490.298 177.653C489.289 180.392 488.784 183.348 488.784 186.52C488.784 189.692 489.289 192.637 490.298 195.356C491.307 198.075 492.862 200.268 494.963 201.936C497.064 203.605 499.741 204.439 502.996 204.439ZM535.628 210V162.545H542.672V169.96H543.29C544.279 167.427 545.875 165.46 548.079 164.059C550.283 162.638 552.93 161.928 556.019 161.928C559.15 161.928 561.755 162.638 563.835 164.059C565.936 165.46 567.574 167.427 568.748 169.96H569.242C570.457 167.509 572.28 165.563 574.71 164.121C577.141 162.659 580.055 161.928 583.454 161.928C587.697 161.928 591.167 163.256 593.865 165.913C596.563 168.549 597.912 172.658 597.912 178.24V210H590.621V178.24C590.621 174.739 589.664 172.236 587.748 170.733C585.833 169.229 583.577 168.477 580.982 168.477C577.645 168.477 575.061 169.487 573.227 171.505C571.394 173.503 570.478 176.036 570.478 179.105V210H563.063V177.499C563.063 174.8 562.188 172.627 560.437 170.98C558.686 169.311 556.431 168.477 553.671 168.477C551.776 168.477 550.005 168.982 548.357 169.991C546.73 171 545.412 172.401 544.403 174.193C543.414 175.964 542.92 178.013 542.92 180.341V210H535.628ZM631.14 210.989C626.567 210.989 622.623 209.979 619.307 207.961C616.012 205.922 613.468 203.08 611.676 199.434C609.905 195.768 609.019 191.504 609.019 186.643C609.019 181.783 609.905 177.499 611.676 173.791C613.468 170.063 615.96 167.159 619.153 165.079C622.366 162.978 626.114 161.928 630.398 161.928C632.87 161.928 635.311 162.339 637.721 163.163C640.13 163.987 642.324 165.326 644.301 167.18C646.278 169.013 647.854 171.443 649.028 174.471C650.202 177.499 650.789 181.227 650.789 185.655V188.744H614.21V182.442H643.374C643.374 179.764 642.839 177.375 641.768 175.274C640.717 173.173 639.214 171.515 637.257 170.3C635.321 169.085 633.035 168.477 630.398 168.477C627.494 168.477 624.982 169.198 622.86 170.64C620.759 172.061 619.142 173.915 618.01 176.201C616.877 178.487 616.31 180.938 616.31 183.554V187.756C616.31 191.339 616.928 194.377 618.164 196.87C619.42 199.341 621.161 201.226 623.385 202.523C625.61 203.8 628.195 204.439 631.14 204.439C633.055 204.439 634.786 204.171 636.33 203.636C637.896 203.08 639.245 202.256 640.377 201.164C641.51 200.052 642.386 198.672 643.004 197.024L650.048 199.001C649.306 201.391 648.06 203.491 646.309 205.304C644.559 207.096 642.396 208.496 639.821 209.506C637.247 210.494 634.353 210.989 631.14 210.989ZM706.987 162.545V168.724H682.395V162.545H706.987ZM689.562 151.176H696.853V196.406C696.853 198.466 697.152 200.011 697.749 201.04C698.367 202.05 699.15 202.729 700.097 203.08C701.065 203.409 702.085 203.574 703.156 203.574C703.959 203.574 704.618 203.533 705.133 203.45C705.648 203.347 706.06 203.265 706.369 203.203L707.852 209.753C707.358 209.938 706.668 210.124 705.782 210.309C704.896 210.515 703.774 210.618 702.414 210.618C700.355 210.618 698.336 210.175 696.359 209.289C694.402 208.404 692.775 207.055 691.478 205.242C690.201 203.43 689.562 201.143 689.562 198.384V151.176ZM736.723 210.989C732.439 210.989 728.68 209.969 725.447 207.93C722.233 205.891 719.721 203.038 717.908 199.372C716.116 195.706 715.22 191.422 715.22 186.52C715.22 181.577 716.116 177.262 717.908 173.575C719.721 169.888 722.233 167.025 725.447 164.986C728.68 162.947 732.439 161.928 736.723 161.928C741.007 161.928 744.756 162.947 747.969 164.986C751.203 167.025 753.715 169.888 755.507 173.575C757.32 177.262 758.226 181.577 758.226 186.52C758.226 191.422 757.32 195.706 755.507 199.372C753.715 203.038 751.203 205.891 747.969 207.93C744.756 209.969 741.007 210.989 736.723 210.989ZM736.723 204.439C739.977 204.439 742.655 203.605 744.756 201.936C746.857 200.268 748.412 198.075 749.421 195.356C750.43 192.637 750.935 189.692 750.935 186.52C750.935 183.348 750.43 180.392 749.421 177.653C748.412 174.914 746.857 172.7 744.756 171.011C742.655 169.322 739.977 168.477 736.723 168.477C733.469 168.477 730.791 169.322 728.691 171.011C726.59 172.7 725.035 174.914 724.025 177.653C723.016 180.392 722.512 183.348 722.512 186.52C722.512 189.692 723.016 192.637 724.025 195.356C725.035 198.075 726.59 200.268 728.691 201.936C730.791 203.605 733.469 204.439 736.723 204.439ZM829.416 162.545C829.045 159.415 827.541 156.984 824.905 155.254C822.269 153.524 819.035 152.659 815.204 152.659C812.403 152.659 809.952 153.112 807.851 154.018C805.771 154.925 804.144 156.171 802.97 157.757C801.816 159.343 801.239 161.145 801.239 163.163C801.239 164.852 801.641 166.304 802.444 167.52C803.268 168.714 804.319 169.713 805.596 170.516C806.873 171.299 808.211 171.948 809.612 172.463C811.013 172.957 812.3 173.359 813.474 173.668L819.9 175.398C821.548 175.83 823.381 176.428 825.399 177.19C827.438 177.952 829.385 178.992 831.238 180.31C833.113 181.608 834.657 183.276 835.873 185.315C837.088 187.354 837.695 189.857 837.695 192.822C837.695 196.241 836.799 199.331 835.008 202.091C833.236 204.851 830.641 207.044 827.222 208.672C823.824 210.299 819.694 211.112 814.833 211.112C810.302 211.112 806.378 210.381 803.062 208.919C799.767 207.456 797.172 205.417 795.277 202.801C793.402 200.186 792.342 197.148 792.095 193.688H800.004C800.21 196.077 801.013 198.054 802.413 199.619C803.835 201.164 805.627 202.317 807.789 203.08C809.972 203.821 812.32 204.192 814.833 204.192C817.758 204.192 820.384 203.718 822.711 202.771C825.039 201.803 826.882 200.464 828.242 198.754C829.601 197.024 830.281 195.006 830.281 192.699C830.281 190.598 829.694 188.888 828.52 187.57C827.346 186.252 825.801 185.181 823.885 184.357C821.97 183.533 819.9 182.812 817.676 182.195L809.89 179.97C804.947 178.549 801.033 176.52 798.15 173.884C795.266 171.248 793.825 167.798 793.825 163.534C793.825 159.991 794.782 156.902 796.698 154.266C798.634 151.609 801.229 149.549 804.483 148.087C807.758 146.604 811.414 145.862 815.451 145.862C819.529 145.862 823.154 146.593 826.326 148.056C829.498 149.498 832.011 151.475 833.864 153.988C835.739 156.5 836.727 159.353 836.83 162.545H829.416ZM849.304 227.795V162.545H856.348V170.084H857.213C857.749 169.26 858.49 168.21 859.438 166.933C860.406 165.635 861.786 164.482 863.578 163.472C865.39 162.442 867.841 161.928 870.931 161.928C874.926 161.928 878.448 162.926 881.497 164.924C884.545 166.922 886.924 169.754 888.633 173.42C890.343 177.087 891.198 181.412 891.198 186.396C891.198 191.422 890.343 195.778 888.633 199.465C886.924 203.131 884.555 205.973 881.528 207.992C878.5 209.99 875.009 210.989 871.054 210.989C868.006 210.989 865.565 210.484 863.732 209.475C861.899 208.445 860.488 207.281 859.499 205.984C858.511 204.665 857.749 203.574 857.213 202.709H856.595V227.795H849.304ZM856.472 186.273C856.472 189.857 856.997 193.018 858.047 195.757C859.098 198.476 860.632 200.608 862.651 202.153C864.669 203.677 867.141 204.439 870.066 204.439C873.114 204.439 875.657 203.636 877.697 202.029C879.756 200.402 881.301 198.219 882.331 195.479C883.381 192.719 883.906 189.651 883.906 186.273C883.906 182.936 883.392 179.929 882.362 177.251C881.352 174.553 879.818 172.422 877.758 170.856C875.719 169.27 873.155 168.477 870.066 168.477C867.1 168.477 864.607 169.229 862.589 170.733C860.57 172.216 859.046 174.296 858.017 176.973C856.987 179.63 856.472 182.73 856.472 186.273ZM916.284 211.112C913.277 211.112 910.548 210.546 908.097 209.413C905.646 208.26 903.7 206.602 902.258 204.439C900.816 202.256 900.095 199.619 900.095 196.53C900.095 193.811 900.631 191.607 901.702 189.918C902.773 188.209 904.204 186.87 905.996 185.902C907.788 184.934 909.765 184.213 911.928 183.739C914.111 183.245 916.305 182.854 918.509 182.565C921.392 182.195 923.73 181.917 925.522 181.731C927.334 181.525 928.653 181.185 929.476 180.712C930.321 180.238 930.743 179.414 930.743 178.24V177.993C930.743 174.945 929.909 172.576 928.241 170.887C926.593 169.198 924.09 168.354 920.733 168.354C917.252 168.354 914.523 169.116 912.546 170.64C910.569 172.164 909.178 173.791 908.375 175.521L901.455 173.05C902.691 170.166 904.338 167.921 906.398 166.315C908.478 164.687 910.744 163.555 913.195 162.916C915.666 162.257 918.097 161.928 920.486 161.928C922.01 161.928 923.761 162.113 925.738 162.484C927.736 162.834 929.662 163.565 931.515 164.677C933.39 165.789 934.945 167.468 936.181 169.713C937.416 171.958 938.034 174.965 938.034 178.734V210H930.743V203.574H930.372C929.878 204.604 929.054 205.706 927.901 206.88C926.747 208.054 925.213 209.053 923.297 209.876C921.382 210.7 919.044 211.112 916.284 211.112ZM917.396 204.562C920.28 204.562 922.71 203.996 924.688 202.863C926.686 201.73 928.189 200.268 929.198 198.476C930.228 196.684 930.743 194.8 930.743 192.822V186.149C930.434 186.52 929.754 186.86 928.704 187.169C927.674 187.457 926.48 187.714 925.12 187.941C923.781 188.147 922.474 188.332 921.197 188.497C919.94 188.641 918.921 188.765 918.138 188.868C916.243 189.115 914.472 189.517 912.824 190.073C911.197 190.608 909.879 191.422 908.869 192.513C907.881 193.585 907.387 195.047 907.387 196.901C907.387 199.434 908.324 201.349 910.198 202.647C912.093 203.924 914.492 204.562 917.396 204.562ZM951.342 210V162.545H958.386V169.713H958.881C959.746 167.365 961.311 165.46 963.577 163.998C965.842 162.535 968.396 161.804 971.239 161.804C971.774 161.804 972.443 161.814 973.247 161.835C974.05 161.855 974.658 161.886 975.07 161.928V169.342C974.822 169.281 974.256 169.188 973.37 169.064C972.505 168.92 971.589 168.848 970.621 168.848C968.314 168.848 966.254 169.332 964.442 170.3C962.65 171.248 961.229 172.566 960.178 174.255C959.148 175.923 958.633 177.828 958.633 179.97V210H951.342ZM990.509 192.699L990.386 183.678H991.869L1012.63 162.545H1021.65L999.531 184.913H998.913L990.509 192.699ZM983.712 210V146.727H991.004V210H983.712ZM1013.87 210L995.329 186.52L1000.52 181.453L1023.13 210H1013.87ZM1038.33 146.727V210H1031.04V146.727H1038.33ZM1071.58 210.989C1067 210.989 1063.06 209.979 1059.74 207.961C1056.45 205.922 1053.91 203.08 1052.11 199.434C1050.34 195.768 1049.46 191.504 1049.46 186.643C1049.46 181.783 1050.34 177.499 1052.11 173.791C1053.91 170.063 1056.4 167.159 1059.59 165.079C1062.8 162.978 1066.55 161.928 1070.84 161.928C1073.31 161.928 1075.75 162.339 1078.16 163.163C1080.57 163.987 1082.76 165.326 1084.74 167.18C1086.72 169.013 1088.29 171.443 1089.47 174.471C1090.64 177.499 1091.23 181.227 1091.23 185.655V188.744H1054.65V182.442H1083.81C1083.81 179.764 1083.28 177.375 1082.21 175.274C1081.15 173.173 1079.65 171.515 1077.69 170.3C1075.76 169.085 1073.47 168.477 1070.84 168.477C1067.93 168.477 1065.42 169.198 1063.3 170.64C1061.2 172.061 1059.58 173.915 1058.45 176.201C1057.31 178.487 1056.75 180.938 1056.75 183.554V187.756C1056.75 191.339 1057.37 194.377 1058.6 196.87C1059.86 199.341 1061.6 201.226 1063.82 202.523C1066.05 203.8 1068.63 204.439 1071.58 204.439C1073.49 204.439 1075.22 204.171 1076.77 203.636C1078.33 203.08 1079.68 202.256 1080.81 201.164C1081.95 200.052 1082.82 198.672 1083.44 197.024L1090.49 199.001C1089.74 201.391 1088.5 203.491 1086.75 205.304C1085 207.096 1082.83 208.496 1080.26 209.506C1077.68 210.494 1074.79 210.989 1071.58 210.989ZM1137.91 162.545C1137.54 159.415 1136.03 156.984 1133.4 155.254C1130.76 153.524 1127.53 152.659 1123.7 152.659C1120.9 152.659 1118.44 153.112 1116.34 154.018C1114.26 154.925 1112.64 156.171 1111.46 157.757C1110.31 159.343 1109.73 161.145 1109.73 163.163C1109.73 164.852 1110.13 166.304 1110.94 167.52C1111.76 168.714 1112.81 169.713 1114.09 170.516C1115.37 171.299 1116.7 171.948 1118.11 172.463C1119.51 172.957 1120.79 173.359 1121.97 173.668L1128.39 175.398C1130.04 175.83 1131.87 176.428 1133.89 177.19C1135.93 177.952 1137.88 178.992 1139.73 180.31C1141.61 181.608 1143.15 183.276 1144.37 185.315C1145.58 187.354 1146.19 189.857 1146.19 192.822C1146.19 196.241 1145.29 199.331 1143.5 202.091C1141.73 204.851 1139.13 207.044 1135.72 208.672C1132.32 210.299 1128.19 211.112 1123.33 211.112C1118.8 211.112 1114.87 210.381 1111.56 208.919C1108.26 207.456 1105.66 205.417 1103.77 202.801C1101.9 200.186 1100.83 197.148 1100.59 193.688H1108.5C1108.7 196.077 1109.51 198.054 1110.91 199.619C1112.33 201.164 1114.12 202.317 1116.28 203.08C1118.47 203.821 1120.81 204.192 1123.33 204.192C1126.25 204.192 1128.88 203.718 1131.2 202.771C1133.53 201.803 1135.38 200.464 1136.73 198.754C1138.09 197.024 1138.77 195.006 1138.77 192.699C1138.77 190.598 1138.19 188.888 1137.01 187.57C1135.84 186.252 1134.29 185.181 1132.38 184.357C1130.46 183.533 1128.39 182.812 1126.17 182.195L1118.38 179.97C1113.44 178.549 1109.53 176.52 1106.64 173.884C1103.76 171.248 1102.32 167.798 1102.32 163.534C1102.32 159.991 1103.28 156.902 1105.19 154.266C1107.13 151.609 1109.72 149.549 1112.98 148.087C1116.25 146.604 1119.91 145.862 1123.94 145.862C1128.02 145.862 1131.65 146.593 1134.82 148.056C1137.99 149.498 1140.5 151.475 1142.36 153.988C1144.23 156.5 1145.22 159.353 1145.32 162.545H1137.91ZM1177.08 210.989C1172.63 210.989 1168.8 209.938 1165.58 207.837C1162.37 205.737 1159.9 202.843 1158.17 199.156C1156.44 195.469 1155.57 191.257 1155.57 186.52C1155.57 181.7 1156.46 177.447 1158.23 173.76C1160.02 170.053 1162.51 167.159 1165.71 165.079C1168.92 162.978 1172.67 161.928 1176.95 161.928C1180.29 161.928 1183.3 162.545 1185.97 163.781C1188.65 165.017 1190.84 166.747 1192.55 168.972C1194.26 171.196 1195.32 173.791 1195.74 176.757H1188.45C1187.89 174.594 1186.65 172.679 1184.74 171.011C1182.84 169.322 1180.29 168.477 1177.08 168.477C1174.23 168.477 1171.74 169.219 1169.6 170.702C1167.48 172.164 1165.82 174.234 1164.63 176.912C1163.45 179.569 1162.86 182.689 1162.86 186.273C1162.86 189.939 1163.44 193.131 1164.59 195.85C1165.77 198.569 1167.42 200.68 1169.54 202.184C1171.68 203.687 1174.19 204.439 1177.08 204.439C1178.97 204.439 1180.69 204.109 1182.24 203.45C1183.78 202.791 1185.09 201.844 1186.16 200.608C1187.23 199.372 1187.99 197.889 1188.45 196.159H1195.74C1195.32 198.96 1194.3 201.483 1192.68 203.728C1191.07 205.953 1188.94 207.724 1186.28 209.042C1183.65 210.34 1180.58 210.989 1177.08 210.989ZM1206.39 210V162.545H1213.44V169.713H1213.93C1214.8 167.365 1216.36 165.46 1218.63 163.998C1220.89 162.535 1223.45 161.804 1226.29 161.804C1226.83 161.804 1227.5 161.814 1228.3 161.835C1229.1 161.855 1229.71 161.886 1230.12 161.928V169.342C1229.88 169.281 1229.31 169.188 1228.42 169.064C1227.56 168.92 1226.64 168.848 1225.67 168.848C1223.37 168.848 1221.31 169.332 1219.49 170.3C1217.7 171.248 1216.28 172.566 1215.23 174.255C1214.2 175.923 1213.69 177.828 1213.69 179.97V210H1206.39ZM1238.77 210V162.545H1246.06V210H1238.77ZM1242.47 154.636C1241.05 154.636 1239.83 154.152 1238.8 153.184C1237.79 152.216 1237.28 151.053 1237.28 149.693C1237.28 148.334 1237.79 147.17 1238.8 146.202C1239.83 145.234 1241.05 144.75 1242.47 144.75C1243.89 144.75 1245.11 145.234 1246.12 146.202C1247.15 147.17 1247.66 148.334 1247.66 149.693C1247.66 151.053 1247.15 152.216 1246.12 153.184C1245.11 154.152 1243.89 154.636 1242.47 154.636ZM1259.41 227.795V162.545H1266.45V170.084H1267.32C1267.86 169.26 1268.6 168.21 1269.54 166.933C1270.51 165.635 1271.89 164.482 1273.68 163.472C1275.5 162.442 1277.95 161.928 1281.04 161.928C1285.03 161.928 1288.55 162.926 1291.6 164.924C1294.65 166.922 1297.03 169.754 1298.74 173.42C1300.45 177.087 1301.3 181.412 1301.3 186.396C1301.3 191.422 1300.45 195.778 1298.74 199.465C1297.03 203.131 1294.66 205.973 1291.63 207.992C1288.61 209.99 1285.12 210.989 1281.16 210.989C1278.11 210.989 1275.67 210.484 1273.84 209.475C1272.01 208.445 1270.59 207.281 1269.61 205.984C1268.62 204.665 1267.86 203.574 1267.32 202.709H1266.7V227.795H1259.41ZM1266.58 186.273C1266.58 189.857 1267.1 193.018 1268.15 195.757C1269.2 198.476 1270.74 200.608 1272.76 202.153C1274.78 203.677 1277.25 204.439 1280.17 204.439C1283.22 204.439 1285.76 203.636 1287.8 202.029C1289.86 200.402 1291.41 198.219 1292.44 195.479C1293.49 192.719 1294.01 189.651 1294.01 186.273C1294.01 182.936 1293.5 179.929 1292.47 177.251C1291.46 174.553 1289.92 172.422 1287.86 170.856C1285.83 169.27 1283.26 168.477 1280.17 168.477C1277.21 168.477 1274.71 169.229 1272.7 170.733C1270.68 172.216 1269.15 174.296 1268.12 176.973C1267.09 179.63 1266.58 182.73 1266.58 186.273ZM1333.06 162.545V168.724H1308.47V162.545H1333.06ZM1315.64 151.176H1322.93V196.406C1322.93 198.466 1323.23 200.011 1323.83 201.04C1324.44 202.05 1325.23 202.729 1326.17 203.08C1327.14 203.409 1328.16 203.574 1329.23 203.574C1330.04 203.574 1330.7 203.533 1331.21 203.45C1331.73 203.347 1332.14 203.265 1332.45 203.203L1333.93 209.753C1333.43 209.938 1332.74 210.124 1331.86 210.309C1330.97 210.515 1329.85 210.618 1328.49 210.618C1326.43 210.618 1324.41 210.175 1322.44 209.289C1320.48 208.404 1318.85 207.055 1317.55 205.242C1316.28 203.43 1315.64 201.143 1315.64 198.384V151.176ZM1395.94 166.5H1388.27C1387.82 164.296 1387.03 162.36 1385.89 160.692C1384.78 159.023 1383.42 157.623 1381.82 156.49C1380.23 155.337 1378.47 154.472 1376.53 153.895C1374.6 153.318 1372.58 153.03 1370.48 153.03C1366.65 153.03 1363.18 153.998 1360.07 155.934C1356.98 157.87 1354.52 160.723 1352.68 164.492C1350.87 168.261 1349.96 172.885 1349.96 178.364C1349.96 183.842 1350.87 188.466 1352.68 192.235C1354.52 196.005 1356.98 198.857 1360.07 200.793C1363.18 202.729 1366.65 203.697 1370.48 203.697C1372.58 203.697 1374.6 203.409 1376.53 202.832C1378.47 202.256 1380.23 201.401 1381.82 200.268C1383.42 199.115 1384.78 197.704 1385.89 196.036C1387.03 194.347 1387.82 192.411 1388.27 190.227H1395.94C1395.36 193.461 1394.31 196.355 1392.78 198.909C1391.26 201.463 1389.36 203.636 1387.1 205.428C1384.83 207.199 1382.29 208.548 1379.47 209.475C1376.67 210.402 1373.67 210.865 1370.48 210.865C1365.08 210.865 1360.28 209.547 1356.08 206.911C1351.88 204.274 1348.57 200.526 1346.16 195.665C1343.75 190.804 1342.55 185.037 1342.55 178.364C1342.55 171.69 1343.75 165.923 1346.16 161.062C1348.57 156.202 1351.88 152.453 1356.08 149.817C1360.28 147.18 1365.08 145.862 1370.48 145.862C1373.67 145.862 1376.67 146.326 1379.47 147.252C1382.29 148.179 1384.83 149.539 1387.1 151.331C1389.36 153.102 1391.26 155.265 1392.78 157.819C1394.31 160.352 1395.36 163.246 1395.94 166.5ZM1414.62 146.727V210H1407.33V146.727H1414.62ZM1457.88 190.598V162.545H1465.17V210H1457.88V201.967H1457.39C1456.27 204.377 1454.54 206.426 1452.19 208.115C1449.85 209.784 1446.88 210.618 1443.3 210.618C1440.33 210.618 1437.69 209.969 1435.39 208.672C1433.08 207.353 1431.27 205.376 1429.95 202.74C1428.63 200.083 1427.97 196.736 1427.97 192.699V162.545H1435.26V192.205C1435.26 195.665 1436.23 198.425 1438.17 200.484C1440.13 202.544 1442.62 203.574 1445.64 203.574C1447.46 203.574 1449.3 203.11 1451.18 202.184C1453.07 201.257 1454.66 199.836 1455.93 197.92C1457.23 196.005 1457.88 193.564 1457.88 190.598ZM1479.51 210V146.727H1486.8V170.084H1487.42C1487.96 169.26 1488.7 168.21 1489.65 166.933C1490.62 165.635 1492 164.482 1493.79 163.472C1495.6 162.442 1498.05 161.928 1501.14 161.928C1505.14 161.928 1508.66 162.926 1511.71 164.924C1514.75 166.922 1517.13 169.754 1518.84 173.42C1520.55 177.087 1521.41 181.412 1521.41 186.396C1521.41 191.422 1520.55 195.778 1518.84 199.465C1517.13 203.131 1514.76 205.973 1511.74 207.992C1508.71 209.99 1505.22 210.989 1501.26 210.989C1498.22 210.989 1495.77 210.484 1493.94 209.475C1492.11 208.445 1490.7 207.281 1489.71 205.984C1488.72 204.665 1487.96 203.574 1487.42 202.709H1486.56V210H1479.51ZM1486.68 186.273C1486.68 189.857 1487.21 193.018 1488.26 195.757C1489.31 198.476 1490.84 200.608 1492.86 202.153C1494.88 203.677 1497.35 204.439 1500.27 204.439C1503.32 204.439 1505.87 203.636 1507.91 202.029C1509.97 200.402 1511.51 198.219 1512.54 195.479C1513.59 192.719 1514.12 189.651 1514.12 186.273C1514.12 182.936 1513.6 179.929 1512.57 177.251C1511.56 174.553 1510.03 172.422 1507.97 170.856C1505.93 169.27 1503.36 168.477 1500.27 168.477C1497.31 168.477 1494.82 169.229 1492.8 170.733C1490.78 172.216 1489.26 174.296 1488.23 176.973C1487.2 179.63 1486.68 182.73 1486.68 186.273ZM1542.2 146.727L1541.58 192.205H1534.41L1533.8 146.727H1542.2ZM1538 210.494C1536.47 210.494 1535.17 209.949 1534.07 208.857C1532.98 207.765 1532.44 206.457 1532.44 204.933C1532.44 203.409 1532.98 202.101 1534.07 201.01C1535.17 199.918 1536.47 199.372 1538 199.372C1539.52 199.372 1540.83 199.918 1541.92 201.01C1543.01 202.101 1543.56 203.409 1543.56 204.933C1543.56 205.942 1543.3 206.869 1542.79 207.714C1542.29 208.558 1541.62 209.238 1540.78 209.753C1539.95 210.247 1539.03 210.494 1538 210.494Z" fill="#EBDDD5"/>
<path d="M194.091 536.091V540.636H176V536.091H194.091ZM181.273 527.727H186.636V561C186.636 562.515 186.856 563.652 187.295 564.409C187.75 565.152 188.326 565.652 189.023 565.909C189.735 566.152 190.485 566.273 191.273 566.273C191.864 566.273 192.348 566.242 192.727 566.182C193.106 566.106 193.409 566.045 193.636 566L194.727 570.818C194.364 570.955 193.856 571.091 193.205 571.227C192.553 571.379 191.727 571.455 190.727 571.455C189.212 571.455 187.727 571.129 186.273 570.477C184.833 569.826 183.636 568.833 182.682 567.5C181.742 566.167 181.273 564.485 181.273 562.455V527.727ZM208.273 550V571H202.909V524.455H208.273V541.545H208.727C209.545 539.742 210.773 538.311 212.409 537.25C214.061 536.174 216.258 535.636 219 535.636C221.379 535.636 223.462 536.114 225.25 537.068C227.038 538.008 228.424 539.455 229.409 541.409C230.409 543.348 230.909 545.818 230.909 548.818V571H225.545V549.182C225.545 546.409 224.826 544.265 223.386 542.75C221.962 541.22 219.985 540.455 217.455 540.455C215.697 540.455 214.121 540.826 212.727 541.568C211.348 542.311 210.258 543.394 209.455 544.818C208.667 546.242 208.273 547.97 208.273 550ZM255.358 571.727C251.994 571.727 249.093 570.985 246.653 569.5C244.229 568 242.358 565.909 241.04 563.227C239.737 560.53 239.085 557.394 239.085 553.818C239.085 550.242 239.737 547.091 241.04 544.364C242.358 541.621 244.191 539.485 246.54 537.955C248.903 536.409 251.661 535.636 254.812 535.636C256.631 535.636 258.426 535.939 260.199 536.545C261.972 537.152 263.585 538.136 265.04 539.5C266.494 540.848 267.653 542.636 268.517 544.864C269.381 547.091 269.812 549.833 269.812 553.091V555.364H242.903V550.727H264.358C264.358 548.758 263.964 547 263.176 545.455C262.403 543.909 261.297 542.689 259.858 541.795C258.434 540.902 256.752 540.455 254.812 540.455C252.676 540.455 250.828 540.985 249.267 542.045C247.722 543.091 246.532 544.455 245.699 546.136C244.866 547.818 244.449 549.621 244.449 551.545V554.636C244.449 557.273 244.903 559.508 245.812 561.341C246.737 563.159 248.017 564.545 249.653 565.5C251.29 566.439 253.191 566.909 255.358 566.909C256.767 566.909 258.04 566.712 259.176 566.318C260.328 565.909 261.32 565.303 262.153 564.5C262.987 563.682 263.631 562.667 264.085 561.455L269.267 562.909C268.722 564.667 267.805 566.212 266.517 567.545C265.229 568.864 263.638 569.894 261.744 570.636C259.85 571.364 257.722 571.727 255.358 571.727ZM296.699 524.455H303.426L319.244 563.091H319.79L335.608 524.455H342.335V571H337.062V535.636H336.608L322.062 571H316.972L302.426 535.636H301.972V571H296.699V524.455ZM363.182 571.818C360.97 571.818 358.962 571.402 357.159 570.568C355.356 569.72 353.924 568.5 352.864 566.909C351.803 565.303 351.273 563.364 351.273 561.091C351.273 559.091 351.667 557.47 352.455 556.227C353.242 554.97 354.295 553.985 355.614 553.273C356.932 552.561 358.386 552.03 359.977 551.682C361.583 551.318 363.197 551.03 364.818 550.818C366.939 550.545 368.659 550.341 369.977 550.205C371.311 550.053 372.28 549.803 372.886 549.455C373.508 549.106 373.818 548.5 373.818 547.636V547.455C373.818 545.212 373.205 543.47 371.977 542.227C370.765 540.985 368.924 540.364 366.455 540.364C363.894 540.364 361.886 540.924 360.432 542.045C358.977 543.167 357.955 544.364 357.364 545.636L352.273 543.818C353.182 541.697 354.394 540.045 355.909 538.864C357.439 537.667 359.106 536.833 360.909 536.364C362.727 535.879 364.515 535.636 366.273 535.636C367.394 535.636 368.682 535.773 370.136 536.045C371.606 536.303 373.023 536.841 374.386 537.659C375.765 538.477 376.909 539.712 377.818 541.364C378.727 543.015 379.182 545.227 379.182 548V571H373.818V566.273H373.545C373.182 567.03 372.576 567.841 371.727 568.705C370.879 569.568 369.75 570.303 368.341 570.909C366.932 571.515 365.212 571.818 363.182 571.818ZM364 567C366.121 567 367.909 566.583 369.364 565.75C370.833 564.917 371.939 563.841 372.682 562.523C373.439 561.205 373.818 559.818 373.818 558.364V553.455C373.591 553.727 373.091 553.977 372.318 554.205C371.561 554.417 370.682 554.606 369.682 554.773C368.697 554.924 367.735 555.061 366.795 555.182C365.871 555.288 365.121 555.379 364.545 555.455C363.152 555.636 361.848 555.932 360.636 556.341C359.439 556.735 358.47 557.333 357.727 558.136C357 558.924 356.636 560 356.636 561.364C356.636 563.227 357.326 564.636 358.705 565.591C360.098 566.53 361.864 567 364 567ZM403.062 584.818C400.472 584.818 398.244 584.485 396.381 583.818C394.517 583.167 392.964 582.303 391.722 581.227C390.494 580.167 389.517 579.03 388.79 577.818L393.062 574.818C393.547 575.455 394.161 576.182 394.903 577C395.646 577.833 396.661 578.553 397.949 579.159C399.252 579.78 400.956 580.091 403.062 580.091C405.881 580.091 408.206 579.409 410.04 578.045C411.873 576.682 412.79 574.545 412.79 571.636V564.545H412.335C411.941 565.182 411.381 565.97 410.653 566.909C409.941 567.833 408.911 568.659 407.562 569.386C406.229 570.098 404.426 570.455 402.153 570.455C399.335 570.455 396.805 569.788 394.562 568.455C392.335 567.121 390.57 565.182 389.267 562.636C387.979 560.091 387.335 557 387.335 553.364C387.335 549.788 387.964 546.674 389.222 544.023C390.479 541.356 392.229 539.295 394.472 537.841C396.714 536.371 399.305 535.636 402.244 535.636C404.517 535.636 406.32 536.015 407.653 536.773C409.002 537.515 410.032 538.364 410.744 539.318C411.472 540.258 412.032 541.03 412.426 541.636H412.972V536.091H418.153V572C418.153 575 417.472 577.439 416.108 579.318C414.759 581.212 412.941 582.598 410.653 583.477C408.381 584.371 405.85 584.818 403.062 584.818ZM402.881 565.636C405.032 565.636 406.85 565.144 408.335 564.159C409.82 563.174 410.949 561.758 411.722 559.909C412.494 558.061 412.881 555.848 412.881 553.273C412.881 550.758 412.502 548.538 411.744 546.614C410.987 544.689 409.866 543.182 408.381 542.091C406.896 541 405.063 540.455 402.881 540.455C400.608 540.455 398.714 541.03 397.199 542.182C395.699 543.333 394.57 544.879 393.812 546.818C393.07 548.758 392.699 550.909 392.699 553.273C392.699 555.697 393.078 557.841 393.835 559.705C394.608 561.553 395.744 563.008 397.244 564.068C398.759 565.114 400.638 565.636 402.881 565.636ZM427.972 571V536.091H433.335V571H427.972ZM430.699 530.273C429.653 530.273 428.752 529.917 427.994 529.205C427.252 528.492 426.881 527.636 426.881 526.636C426.881 525.636 427.252 524.78 427.994 524.068C428.752 523.356 429.653 523 430.699 523C431.744 523 432.638 523.356 433.381 524.068C434.138 524.78 434.517 525.636 434.517 526.636C434.517 527.636 434.138 528.492 433.381 529.205C432.638 529.917 431.744 530.273 430.699 530.273ZM457.341 571.727C454.068 571.727 451.25 570.955 448.886 569.409C446.523 567.864 444.705 565.735 443.432 563.023C442.159 560.311 441.523 557.212 441.523 553.727C441.523 550.182 442.174 547.053 443.477 544.341C444.795 541.614 446.629 539.485 448.977 537.955C451.341 536.409 454.098 535.636 457.25 535.636C459.705 535.636 461.917 536.091 463.886 537C465.856 537.909 467.47 539.182 468.727 540.818C469.985 542.455 470.765 544.364 471.068 546.545H465.705C465.295 544.955 464.386 543.545 462.977 542.318C461.583 541.076 459.705 540.455 457.341 540.455C455.25 540.455 453.417 541 451.841 542.091C450.28 543.167 449.061 544.689 448.182 546.659C447.318 548.614 446.886 550.909 446.886 553.545C446.886 556.242 447.311 558.591 448.159 560.591C449.023 562.591 450.235 564.144 451.795 565.25C453.371 566.356 455.22 566.909 457.341 566.909C458.735 566.909 460 566.667 461.136 566.182C462.273 565.697 463.235 565 464.023 564.091C464.811 563.182 465.371 562.091 465.705 560.818H471.068C470.765 562.879 470.015 564.735 468.818 566.386C467.636 568.023 466.068 569.326 464.114 570.295C462.174 571.25 459.917 571.727 457.341 571.727ZM511.727 571.636C508.606 571.636 505.848 571.083 503.455 569.977C501.076 568.856 499.22 567.318 497.886 565.364C496.553 563.394 495.894 561.152 495.909 558.636C495.894 556.667 496.28 554.848 497.068 553.182C497.856 551.5 498.932 550.098 500.295 548.977C501.674 547.841 503.212 547.121 504.909 546.818V546.545C502.682 545.97 500.909 544.72 499.591 542.795C498.273 540.856 497.621 538.652 497.636 536.182C497.621 533.818 498.22 531.705 499.432 529.841C500.644 527.977 502.311 526.508 504.432 525.432C506.568 524.356 509 523.818 511.727 523.818C514.424 523.818 516.833 524.356 518.955 525.432C521.076 526.508 522.742 527.977 523.955 529.841C525.182 531.705 525.803 533.818 525.818 536.182C525.803 538.652 525.129 540.856 523.795 542.795C522.477 544.72 520.727 545.97 518.545 546.545V546.818C520.227 547.121 521.742 547.841 523.091 548.977C524.439 550.098 525.515 551.5 526.318 553.182C527.121 554.848 527.53 556.667 527.545 558.636C527.53 561.152 526.848 563.394 525.5 565.364C524.167 567.318 522.311 568.856 519.932 569.977C517.568 571.083 514.833 571.636 511.727 571.636ZM511.727 566.636C513.833 566.636 515.652 566.295 517.182 565.614C518.712 564.932 519.894 563.97 520.727 562.727C521.561 561.485 521.985 560.03 522 558.364C521.985 556.606 521.53 555.053 520.636 553.705C519.742 552.356 518.523 551.295 516.977 550.523C515.447 549.75 513.697 549.364 511.727 549.364C509.742 549.364 507.97 549.75 506.409 550.523C504.864 551.295 503.644 552.356 502.75 553.705C501.871 555.053 501.439 556.606 501.455 558.364C501.439 560.03 501.841 561.485 502.659 562.727C503.492 563.97 504.682 564.932 506.227 565.614C507.773 566.295 509.606 566.636 511.727 566.636ZM511.727 544.545C513.394 544.545 514.871 544.212 516.159 543.545C517.462 542.879 518.485 541.947 519.227 540.75C519.97 539.553 520.348 538.152 520.364 536.545C520.348 534.97 519.977 533.598 519.25 532.432C518.523 531.25 517.515 530.341 516.227 529.705C514.939 529.053 513.439 528.727 511.727 528.727C509.985 528.727 508.462 529.053 507.159 529.705C505.856 530.341 504.848 531.25 504.136 532.432C503.424 533.598 503.076 534.97 503.091 536.545C503.076 538.152 503.432 539.553 504.159 540.75C504.902 541.947 505.924 542.879 507.227 543.545C508.53 544.212 510.03 544.545 511.727 544.545ZM556.347 545.227V550.227H535.983V545.227H556.347ZM566.511 571V524.455H582.784C586.027 524.455 588.701 525.015 590.807 526.136C592.913 527.242 594.481 528.735 595.511 530.614C596.542 532.477 597.057 534.545 597.057 536.818C597.057 538.818 596.701 540.47 595.989 541.773C595.292 543.076 594.367 544.106 593.216 544.864C592.08 545.621 590.845 546.182 589.511 546.545V547C590.936 547.091 592.367 547.591 593.807 548.5C595.246 549.409 596.451 550.712 597.42 552.409C598.39 554.106 598.875 556.182 598.875 558.636C598.875 560.97 598.345 563.068 597.284 564.932C596.223 566.795 594.549 568.273 592.261 569.364C589.973 570.455 586.996 571 583.33 571H566.511ZM572.148 566H583.33C587.011 566 589.625 565.288 591.17 563.864C592.731 562.424 593.511 560.682 593.511 558.636C593.511 557.061 593.11 555.606 592.307 554.273C591.504 552.924 590.36 551.848 588.875 551.045C587.39 550.227 585.633 549.818 583.602 549.818H572.148V566ZM572.148 544.909H582.602C584.299 544.909 585.83 544.576 587.193 543.909C588.572 543.242 589.663 542.303 590.466 541.091C591.284 539.879 591.693 538.455 591.693 536.818C591.693 534.773 590.981 533.038 589.557 531.614C588.133 530.174 585.875 529.455 582.784 529.455H572.148V544.909ZM617.682 571.818C615.47 571.818 613.462 571.402 611.659 570.568C609.856 569.72 608.424 568.5 607.364 566.909C606.303 565.303 605.773 563.364 605.773 561.091C605.773 559.091 606.167 557.47 606.955 556.227C607.742 554.97 608.795 553.985 610.114 553.273C611.432 552.561 612.886 552.03 614.477 551.682C616.083 551.318 617.697 551.03 619.318 550.818C621.439 550.545 623.159 550.341 624.477 550.205C625.811 550.053 626.78 549.803 627.386 549.455C628.008 549.106 628.318 548.5 628.318 547.636V547.455C628.318 545.212 627.705 543.47 626.477 542.227C625.265 540.985 623.424 540.364 620.955 540.364C618.394 540.364 616.386 540.924 614.932 542.045C613.477 543.167 612.455 544.364 611.864 545.636L606.773 543.818C607.682 541.697 608.894 540.045 610.409 538.864C611.939 537.667 613.606 536.833 615.409 536.364C617.227 535.879 619.015 535.636 620.773 535.636C621.894 535.636 623.182 535.773 624.636 536.045C626.106 536.303 627.523 536.841 628.886 537.659C630.265 538.477 631.409 539.712 632.318 541.364C633.227 543.015 633.682 545.227 633.682 548V571H628.318V566.273H628.045C627.682 567.03 627.076 567.841 626.227 568.705C625.379 569.568 624.25 570.303 622.841 570.909C621.432 571.515 619.712 571.818 617.682 571.818ZM618.5 567C620.621 567 622.409 566.583 623.864 565.75C625.333 564.917 626.439 563.841 627.182 562.523C627.939 561.205 628.318 559.818 628.318 558.364V553.455C628.091 553.727 627.591 553.977 626.818 554.205C626.061 554.417 625.182 554.606 624.182 554.773C623.197 554.924 622.235 555.061 621.295 555.182C620.371 555.288 619.621 555.379 619.045 555.455C617.652 555.636 616.348 555.932 615.136 556.341C613.939 556.735 612.97 557.333 612.227 558.136C611.5 558.924 611.136 560 611.136 561.364C611.136 563.227 611.826 564.636 613.205 565.591C614.598 566.53 616.364 567 618.5 567ZM648.835 524.455V571H643.472V524.455H648.835ZM664.023 524.455V571H658.659V524.455H664.023ZM705.938 584.818C703.347 584.818 701.119 584.485 699.256 583.818C697.392 583.167 695.839 582.303 694.597 581.227C693.369 580.167 692.392 579.03 691.665 577.818L695.938 574.818C696.422 575.455 697.036 576.182 697.778 577C698.521 577.833 699.536 578.553 700.824 579.159C702.127 579.78 703.831 580.091 705.938 580.091C708.756 580.091 711.081 579.409 712.915 578.045C714.748 576.682 715.665 574.545 715.665 571.636V564.545H715.21C714.816 565.182 714.256 565.97 713.528 566.909C712.816 567.833 711.786 568.659 710.438 569.386C709.104 570.098 707.301 570.455 705.028 570.455C702.21 570.455 699.68 569.788 697.438 568.455C695.21 567.121 693.445 565.182 692.142 562.636C690.854 560.091 690.21 557 690.21 553.364C690.21 549.788 690.839 546.674 692.097 544.023C693.354 541.356 695.104 539.295 697.347 537.841C699.589 536.371 702.18 535.636 705.119 535.636C707.392 535.636 709.195 536.015 710.528 536.773C711.877 537.515 712.907 538.364 713.619 539.318C714.347 540.258 714.907 541.03 715.301 541.636H715.847V536.091H721.028V572C721.028 575 720.347 577.439 718.983 579.318C717.634 581.212 715.816 582.598 713.528 583.477C711.256 584.371 708.725 584.818 705.938 584.818ZM705.756 565.636C707.907 565.636 709.725 565.144 711.21 564.159C712.695 563.174 713.824 561.758 714.597 559.909C715.369 558.061 715.756 555.848 715.756 553.273C715.756 550.758 715.377 548.538 714.619 546.614C713.862 544.689 712.741 543.182 711.256 542.091C709.771 541 707.938 540.455 705.756 540.455C703.483 540.455 701.589 541.03 700.074 542.182C698.574 543.333 697.445 544.879 696.688 546.818C695.945 548.758 695.574 550.909 695.574 553.273C695.574 555.697 695.953 557.841 696.71 559.705C697.483 561.553 698.619 563.008 700.119 564.068C701.634 565.114 703.513 565.636 705.756 565.636ZM741.119 571.818C738.907 571.818 736.9 571.402 735.097 570.568C733.294 569.72 731.862 568.5 730.801 566.909C729.741 565.303 729.21 563.364 729.21 561.091C729.21 559.091 729.604 557.47 730.392 556.227C731.18 554.97 732.233 553.985 733.551 553.273C734.869 552.561 736.324 552.03 737.915 551.682C739.521 551.318 741.134 551.03 742.756 550.818C744.877 550.545 746.597 550.341 747.915 550.205C749.248 550.053 750.218 549.803 750.824 549.455C751.445 549.106 751.756 548.5 751.756 547.636V547.455C751.756 545.212 751.142 543.47 749.915 542.227C748.703 540.985 746.862 540.364 744.392 540.364C741.831 540.364 739.824 540.924 738.369 542.045C736.915 543.167 735.892 544.364 735.301 545.636L730.21 543.818C731.119 541.697 732.331 540.045 733.847 538.864C735.377 537.667 737.044 536.833 738.847 536.364C740.665 535.879 742.453 535.636 744.21 535.636C745.331 535.636 746.619 535.773 748.074 536.045C749.544 536.303 750.96 536.841 752.324 537.659C753.703 538.477 754.847 539.712 755.756 541.364C756.665 543.015 757.119 545.227 757.119 548V571H751.756V566.273H751.483C751.119 567.03 750.513 567.841 749.665 568.705C748.816 569.568 747.688 570.303 746.278 570.909C744.869 571.515 743.15 571.818 741.119 571.818ZM741.938 567C744.059 567 745.847 566.583 747.301 565.75C748.771 564.917 749.877 563.841 750.619 562.523C751.377 561.205 751.756 559.818 751.756 558.364V553.455C751.528 553.727 751.028 553.977 750.256 554.205C749.498 554.417 748.619 554.606 747.619 554.773C746.634 554.924 745.672 555.061 744.733 555.182C743.809 555.288 743.059 555.379 742.483 555.455C741.089 555.636 739.786 555.932 738.574 556.341C737.377 556.735 736.407 557.333 735.665 558.136C734.938 558.924 734.574 560 734.574 561.364C734.574 563.227 735.263 564.636 736.642 565.591C738.036 566.53 739.801 567 741.938 567ZM766.909 571V536.091H772.091V541.545H772.545C773.273 539.682 774.447 538.235 776.068 537.205C777.689 536.159 779.636 535.636 781.909 535.636C784.212 535.636 786.129 536.159 787.659 537.205C789.205 538.235 790.409 539.682 791.273 541.545H791.636C792.53 539.742 793.871 538.311 795.659 537.25C797.447 536.174 799.591 535.636 802.091 535.636C805.212 535.636 807.765 536.614 809.75 538.568C811.735 540.508 812.727 543.53 812.727 547.636V571H807.364V547.636C807.364 545.061 806.659 543.22 805.25 542.114C803.841 541.008 802.182 540.455 800.273 540.455C797.818 540.455 795.917 541.197 794.568 542.682C793.22 544.152 792.545 546.015 792.545 548.273V571H787.091V547.091C787.091 545.106 786.447 543.508 785.159 542.295C783.871 541.068 782.212 540.455 780.182 540.455C778.788 540.455 777.485 540.826 776.273 541.568C775.076 542.311 774.106 543.341 773.364 544.659C772.636 545.962 772.273 547.47 772.273 549.182V571H766.909ZM837.17 571.727C833.807 571.727 830.905 570.985 828.466 569.5C826.042 568 824.17 565.909 822.852 563.227C821.549 560.53 820.898 557.394 820.898 553.818C820.898 550.242 821.549 547.091 822.852 544.364C824.17 541.621 826.004 539.485 828.352 537.955C830.716 536.409 833.473 535.636 836.625 535.636C838.443 535.636 840.239 535.939 842.011 536.545C843.784 537.152 845.398 538.136 846.852 539.5C848.307 540.848 849.466 542.636 850.33 544.864C851.193 547.091 851.625 549.833 851.625 553.091V555.364H824.716V550.727H846.17C846.17 548.758 845.777 547 844.989 545.455C844.216 543.909 843.11 542.689 841.67 541.795C840.246 540.902 838.564 540.455 836.625 540.455C834.489 540.455 832.64 540.985 831.08 542.045C829.534 543.091 828.345 544.455 827.511 546.136C826.678 547.818 826.261 549.621 826.261 551.545V554.636C826.261 557.273 826.716 559.508 827.625 561.341C828.549 563.159 829.83 564.545 831.466 565.5C833.102 566.439 835.004 566.909 837.17 566.909C838.58 566.909 839.852 566.712 840.989 566.318C842.14 565.909 843.133 565.303 843.966 564.5C844.799 563.682 845.443 562.667 845.898 561.455L851.08 562.909C850.534 564.667 849.617 566.212 848.33 567.545C847.042 568.864 845.451 569.894 843.557 570.636C841.663 571.364 839.534 571.727 837.17 571.727Z" fill="#EBDDD5"/>
<path d="M1102.45 539C1101.95 537.47 1101.3 536.098 1100.48 534.886C1099.67 533.659 1098.71 532.614 1097.59 531.75C1096.48 530.886 1095.23 530.227 1093.82 529.773C1092.41 529.318 1090.86 529.091 1089.18 529.091C1086.42 529.091 1083.92 529.803 1081.66 531.227C1079.4 532.652 1077.61 534.75 1076.27 537.523C1074.94 540.295 1074.27 543.697 1074.27 547.727C1074.27 551.758 1074.95 555.159 1076.3 557.932C1077.64 560.705 1079.47 562.803 1081.77 564.227C1084.08 565.652 1086.67 566.364 1089.55 566.364C1092.21 566.364 1094.56 565.795 1096.59 564.659C1098.64 563.508 1100.23 561.886 1101.36 559.795C1102.52 557.689 1103.09 555.212 1103.09 552.364L1104.82 552.727H1090.82V547.727H1108.55V552.727C1108.55 556.561 1107.73 559.894 1106.09 562.727C1104.47 565.561 1102.23 567.758 1099.36 569.318C1096.52 570.864 1093.24 571.636 1089.55 571.636C1085.42 571.636 1081.8 570.667 1078.68 568.727C1075.58 566.788 1073.15 564.03 1071.41 560.455C1069.68 556.879 1068.82 552.636 1068.82 547.727C1068.82 544.045 1069.31 540.735 1070.3 537.795C1071.3 534.841 1072.7 532.326 1074.52 530.25C1076.34 528.174 1078.49 526.583 1080.98 525.477C1083.46 524.371 1086.2 523.818 1089.18 523.818C1091.64 523.818 1093.92 524.189 1096.05 524.932C1098.18 525.659 1100.08 526.697 1101.75 528.045C1103.43 529.379 1104.83 530.977 1105.95 532.841C1107.08 534.689 1107.85 536.742 1108.27 539H1102.45ZM1132.11 571.727C1128.74 571.727 1125.84 570.985 1123.4 569.5C1120.98 568 1119.11 565.909 1117.79 563.227C1116.49 560.53 1115.84 557.394 1115.84 553.818C1115.84 550.242 1116.49 547.091 1117.79 544.364C1119.11 541.621 1120.94 539.485 1123.29 537.955C1125.65 536.409 1128.41 535.636 1131.56 535.636C1133.38 535.636 1135.18 535.939 1136.95 536.545C1138.72 537.152 1140.34 538.136 1141.79 539.5C1143.24 540.848 1144.4 542.636 1145.27 544.864C1146.13 547.091 1146.56 549.833 1146.56 553.091V555.364H1119.65V550.727H1141.11C1141.11 548.758 1140.71 547 1139.93 545.455C1139.15 543.909 1138.05 542.689 1136.61 541.795C1135.18 540.902 1133.5 540.455 1131.56 540.455C1129.43 540.455 1127.58 540.985 1126.02 542.045C1124.47 543.091 1123.28 544.455 1122.45 546.136C1121.62 547.818 1121.2 549.621 1121.2 551.545V554.636C1121.2 557.273 1121.65 559.508 1122.56 561.341C1123.49 563.159 1124.77 564.545 1126.4 565.5C1128.04 566.439 1129.94 566.909 1132.11 566.909C1133.52 566.909 1134.79 566.712 1135.93 566.318C1137.08 565.909 1138.07 565.303 1138.9 564.5C1139.74 563.682 1140.38 562.667 1140.84 561.455L1146.02 562.909C1145.47 564.667 1144.55 566.212 1143.27 567.545C1141.98 568.864 1140.39 569.894 1138.49 570.636C1136.6 571.364 1134.47 571.727 1132.11 571.727ZM1169.9 536.091V540.636H1151.81V536.091H1169.9ZM1157.09 527.727H1162.45V561C1162.45 562.515 1162.67 563.652 1163.11 564.409C1163.56 565.152 1164.14 565.652 1164.84 565.909C1165.55 566.152 1166.3 566.273 1167.09 566.273C1167.68 566.273 1168.16 566.242 1168.54 566.182C1168.92 566.106 1169.22 566.045 1169.45 566L1170.54 570.818C1170.18 570.955 1169.67 571.091 1169.02 571.227C1168.37 571.379 1167.54 571.455 1166.54 571.455C1165.02 571.455 1163.54 571.129 1162.09 570.477C1160.65 569.826 1159.45 568.833 1158.49 567.5C1157.55 566.167 1157.09 564.485 1157.09 562.455V527.727ZM1201.34 550V571H1195.97V524.455H1201.34V541.545H1201.79C1202.61 539.742 1203.84 538.311 1205.47 537.25C1207.12 536.174 1209.32 535.636 1212.06 535.636C1214.44 535.636 1216.52 536.114 1218.31 537.068C1220.1 538.008 1221.49 539.455 1222.47 541.409C1223.47 543.348 1223.97 545.818 1223.97 548.818V571H1218.61V549.182C1218.61 546.409 1217.89 544.265 1216.45 542.75C1215.02 541.22 1213.05 540.455 1210.52 540.455C1208.76 540.455 1207.18 540.826 1205.79 541.568C1204.41 542.311 1203.32 543.394 1202.52 544.818C1201.73 546.242 1201.34 547.97 1201.34 550ZM1248.42 571.727C1245.06 571.727 1242.16 570.985 1239.72 569.5C1237.29 568 1235.42 565.909 1234.1 563.227C1232.8 560.53 1232.15 557.394 1232.15 553.818C1232.15 550.242 1232.8 547.091 1234.1 544.364C1235.42 541.621 1237.25 539.485 1239.6 537.955C1241.97 536.409 1244.72 535.636 1247.88 535.636C1249.69 535.636 1251.49 535.939 1253.26 536.545C1255.03 537.152 1256.65 538.136 1258.1 539.5C1259.56 540.848 1260.72 542.636 1261.58 544.864C1262.44 547.091 1262.88 549.833 1262.88 553.091V555.364H1235.97V550.727H1257.42C1257.42 548.758 1257.03 547 1256.24 545.455C1255.47 543.909 1254.36 542.689 1252.92 541.795C1251.5 540.902 1249.81 540.455 1247.88 540.455C1245.74 540.455 1243.89 540.985 1242.33 542.045C1240.78 543.091 1239.59 544.455 1238.76 546.136C1237.93 547.818 1237.51 549.621 1237.51 551.545V554.636C1237.51 557.273 1237.97 559.508 1238.88 561.341C1239.8 563.159 1241.08 564.545 1242.72 565.5C1244.35 566.439 1246.25 566.909 1248.42 566.909C1249.83 566.909 1251.1 566.712 1252.24 566.318C1253.39 565.909 1254.38 565.303 1255.22 564.5C1256.05 563.682 1256.69 562.667 1257.15 561.455L1262.33 562.909C1261.78 564.667 1260.87 566.212 1259.58 567.545C1258.29 568.864 1256.7 569.894 1254.81 570.636C1252.91 571.364 1250.78 571.727 1248.42 571.727ZM1276.4 524.455V571H1271.03V524.455H1276.4ZM1286.22 584.091V536.091H1291.4V541.636H1292.04C1292.43 541.03 1292.98 540.258 1293.68 539.318C1294.39 538.364 1295.4 537.515 1296.72 536.773C1298.05 536.015 1299.86 535.636 1302.13 535.636C1305.07 535.636 1307.66 536.371 1309.9 537.841C1312.15 539.311 1313.9 541.394 1315.15 544.091C1316.41 546.788 1317.04 549.97 1317.04 553.636C1317.04 557.333 1316.41 560.538 1315.15 563.25C1313.9 565.947 1312.15 568.038 1309.93 569.523C1307.7 570.992 1305.13 571.727 1302.22 571.727C1299.98 571.727 1298.18 571.356 1296.84 570.614C1295.49 569.856 1294.45 569 1293.72 568.045C1292.99 567.076 1292.43 566.273 1292.04 565.636H1291.59V584.091H1286.22ZM1291.49 553.545C1291.49 556.182 1291.88 558.508 1292.65 560.523C1293.43 562.523 1294.55 564.091 1296.04 565.227C1297.52 566.348 1299.34 566.909 1301.49 566.909C1303.74 566.909 1305.61 566.318 1307.11 565.136C1308.62 563.939 1309.76 562.333 1310.52 560.318C1311.29 558.288 1311.68 556.03 1311.68 553.545C1311.68 551.091 1311.3 548.879 1310.54 546.909C1309.8 544.924 1308.67 543.356 1307.15 542.205C1305.65 541.038 1303.77 540.455 1301.49 540.455C1299.31 540.455 1297.48 541.008 1295.99 542.114C1294.51 543.205 1293.39 544.735 1292.63 546.705C1291.87 548.659 1291.49 550.939 1291.49 553.545ZM1356.4 571.727C1353.49 571.727 1350.93 570.992 1348.7 569.523C1346.47 568.038 1344.73 565.947 1343.47 563.25C1342.21 560.538 1341.59 557.333 1341.59 553.636C1341.59 549.97 1342.21 546.788 1343.47 544.091C1344.73 541.394 1346.48 539.311 1348.72 537.841C1350.96 536.371 1353.55 535.636 1356.49 535.636C1358.77 535.636 1360.56 536.015 1361.88 536.773C1363.21 537.515 1364.23 538.364 1364.93 539.318C1365.64 540.258 1366.19 541.03 1366.59 541.636H1367.04V524.455H1372.4V571H1367.22V565.636H1366.59C1366.19 566.273 1365.63 567.076 1364.9 568.045C1364.18 569 1363.14 569.856 1361.79 570.614C1360.44 571.356 1358.65 571.727 1356.4 571.727ZM1357.13 566.909C1359.28 566.909 1361.1 566.348 1362.59 565.227C1364.07 564.091 1365.2 562.523 1365.97 560.523C1366.74 558.508 1367.13 556.182 1367.13 553.545C1367.13 550.939 1366.75 548.659 1365.99 546.705C1365.24 544.735 1364.12 543.205 1362.63 542.114C1361.15 541.008 1359.31 540.455 1357.13 540.455C1354.86 540.455 1352.96 541.038 1351.45 542.205C1349.95 543.356 1348.82 544.924 1348.06 546.909C1347.32 548.879 1346.95 551.091 1346.95 553.545C1346.95 556.03 1347.33 558.288 1348.09 560.318C1348.86 562.333 1349.99 563.939 1351.49 565.136C1353.01 566.318 1354.89 566.909 1357.13 566.909ZM1397.61 571.727C1394.24 571.727 1391.34 570.985 1388.9 569.5C1386.48 568 1384.61 565.909 1383.29 563.227C1381.99 560.53 1381.34 557.394 1381.34 553.818C1381.34 550.242 1381.99 547.091 1383.29 544.364C1384.61 541.621 1386.44 539.485 1388.79 537.955C1391.15 536.409 1393.91 535.636 1397.06 535.636C1398.88 535.636 1400.68 535.939 1402.45 536.545C1404.22 537.152 1405.84 538.136 1407.29 539.5C1408.74 540.848 1409.9 542.636 1410.77 544.864C1411.63 547.091 1412.06 549.833 1412.06 553.091V555.364H1385.15V550.727H1406.61C1406.61 548.758 1406.21 547 1405.43 545.455C1404.65 543.909 1403.55 542.689 1402.11 541.795C1400.68 540.902 1399 540.455 1397.06 540.455C1394.93 540.455 1393.08 540.985 1391.52 542.045C1389.97 543.091 1388.78 544.455 1387.95 546.136C1387.12 547.818 1386.7 549.621 1386.7 551.545V554.636C1386.7 557.273 1387.15 559.508 1388.06 561.341C1388.99 563.159 1390.27 564.545 1391.9 565.5C1393.54 566.439 1395.44 566.909 1397.61 566.909C1399.02 566.909 1400.29 566.712 1401.43 566.318C1402.58 565.909 1403.57 565.303 1404.4 564.5C1405.24 563.682 1405.88 562.667 1406.34 561.455L1411.52 562.909C1410.97 564.667 1410.05 566.212 1408.77 567.545C1407.48 568.864 1405.89 569.894 1403.99 570.636C1402.1 571.364 1399.97 571.727 1397.61 571.727ZM1420.95 571V524.455H1426.31V541.636H1426.77C1427.16 541.03 1427.71 540.258 1428.4 539.318C1429.12 538.364 1430.13 537.515 1431.45 536.773C1432.78 536.015 1434.59 535.636 1436.86 535.636C1439.8 535.636 1442.39 536.371 1444.63 537.841C1446.87 539.311 1448.62 541.394 1449.88 544.091C1451.14 546.788 1451.77 549.97 1451.77 553.636C1451.77 557.333 1451.14 560.538 1449.88 563.25C1448.62 565.947 1446.88 568.038 1444.65 569.523C1442.43 570.992 1439.86 571.727 1436.95 571.727C1434.71 571.727 1432.91 571.356 1431.56 570.614C1430.21 569.856 1429.18 569 1428.45 568.045C1427.72 567.076 1427.16 566.273 1426.77 565.636H1426.13V571H1420.95ZM1426.22 553.545C1426.22 556.182 1426.61 558.508 1427.38 560.523C1428.15 562.523 1429.28 564.091 1430.77 565.227C1432.25 566.348 1434.07 566.909 1436.22 566.909C1438.46 566.909 1440.34 566.318 1441.84 565.136C1443.35 563.939 1444.49 562.333 1445.24 560.318C1446.02 558.288 1446.4 556.03 1446.4 553.545C1446.4 551.091 1446.02 548.879 1445.27 546.909C1444.52 544.924 1443.4 543.356 1441.88 542.205C1440.38 541.038 1438.49 540.455 1436.22 540.455C1434.04 540.455 1432.21 541.008 1430.72 542.114C1429.24 543.205 1428.12 544.735 1427.36 546.705C1426.6 548.659 1426.22 550.939 1426.22 553.545ZM1481.97 556.727V536.091H1487.34V571H1481.97V565.091H1481.61C1480.79 566.864 1479.52 568.371 1477.79 569.614C1476.06 570.841 1473.88 571.455 1471.24 571.455C1469.06 571.455 1467.12 570.977 1465.43 570.023C1463.73 569.053 1462.4 567.598 1461.43 565.659C1460.46 563.705 1459.97 561.242 1459.97 558.273V536.091H1465.34V557.909C1465.34 560.455 1466.05 562.485 1467.47 564C1468.91 565.515 1470.74 566.273 1472.97 566.273C1474.3 566.273 1475.66 565.932 1477.04 565.25C1478.43 564.568 1479.6 563.523 1480.54 562.114C1481.49 560.705 1481.97 558.909 1481.97 556.727ZM1511.25 584.818C1508.66 584.818 1506.43 584.485 1504.57 583.818C1502.7 583.167 1501.15 582.303 1499.91 581.227C1498.68 580.167 1497.7 579.03 1496.98 577.818L1501.25 574.818C1501.73 575.455 1502.35 576.182 1503.09 577C1503.83 577.833 1504.85 578.553 1506.14 579.159C1507.44 579.78 1509.14 580.091 1511.25 580.091C1514.07 580.091 1516.39 579.409 1518.23 578.045C1520.06 576.682 1520.98 574.545 1520.98 571.636V564.545H1520.52C1520.13 565.182 1519.57 565.97 1518.84 566.909C1518.13 567.833 1517.1 568.659 1515.75 569.386C1514.42 570.098 1512.61 570.455 1510.34 570.455C1507.52 570.455 1504.99 569.788 1502.75 568.455C1500.52 567.121 1498.76 565.182 1497.45 562.636C1496.17 560.091 1495.52 557 1495.52 553.364C1495.52 549.788 1496.15 546.674 1497.41 544.023C1498.67 541.356 1500.42 539.295 1502.66 537.841C1504.9 536.371 1507.49 535.636 1510.43 535.636C1512.7 535.636 1514.51 536.015 1515.84 536.773C1517.19 537.515 1518.22 538.364 1518.93 539.318C1519.66 540.258 1520.22 541.03 1520.61 541.636H1521.16V536.091H1526.34V572C1526.34 575 1525.66 577.439 1524.3 579.318C1522.95 581.212 1521.13 582.598 1518.84 583.477C1516.57 584.371 1514.04 584.818 1511.25 584.818ZM1511.07 565.636C1513.22 565.636 1515.04 565.144 1516.52 564.159C1518.01 563.174 1519.14 561.758 1519.91 559.909C1520.68 558.061 1521.07 555.848 1521.07 553.273C1521.07 550.758 1520.69 548.538 1519.93 546.614C1519.17 544.689 1518.05 543.182 1516.57 542.091C1515.08 541 1513.25 540.455 1511.07 540.455C1508.8 540.455 1506.9 541.03 1505.39 542.182C1503.89 543.333 1502.76 544.879 1502 546.818C1501.26 548.758 1500.89 550.909 1500.89 553.273C1500.89 555.697 1501.27 557.841 1502.02 559.705C1502.8 561.553 1503.93 563.008 1505.43 564.068C1506.95 565.114 1508.83 565.636 1511.07 565.636ZM1550.25 584.818C1547.66 584.818 1545.43 584.485 1543.57 583.818C1541.7 583.167 1540.15 582.303 1538.91 581.227C1537.68 580.167 1536.7 579.03 1535.98 577.818L1540.25 574.818C1540.73 575.455 1541.35 576.182 1542.09 577C1542.83 577.833 1543.85 578.553 1545.14 579.159C1546.44 579.78 1548.14 580.091 1550.25 580.091C1553.07 580.091 1555.39 579.409 1557.23 578.045C1559.06 576.682 1559.98 574.545 1559.98 571.636V564.545H1559.52C1559.13 565.182 1558.57 565.97 1557.84 566.909C1557.13 567.833 1556.1 568.659 1554.75 569.386C1553.42 570.098 1551.61 570.455 1549.34 570.455C1546.52 570.455 1543.99 569.788 1541.75 568.455C1539.52 567.121 1537.76 565.182 1536.45 562.636C1535.17 560.091 1534.52 557 1534.52 553.364C1534.52 549.788 1535.15 546.674 1536.41 544.023C1537.67 541.356 1539.42 539.295 1541.66 537.841C1543.9 536.371 1546.49 535.636 1549.43 535.636C1551.7 535.636 1553.51 536.015 1554.84 536.773C1556.19 537.515 1557.22 538.364 1557.93 539.318C1558.66 540.258 1559.22 541.03 1559.61 541.636H1560.16V536.091H1565.34V572C1565.34 575 1564.66 577.439 1563.3 579.318C1561.95 581.212 1560.13 582.598 1557.84 583.477C1555.57 584.371 1553.04 584.818 1550.25 584.818ZM1550.07 565.636C1552.22 565.636 1554.04 565.144 1555.52 564.159C1557.01 563.174 1558.14 561.758 1558.91 559.909C1559.68 558.061 1560.07 555.848 1560.07 553.273C1560.07 550.758 1559.69 548.538 1558.93 546.614C1558.17 544.689 1557.05 543.182 1555.57 542.091C1554.08 541 1552.25 540.455 1550.07 540.455C1547.8 540.455 1545.9 541.03 1544.39 542.182C1542.89 543.333 1541.76 544.879 1541 546.818C1540.26 548.758 1539.89 550.909 1539.89 553.273C1539.89 555.697 1540.27 557.841 1541.02 559.705C1541.8 561.553 1542.93 563.008 1544.43 564.068C1545.95 565.114 1547.83 565.636 1550.07 565.636ZM1575.16 571V536.091H1580.52V571H1575.16ZM1577.89 530.273C1576.84 530.273 1575.94 529.917 1575.18 529.205C1574.44 528.492 1574.07 527.636 1574.07 526.636C1574.07 525.636 1574.44 524.78 1575.18 524.068C1575.94 523.356 1576.84 523 1577.89 523C1578.93 523 1579.83 523.356 1580.57 524.068C1581.33 524.78 1581.7 525.636 1581.7 526.636C1581.7 527.636 1581.33 528.492 1580.57 529.205C1579.83 529.917 1578.93 530.273 1577.89 530.273ZM1595.71 550V571H1590.35V536.091H1595.53V541.545H1595.98C1596.8 539.773 1598.04 538.348 1599.71 537.273C1601.38 536.182 1603.53 535.636 1606.16 535.636C1608.53 535.636 1610.6 536.121 1612.37 537.091C1614.14 538.045 1615.52 539.5 1616.51 541.455C1617.49 543.394 1617.98 545.848 1617.98 548.818V571H1612.62V549.182C1612.62 546.439 1611.91 544.303 1610.48 542.773C1609.06 541.227 1607.1 540.455 1604.62 540.455C1602.91 540.455 1601.38 540.826 1600.03 541.568C1598.7 542.311 1597.64 543.394 1596.87 544.818C1596.1 546.242 1595.71 547.97 1595.71 550ZM1641.88 584.818C1639.28 584.818 1637.06 584.485 1635.19 583.818C1633.33 583.167 1631.78 582.303 1630.53 581.227C1629.31 580.167 1628.33 579.03 1627.6 577.818L1631.88 574.818C1632.36 575.455 1632.97 576.182 1633.72 577C1634.46 577.833 1635.47 578.553 1636.76 579.159C1638.06 579.78 1639.77 580.091 1641.88 580.091C1644.69 580.091 1647.02 579.409 1648.85 578.045C1650.69 576.682 1651.6 574.545 1651.6 571.636V564.545H1651.15C1650.75 565.182 1650.19 565.97 1649.47 566.909C1648.75 567.833 1647.72 568.659 1646.38 569.386C1645.04 570.098 1643.24 570.455 1640.97 570.455C1638.15 570.455 1635.62 569.788 1633.38 568.455C1631.15 567.121 1629.38 565.182 1628.08 562.636C1626.79 560.091 1626.15 557 1626.15 553.364C1626.15 549.788 1626.78 546.674 1628.03 544.023C1629.29 541.356 1631.04 539.295 1633.28 537.841C1635.53 536.371 1638.12 535.636 1641.06 535.636C1643.33 535.636 1645.13 536.015 1646.47 536.773C1647.81 537.515 1648.84 538.364 1649.56 539.318C1650.28 540.258 1650.84 541.03 1651.24 541.636H1651.78V536.091H1656.97V572C1656.97 575 1656.28 577.439 1654.92 579.318C1653.57 581.212 1651.75 582.598 1649.47 583.477C1647.19 584.371 1644.66 584.818 1641.88 584.818ZM1641.69 565.636C1643.84 565.636 1645.66 565.144 1647.15 564.159C1648.63 563.174 1649.76 561.758 1650.53 559.909C1651.31 558.061 1651.69 555.848 1651.69 553.273C1651.69 550.758 1651.31 548.538 1650.56 546.614C1649.8 544.689 1648.68 543.182 1647.19 542.091C1645.71 541 1643.88 540.455 1641.69 540.455C1639.42 540.455 1637.53 541.03 1636.01 542.182C1634.51 543.333 1633.38 544.879 1632.62 546.818C1631.88 548.758 1631.51 550.909 1631.51 553.273C1631.51 555.697 1631.89 557.841 1632.65 559.705C1633.42 561.553 1634.56 563.008 1636.06 564.068C1637.57 565.114 1639.45 565.636 1641.69 565.636ZM1673.78 557.909V557.636C1673.81 554.742 1674.12 552.439 1674.69 550.727C1675.27 549.015 1676.09 547.629 1677.15 546.568C1678.21 545.508 1679.48 544.53 1680.97 543.636C1681.86 543.091 1682.66 542.447 1683.38 541.705C1684.09 540.947 1684.65 540.076 1685.06 539.091C1685.48 538.106 1685.69 537.015 1685.69 535.818C1685.69 534.333 1685.34 533.045 1684.65 531.955C1683.95 530.864 1683.02 530.023 1681.85 529.432C1680.69 528.841 1679.39 528.545 1677.97 528.545C1676.72 528.545 1675.53 528.803 1674.38 529.318C1673.22 529.833 1672.26 530.644 1671.49 531.75C1670.72 532.856 1670.27 534.303 1670.15 536.091H1664.42C1664.54 533.515 1665.21 531.311 1666.42 529.477C1667.65 527.644 1669.26 526.242 1671.26 525.273C1673.28 524.303 1675.51 523.818 1677.97 523.818C1680.63 523.818 1682.95 524.348 1684.92 525.409C1686.91 526.47 1688.44 527.924 1689.51 529.773C1690.6 531.621 1691.15 533.727 1691.15 536.091C1691.15 537.758 1690.89 539.265 1690.38 540.614C1689.88 541.962 1689.15 543.167 1688.19 544.227C1687.25 545.288 1686.12 546.227 1684.78 547.045C1683.45 547.879 1682.38 548.758 1681.58 549.682C1680.78 550.591 1680.19 551.674 1679.83 552.932C1679.47 554.189 1679.27 555.758 1679.24 557.636V557.909H1673.78ZM1676.69 571.364C1675.57 571.364 1674.61 570.962 1673.81 570.159C1673 569.356 1672.6 568.394 1672.6 567.273C1672.6 566.152 1673 565.189 1673.81 564.386C1674.61 563.583 1675.57 563.182 1676.69 563.182C1677.81 563.182 1678.78 563.583 1679.58 564.386C1680.38 565.189 1680.78 566.152 1680.78 567.273C1680.78 568.015 1680.59 568.697 1680.22 569.318C1679.85 569.939 1679.36 570.439 1678.74 570.818C1678.13 571.182 1677.45 571.364 1676.69 571.364Z" fill="#EBDDD5"/>
<path d="M1378.52 988.581C1377.09 990.553 1375.6 992.106 1374 993.265C1360.46 1009.45 1327.97 1049.63 1327.97 1049.63C1309.12 1047.59 1304.04 1042.72 1304.57 1027.58C1284.17 1027.58 1281.75 1025.07 1293.32 1012.58C1263.32 1015.88 1266.69 1009.6 1288.52 996.531C1216.22 1001.33 1261.7 950.702 1307.87 972.531C1347.96 991.483 1363.48 1000.9 1374 993.265C1379.09 987.192 1381.5 984.499 1378.52 988.581Z" fill="url(#paint1_linear_1_2)" stroke="#59260A" stroke-width="1.5"/>
<path d="M1409.72 1146.23C1322.57 1137.38 1304.42 1152.83 1343.72 1149.38L1409.72 1146.23Z" fill="url(#paint2_linear_1_2)" stroke="#B25622" stroke-width="1.5"/>
<path d="M1345.67 1149.38C1390.07 1141.28 1429.52 1143.08 1429.52 1143.08L1454.57 1149.38C1454.57 1149.38 1388.57 1165.58 1347.62 1165.58C1306.67 1165.58 1301.27 1157.48 1345.67 1149.38Z" fill="url(#paint3_linear_1_2)" stroke="#AA8239" stroke-width="1.5"/>
<path d="M1346.87 1165.13C1306.99 1179.62 1369.22 1178.33 1455.77 1152.08L1346.87 1165.13Z" fill="url(#paint4_linear_1_2)" stroke="#B25622" stroke-width="1.5"/>
<path d="M1437.17 1165.88C1366.52 1160.18 1347.92 1186.73 1386.92 1175.93L1437.17 1165.88Z" fill="url(#paint5_linear_1_2)" stroke="#B2661B" stroke-width="1.5"/>
<path d="M1387.82 1175.93C1431.02 1160.03 1433.27 1166.78 1433.27 1166.78L1451.57 1175.93C1451.57 1175.93 1428.92 1199.03 1389.47 1200.68C1350.02 1202.33 1344.62 1191.83 1387.82 1175.93Z" fill="url(#paint6_linear_1_2)" stroke="#B25622" stroke-width="1.5"/>
<path d="M1467.62 1168.28C1457.09 1156.62 1455.15 1149.34 1456.52 1135.43H1430.57C1434.59 1161.87 1432.02 1176.48 1391.57 1200.98C1355.7 1216.86 1351.37 1227.38 1440.62 1214.18C1529.87 1200.98 1525.21 1172.61 1467.62 1168.28Z" fill="url(#paint7_linear_1_2)" stroke="#B2661B" stroke-width="1.5"/>
<path fill-rule="evenodd" clip-rule="evenodd" d="M1431.62 1002.98C1421.42 991.731 1421.56 962.832 1437.62 937.431L1397.57 941.481L1374.32 976.611C1374.17 976.748 1374.02 976.888 1373.87 977.031C1369.75 980.925 1365.54 984.713 1361.36 988.47C1335.27 1011.92 1310.53 1034.17 1317.77 1073.48C1318.6 1063.39 1319.28 1059.73 1320.92 1057.43L1320.93 1057.42C1326.39 1127.78 1350.48 1140.7 1421.42 1128.38C1426.67 1114.5 1431.44 1088.96 1434.03 1064.43C1449.83 1096.27 1479.92 1149.31 1499.42 1135.88C1526.87 1116.98 1552.59 1043 1512.32 1005.83C1512.76 1027.8 1502.24 1037.16 1496.18 1042.55C1494.84 1043.74 1493.72 1044.73 1492.99 1045.62C1495.25 1041.87 1500.58 1030.51 1489.07 1025.48C1495.46 1039.77 1480.26 1048.44 1437.17 1064.48L1434.47 1060.02C1437.01 1033.3 1436.81 1008.7 1431.62 1002.98Z" fill="url(#paint8_linear_1_2)"/>
<path d="M1437.62 937.431L1438.26 937.832L1439.08 936.53L1437.55 936.685L1437.62 937.431ZM1431.62 1002.98L1432.18 1002.48L1431.62 1002.98ZM1397.57 941.481L1397.5 940.735L1397.14 940.771L1396.95 941.067L1397.57 941.481ZM1374.32 976.611L1374.83 977.159L1374.9 977.099L1374.95 977.025L1374.32 976.611ZM1373.87 977.031L1373.36 976.486L1373.36 976.486L1373.87 977.031ZM1361.36 988.47L1360.86 987.912L1361.36 988.47ZM1317.77 1073.48L1317.04 1073.62L1318.52 1073.54L1317.77 1073.48ZM1320.92 1057.43L1320.33 1056.98L1320.32 1056.99L1320.31 1056.99L1320.92 1057.43ZM1320.93 1057.42L1321.68 1057.36L1321.53 1055.4L1320.34 1056.96L1320.93 1057.42ZM1421.42 1128.38L1421.55 1129.12L1421.97 1129.05L1422.12 1128.65L1421.42 1128.38ZM1434.03 1064.43L1434.7 1064.09L1433.55 1061.78L1433.28 1064.35L1434.03 1064.43ZM1499.42 1135.88L1499 1135.26L1499.42 1135.88ZM1512.32 1005.83L1512.83 1005.28L1511.54 1004.09L1511.57 1005.85L1512.32 1005.83ZM1496.18 1042.55L1496.67 1043.11L1496.18 1042.55ZM1492.99 1045.62L1492.34 1045.24L1493.57 1046.1L1492.99 1045.62ZM1489.07 1025.48L1489.37 1024.79L1487.6 1024.02L1488.39 1025.79L1489.07 1025.48ZM1437.17 1064.48L1436.53 1064.87L1436.85 1065.4L1437.43 1065.18L1437.17 1064.48ZM1434.47 1060.02L1433.72 1059.95L1433.7 1060.2L1433.83 1060.41L1434.47 1060.02ZM1436.99 937.03C1428.89 949.835 1424.8 963.531 1424.03 975.464C1423.25 987.364 1425.77 997.644 1431.07 1003.48L1432.18 1002.48C1427.27 997.068 1424.76 987.274 1425.52 975.561C1426.28 963.882 1430.29 950.428 1438.26 937.832L1436.99 937.03ZM1397.65 942.227L1437.7 938.177L1437.55 936.685L1397.5 940.735L1397.65 942.227ZM1374.95 977.025L1398.2 941.895L1396.95 941.067L1373.69 976.197L1374.95 977.025ZM1374.39 977.576C1374.54 977.434 1374.69 977.295 1374.83 977.159L1373.81 976.063C1373.66 976.201 1373.51 976.341 1373.36 976.486L1374.39 977.576ZM1361.86 989.028C1366.04 985.272 1370.26 981.478 1374.39 977.576L1373.36 976.486C1369.24 980.372 1365.04 984.154 1360.86 987.912L1361.86 989.028ZM1318.51 1073.35C1311.35 1034.5 1335.72 1012.53 1361.86 989.028L1360.86 987.912C1334.82 1011.32 1309.7 1033.84 1317.04 1073.62L1318.51 1073.35ZM1320.31 1056.99C1319.4 1058.27 1318.8 1059.87 1318.31 1062.39C1317.82 1064.9 1317.44 1068.37 1317.03 1073.42L1318.52 1073.54C1318.94 1068.5 1319.31 1065.1 1319.78 1062.68C1320.25 1060.26 1320.8 1058.89 1321.53 1057.87L1320.31 1056.99ZM1320.34 1056.96L1320.33 1056.98L1321.52 1057.89L1321.53 1057.87L1320.34 1056.96ZM1421.29 1127.64C1403.58 1130.72 1388.84 1132.21 1376.6 1131.63C1364.36 1131.06 1354.68 1128.42 1347.04 1123.28C1331.78 1113.01 1324.41 1092.53 1321.68 1057.36L1320.19 1057.48C1322.91 1092.67 1330.31 1113.83 1346.2 1124.53C1354.14 1129.87 1364.12 1132.55 1376.53 1133.13C1388.93 1133.72 1403.8 1132.2 1421.55 1129.12L1421.29 1127.64ZM1433.28 1064.35C1430.7 1088.86 1425.94 1114.33 1420.72 1128.12L1422.12 1128.65C1427.41 1114.68 1432.19 1089.05 1434.77 1064.5L1433.28 1064.35ZM1499 1135.26C1494.47 1138.38 1489.27 1137.72 1483.59 1134.22C1477.9 1130.71 1471.88 1124.43 1465.93 1116.67C1454.04 1101.17 1442.59 1080.01 1434.7 1064.09L1433.36 1064.76C1441.26 1080.69 1452.76 1101.97 1464.74 1117.59C1470.73 1125.39 1476.88 1131.84 1482.81 1135.5C1488.75 1139.16 1494.63 1140.09 1499.85 1136.5L1499 1135.26ZM1511.81 1006.38C1531.68 1024.73 1535.33 1052.2 1530.53 1077.57C1528.13 1090.24 1523.63 1102.35 1518.03 1112.45C1512.42 1122.57 1505.73 1130.63 1499 1135.26L1499.85 1136.5C1506.84 1131.69 1513.66 1123.41 1519.34 1113.18C1525.02 1102.94 1529.58 1090.68 1532 1077.85C1536.86 1052.21 1533.23 1024.11 1512.83 1005.28L1511.81 1006.38ZM1496.67 1043.11C1499.71 1040.41 1503.94 1036.65 1507.34 1030.78C1510.74 1024.9 1513.29 1016.93 1513.07 1005.82L1511.57 1005.85C1511.79 1016.7 1509.3 1024.39 1506.04 1030.03C1502.77 1035.68 1498.7 1039.3 1495.68 1041.99L1496.67 1043.11ZM1493.57 1046.1C1494.26 1045.26 1495.32 1044.31 1496.67 1043.11L1495.68 1041.99C1494.36 1043.16 1493.19 1044.2 1492.41 1045.15L1493.57 1046.1ZM1488.77 1026.17C1491.53 1027.37 1493.22 1028.93 1494.21 1030.61C1495.2 1032.28 1495.53 1034.14 1495.45 1036C1495.28 1039.75 1493.46 1043.4 1492.34 1045.24L1493.63 1046.01C1494.78 1044.1 1496.76 1040.19 1496.94 1036.07C1497.04 1033.99 1496.68 1031.83 1495.5 1029.84C1494.33 1027.85 1492.37 1026.1 1489.37 1024.79L1488.77 1026.17ZM1437.43 1065.18C1458.96 1057.17 1473.63 1050.96 1482.11 1044.93C1486.36 1041.92 1489.14 1038.89 1490.42 1035.62C1491.71 1032.32 1491.42 1028.88 1489.76 1025.17L1488.39 1025.79C1489.92 1029.22 1490.13 1032.23 1489.02 1035.07C1487.89 1037.95 1485.38 1040.77 1481.24 1043.71C1472.95 1049.6 1458.47 1055.75 1436.91 1063.78L1437.43 1065.18ZM1433.83 1060.41L1436.53 1064.87L1437.81 1064.09L1435.11 1059.63L1433.83 1060.41ZM1431.07 1003.48C1432.22 1004.75 1433.17 1007.19 1433.88 1010.7C1434.58 1014.17 1435.01 1018.57 1435.2 1023.65C1435.58 1033.81 1434.99 1046.61 1433.72 1059.95L1435.22 1060.1C1436.49 1046.71 1437.08 1033.85 1436.69 1023.6C1436.5 1018.47 1436.07 1013.98 1435.35 1010.4C1434.64 1006.85 1433.62 1004.07 1432.18 1002.48L1431.07 1003.48Z" fill="#B25622"/>
<rect x="1258.82" y="692" width="269.7" height="267.181" fill="url(#paint9_radial_1_2)"/>
<rect x="1258.82" y="692" width="269.7" height="267.181" stroke="black"/>
<mask id="path-14-inside-1_1_2" fill="white">
<path fill-rule="evenodd" clip-rule="evenodd" d="M1360.22 665.781C1352.42 680.331 1346.27 656.481 1360.22 659.781C1373.03 662.812 1375.47 686.21 1356.38 696.284C1300.84 708.51 1259.57 758.574 1260.27 817.971C1260.41 829.863 1262.22 841.34 1265.48 852.181C1259.12 870.916 1259.38 884.356 1267.82 902.631L1290.14 897.096C1291.35 898.502 1292.59 899.879 1293.86 901.227C1314.11 935.574 1356.17 959.181 1404.77 959.181C1473.12 959.181 1528.52 912.507 1528.52 854.931C1528.52 830.84 1518.82 808.657 1502.53 791.004C1491.05 736.296 1443.49 695.132 1386.3 693.483C1382.54 666.296 1366.36 653.181 1360.22 653.181C1353.77 653.181 1345.82 655.131 1345.07 665.781C1345.52 670.431 1348.67 675.531 1353.32 675.831C1358.12 675.081 1359.62 673.581 1359.92 671.181C1360.22 668.781 1360.22 665.781 1360.22 665.781Z"/>
</mask>
<path fill-rule="evenodd" clip-rule="evenodd" d="M1360.22 665.781C1352.42 680.331 1346.27 656.481 1360.22 659.781C1373.03 662.812 1375.47 686.21 1356.38 696.284C1300.84 708.51 1259.57 758.574 1260.27 817.971C1260.41 829.863 1262.22 841.34 1265.48 852.181C1259.12 870.916 1259.38 884.356 1267.82 902.631L1290.14 897.096C1291.35 898.502 1292.59 899.879 1293.86 901.227C1314.11 935.574 1356.17 959.181 1404.77 959.181C1473.12 959.181 1528.52 912.507 1528.52 854.931C1528.52 830.84 1518.82 808.657 1502.53 791.004C1491.05 736.296 1443.49 695.132 1386.3 693.483C1382.54 666.296 1366.36 653.181 1360.22 653.181C1353.77 653.181 1345.82 655.131 1345.07 665.781C1345.52 670.431 1348.67 675.531 1353.32 675.831C1358.12 675.081 1359.62 673.581 1359.92 671.181C1360.22 668.781 1360.22 665.781 1360.22 665.781Z" fill="url(#paint10_radial_1_2)"/>
<path d="M1360.22 659.781L1360.57 658.321L1360.22 659.781ZM1360.22 665.781H1361.72L1358.9 665.072L1360.22 665.781ZM1356.38 696.284L1356.7 697.749L1356.9 697.706L1357.08 697.611L1356.38 696.284ZM1260.27 817.971L1258.77 817.989L1260.27 817.971ZM1265.48 852.181L1266.9 852.663L1267.06 852.209L1266.92 851.749L1265.48 852.181ZM1267.82 902.631L1266.46 903.26L1266.98 904.385L1268.18 904.087L1267.82 902.631ZM1290.14 897.096L1291.27 896.117L1290.67 895.419L1289.78 895.641L1290.14 897.096ZM1293.86 901.227L1295.16 900.465L1295.07 900.32L1294.96 900.197L1293.86 901.227ZM1502.53 791.004L1501.06 791.312L1501.15 791.717L1501.43 792.021L1502.53 791.004ZM1386.3 693.483L1384.81 693.689L1384.99 694.946L1386.26 694.983L1386.3 693.483ZM1345.07 665.781L1343.58 665.676L1343.57 665.801L1343.58 665.926L1345.07 665.781ZM1353.32 675.831L1353.23 677.328L1353.39 677.339L1353.55 677.313L1353.32 675.831ZM1359.92 671.181L1358.43 670.995V670.995L1359.92 671.181ZM1360.57 658.321C1356.68 657.402 1353.8 658.321 1352.08 660.423C1350.46 662.407 1350.15 665.123 1350.6 667.303C1350.83 668.409 1351.27 669.484 1351.94 670.335C1352.62 671.193 1353.59 671.893 1354.83 672.011C1356.07 672.129 1357.28 671.634 1358.38 670.713C1359.46 669.8 1360.52 668.403 1361.55 666.49L1358.9 665.072C1357.98 666.796 1357.14 667.837 1356.45 668.418C1355.77 668.99 1355.33 669.045 1355.11 669.025C1354.9 669.004 1354.61 668.878 1354.29 668.478C1353.97 668.071 1353.69 667.456 1353.54 666.697C1353.22 665.145 1353.5 663.427 1354.4 662.322C1355.21 661.335 1356.79 660.511 1359.88 661.241L1360.57 658.321ZM1357.08 697.611C1367.11 692.318 1371.58 683.454 1371.76 675.427C1371.95 667.503 1367.9 660.055 1360.57 658.321L1359.88 661.241C1365.36 662.537 1368.93 668.304 1368.77 675.356C1368.6 682.304 1364.74 690.176 1355.68 694.958L1357.08 697.611ZM1261.77 817.954C1261.08 759.276 1301.85 709.824 1356.7 697.749L1356.06 694.819C1299.83 707.196 1258.06 757.872 1258.77 817.989L1261.77 817.954ZM1266.92 851.749C1263.7 841.042 1261.91 829.703 1261.77 817.954L1258.77 817.989C1258.91 830.022 1260.75 841.639 1264.05 852.613L1266.92 851.749ZM1269.18 902.002C1265.02 892.99 1262.91 885.256 1262.6 877.517C1262.29 869.774 1263.76 861.922 1266.9 852.663L1264.06 851.699C1260.85 861.175 1259.27 869.41 1259.6 877.639C1259.94 885.873 1262.18 893.997 1266.46 903.26L1269.18 902.002ZM1289.78 895.641L1267.46 901.175L1268.18 904.087L1290.5 898.552L1289.78 895.641ZM1294.96 900.197C1293.7 898.865 1292.47 897.505 1291.27 896.117L1289 898.076C1290.23 899.498 1291.49 900.892 1292.77 902.256L1294.96 900.197ZM1404.77 957.681C1356.63 957.681 1315.09 934.298 1295.16 900.465L1292.57 901.988C1313.12 936.849 1355.7 960.681 1404.77 960.681V957.681ZM1527.02 854.931C1527.02 911.448 1472.54 957.681 1404.77 957.681V960.681C1473.7 960.681 1530.02 913.566 1530.02 854.931H1527.02ZM1501.43 792.021C1517.5 809.43 1527.02 831.259 1527.02 854.931H1530.02C1530.02 830.42 1520.15 807.884 1503.64 789.986L1501.43 792.021ZM1386.26 694.983C1442.74 696.611 1489.72 737.267 1501.06 791.312L1504 790.696C1492.38 735.324 1444.24 693.653 1386.34 691.984L1386.26 694.983ZM1360.22 654.681C1361.31 654.681 1363.17 655.305 1365.52 656.896C1367.81 658.453 1370.42 660.832 1372.98 664.067C1378.09 670.531 1382.97 680.355 1384.81 693.689L1387.79 693.278C1385.87 679.424 1380.78 669.097 1375.33 662.206C1372.61 658.764 1369.78 656.165 1367.2 654.414C1364.67 652.697 1362.2 651.681 1360.22 651.681V654.681ZM1346.57 665.886C1346.91 660.983 1348.87 658.292 1351.31 656.757C1353.84 655.16 1357.11 654.681 1360.22 654.681V651.681C1356.89 651.681 1352.95 652.177 1349.71 654.218C1346.37 656.32 1343.98 659.929 1343.58 665.676L1346.57 665.886ZM1353.42 674.334C1351.65 674.22 1350.07 673.192 1348.82 671.535C1347.57 669.876 1346.77 667.704 1346.57 665.637L1343.58 665.926C1343.83 668.508 1344.82 671.212 1346.42 673.339C1348.03 675.47 1350.34 677.142 1353.23 677.328L1353.42 674.334ZM1358.43 670.995C1358.32 671.881 1358.03 672.454 1357.4 672.93C1356.69 673.474 1355.41 673.987 1353.09 674.349L1353.55 677.313C1356.04 676.925 1357.91 676.313 1359.22 675.319C1360.62 674.258 1361.22 672.881 1361.41 671.367L1358.43 670.995ZM1360.22 665.781C1358.72 665.781 1358.72 665.781 1358.72 665.781C1358.72 665.781 1358.72 665.781 1358.72 665.781C1358.72 665.781 1358.72 665.781 1358.72 665.781C1358.72 665.781 1358.72 665.782 1358.72 665.782C1358.72 665.783 1358.72 665.785 1358.72 665.787C1358.72 665.792 1358.72 665.8 1358.72 665.81C1358.72 665.831 1358.72 665.863 1358.72 665.905C1358.72 665.988 1358.72 666.11 1358.72 666.265C1358.71 666.576 1358.7 667.015 1358.69 667.528C1358.65 668.56 1358.58 669.86 1358.43 670.995L1361.41 671.367C1361.57 670.103 1361.65 668.702 1361.68 667.635C1361.7 667.097 1361.71 666.636 1361.72 666.309C1361.72 666.146 1361.72 666.015 1361.72 665.925C1361.72 665.88 1361.72 665.844 1361.72 665.82C1361.72 665.808 1361.72 665.799 1361.72 665.792C1361.72 665.789 1361.72 665.786 1361.72 665.784C1361.72 665.784 1361.72 665.783 1361.72 665.782C1361.72 665.782 1361.72 665.782 1361.72 665.782C1361.72 665.781 1361.72 665.781 1361.72 665.781C1361.72 665.781 1361.72 665.781 1360.22 665.781Z" fill="#B25622" mask="url(#path-14-inside-1_1_2)"/>
<ellipse cx="1390.52" cy="846.831" rx="41.7" ry="56.85" fill="#D9D9D9"/>
<ellipse cx="1396.04" cy="825.374" rx="27.6" ry="40.1846" transform="rotate(-14.5129 1396.04 825.374)" fill="url(#paint11_linear_1_2)"/>
<ellipse cx="1397.23" cy="821.671" rx="20.55" ry="28.4137" transform="rotate(-14.9755 1397.23 821.671)" fill="black"/>
<path d="M1361.57 805.581L1353.62 819.081L1356.32 809.181L1361.57 799.881L1367.57 793.431L1376.12 787.131L1385.12 783.981H1396.22L1404.92 787.131L1413.77 793.431L1419.32 799.881L1424.42 807.981L1427.57 816.381V819.531L1423.07 810.681L1413.62 798.831L1402.67 791.631L1389.77 788.931L1374.17 793.881C1368.8 796.866 1366.12 799.68 1361.57 805.581Z" fill="#B2661B" stroke="#D9D9D9" stroke-width="0.3"/>
<ellipse cx="1376.72" cy="815.481" rx="6.6" ry="6.3" fill="url(#paint12_linear_1_2)"/>
<path fill-rule="evenodd" clip-rule="evenodd" d="M1431.31 844.818C1431.05 860.71 1426.46 875.002 1419.25 885.375C1411.86 895.998 1401.81 902.399 1390.88 902.48C1390.81 902.481 1390.74 902.481 1390.67 902.481C1390.6 902.481 1390.53 902.481 1390.46 902.48C1379.53 902.399 1369.49 895.998 1362.1 885.375C1354.88 875.002 1350.3 860.71 1350.03 844.818C1350.3 829.689 1354.88 816.082 1362.08 806.204C1369.5 796.027 1379.63 789.892 1390.67 789.892C1401.72 789.892 1411.84 796.027 1419.27 806.204C1426.47 816.082 1431.05 829.689 1431.31 844.818ZM1390.9 903.98C1414.07 903.816 1432.82 878.004 1432.82 846.187C1432.82 845.729 1432.82 845.272 1432.81 844.817C1432.82 844.34 1432.82 843.861 1432.82 843.381C1432.82 809.913 1413.95 782.781 1390.67 782.781C1367.39 782.781 1348.52 809.913 1348.52 843.381C1348.52 843.861 1348.53 844.34 1348.53 844.817C1348.53 845.272 1348.52 845.729 1348.52 846.187C1348.52 878.004 1367.27 903.816 1390.45 903.98C1390.52 903.981 1390.6 903.981 1390.67 903.981C1390.75 903.981 1390.82 903.981 1390.9 903.98ZM1354.37 816.81C1356.36 811.064 1358.99 805.861 1362.1 801.387C1369.54 790.696 1379.66 784.281 1390.67 784.281C1401.68 784.281 1411.81 790.696 1419.25 801.387C1422.36 805.861 1424.98 811.064 1426.98 816.81C1419.64 799.8 1406.13 788.392 1390.67 788.392C1375.22 788.392 1361.7 799.8 1354.37 816.81Z" fill="#59260A"/>
<path d="M1376.27 755.181C1406.55 753.301 1419.19 763.24 1436.87 793.281" stroke="url(#paint13_linear_1_2)" stroke-opacity="0.8" stroke-width="1.5" stroke-linecap="round"/>
<ellipse cx="1291.85" cy="852.729" rx="24.5162" ry="43.2629" transform="rotate(-13.3208 1291.85 852.729)" fill="#D9D9D9"/>
<ellipse cx="21.0279" cy="35.0002" rx="21.0279" ry="35.0002" transform="matrix(0.948275 -0.317451 0.287962 0.957642 1265.72 818.332)" fill="url(#paint14_linear_1_2)"/>
<ellipse cx="15.493" cy="24.6313" rx="15.493" ry="24.6313" transform="matrix(0.979932 -0.199333 0.179739 0.983714 1278.95 818.711)" fill="black"/>
<path d="M1270.97 829.281L1267.67 840.231L1266.47 841.581L1268.42 828.081L1271.87 819.831L1276.37 812.781L1283.72 808.281L1290.02 807.531L1299.77 811.281L1306.97 817.881L1310.27 822.981L1314.32 831.231L1313.42 832.881L1305.62 821.781L1294.37 814.581L1283.72 815.631L1276.37 820.731L1270.97 829.281Z" fill="#B2661B" stroke="#59260A" stroke-width="0.3" stroke-linecap="round"/>
<path d="M1319.02 850.883C1320.77 862.109 1319.46 872.69 1315.95 880.716C1312.44 888.75 1306.79 894.123 1299.91 895.199C1293.03 896.275 1286.01 892.882 1280.21 886.301C1274.43 879.729 1269.95 870.053 1268.19 858.827C1266.44 847.601 1267.75 837.019 1271.26 828.994C1274.77 820.959 1280.42 815.586 1287.3 814.511C1294.18 813.435 1301.2 816.828 1306.99 823.408C1312.78 829.981 1317.26 839.656 1319.02 850.883Z" stroke="#59260A" stroke-width="1.5"/>
<path d="M1318.46 847.344C1320.37 859.558 1319.19 871.034 1315.78 879.705C1312.36 888.394 1306.76 894.128 1299.91 895.199C1293.06 896.27 1285.98 892.517 1280.07 885.286C1274.17 878.07 1269.55 867.502 1267.64 855.288C1265.73 843.073 1266.91 831.598 1270.32 822.927C1273.74 814.237 1279.34 808.503 1286.19 807.432C1293.04 806.362 1300.12 810.114 1306.03 817.346C1311.93 824.561 1316.55 835.129 1318.46 847.344Z" stroke="#59260A" stroke-width="1.5"/>
<ellipse cx="1312.52" cy="853.281" rx="2.4" ry="2.7" fill="#D9D9D9" fill-opacity="0.3"/>
<circle cx="1414.67" cy="837.831" r="3.45" fill="#D9D9D9" fill-opacity="0.3"/>
<path d="M1261.07 804.981C1274.31 788.244 1282.63 782.405 1299.62 780.531" stroke="url(#paint15_linear_1_2)" stroke-width="1.5" stroke-linecap="round"/>
<path d="M1291.52 894.681L1273.07 883.731L1287.62 935.031C1315.6 956.684 1327.64 961.237 1344.32 959.331L1329.17 880.581C1317.68 880.547 1311.44 882.559 1301.12 894.681H1291.52Z" fill="url(#paint16_linear_1_2)"/>
<path d="M1235.12 935.031C1252.09 957.537 1275.26 953.938 1287.32 935.031L1278.92 886.881C1258.3 876.413 1246.84 870.801 1235.12 884.031C1234.02 881.671 1218.16 912.526 1235.12 935.031Z" fill="url(#paint17_linear_1_2)"/>
<path d="M1369.52 894.381C1344.86 883.221 1332.74 878.369 1325.27 881.331L1311.92 888.381L1345.07 960.381C1357.67 982.771 1387.07 986.181 1406.12 967.881C1425.17 949.581 1383.77 895.881 1383.77 895.881C1379.26 897.244 1376.06 896.766 1369.52 894.381Z" fill="url(#paint18_linear_1_2)"/>
<path d="M1381.22 897.981C1392.29 888.373 1397.49 884.685 1402.67 885.081C1418.95 889.192 1425.38 911.27 1424.27 933.381C1423.25 953.814 1406.69 967.028 1405.61 968.743L1405.67 968.931C1405.54 968.948 1405.52 968.884 1405.61 968.743L1381.22 897.981Z" fill="url(#paint19_linear_1_2)"/>
<g filter="url(#filter0_dd_1_2)">
<path d="M1400.12 910.581C1400.12 910.581 1390.19 956.934 1344.77 959.781C1299.36 962.628 1267.43 907.621 1260.92 910.581C1254.41 913.541 1254.27 914.412 1254.32 919.731M1288.22 935.181C1267.61 968.823 1212.43 940.143 1230.62 891.681C1248.81 843.219 1315.37 927.51 1341.17 910.581M1292.27 894.531C1298.95 895.112 1300.95 894.658 1302.77 893.181C1323.12 866.686 1357.01 889.527 1370.57 894.531C1384.14 899.535 1385.12 894.531 1385.12 894.531C1398.85 882.76 1406.01 880.186 1416.32 894.531C1449.45 962.33 1372.34 1009.16 1344.17 960.081" stroke="#59260A" stroke-width="1.5"/>
</g>
<path d="M1426.16 1041.1C1423.66 1042.15 1422.65 1042.16 1425.17 1039.88L1426.16 1041.1C1434.29 1037.71 1458.14 1023.48 1427.12 1042.29L1501.82 1134.68C1441.48 1178.4 1274.57 1134.68 1384.52 1068.08C1404.49 1055.99 1418.12 1047.74 1427.12 1042.29L1426.16 1041.1Z" fill="url(#paint20_linear_1_2)"/>
<path d="M1425.17 1039.88C1412.04 1051.74 1494.47 1001.48 1384.52 1068.08C1274.57 1134.68 1441.48 1178.4 1501.82 1134.68L1425.17 1039.88Z" stroke="#B25622" stroke-width="1.5"/>
<path d="M1423.52 1017.08C1438.35 1011.77 1501.89 1051.91 1475.87 1076.63C1496.56 1088.18 1497.57 1092.83 1481.12 1097.93C1504.68 1102.58 1505.07 1105.91 1481.12 1113.23L1506.02 1134.83C1456.52 1155.16 1398.42 1116.2 1401.47 1092.83C1404.52 1069.46 1412.06 1070.71 1415.57 1052.63C1413.84 1049.67 1408.7 1022.4 1423.52 1017.08Z" fill="url(#paint21_linear_1_2)" stroke="#B25622" stroke-width="1.5"/>
<ellipse cx="515" cy="968.5" rx="273" ry="266.5" fill="url(#paint22_angular_1_2)"/>
<path d="M515.908 1010.94C466.763 1038.83 407.09 1024.84 382.224 981.023C357.358 937.207 375.947 878.803 425.092 850.913C474.236 823.023 533.909 837.013 558.775 880.83C583.641 924.646 565.052 983.05 515.908 1010.94Z" fill="#D9D9D9" stroke="black" stroke-width="10"/>
<path d="M466.426 907.16C474.405 925.294 478.203 925.029 489.986 930.722C501.769 936.415 519.16 936.65 524.424 921.54C529.687 906.431 515.629 893.591 515.629 893.591C505.83 883.575 496.827 880.687 485.453 879.902C474.078 879.116 458.448 889.025 466.426 907.16Z" stroke="black" stroke-width="10"/>
<path d="M490.917 948.048C480.835 925.879 476.101 926.131 461.369 919.001C446.636 911.872 424.953 911.269 418.504 929.523C412.055 947.778 429.678 963.628 429.678 963.628C441.97 975.972 453.215 979.643 467.402 980.805C481.588 981.967 501 970.218 490.917 948.048Z" stroke="black" stroke-width="10"/>
<defs>
<filter id="filter0_dd_1_2" x="1225.05" y="875.713" width="201.342" height="107.847" filterUnits="userSpaceOnUse" color-interpolation-filters="sRGB">
<feFlood flood-opacity="0" result="BackgroundImageFix"/>
<feColorMatrix in="SourceAlpha" type="matrix" values="0 0 0 0 0 0 0 0 0 0 0 0 0 0 0 0 0 0 127 0" result="hardAlpha"/>
<feOffset dy="1.2"/>
<feGaussianBlur stdDeviation="0.6"/>
<feComposite in2="hardAlpha" operator="out"/>
<feColorMatrix type="matrix" values="0 0 0 0 0 0 0 0 0 0 0 0 0 0 0 0 0 0 0.25 0"/>
<feBlend mode="normal" in2="BackgroundImageFix" result="effect1_dropShadow_1_2"/>
<feColorMatrix in="SourceAlpha" type="matrix" values="0 0 0 0 0 0 0 0 0 0 0 0 0 0 0 0 0 0 127 0" result="hardAlpha"/>
<feOffset dy="1.2"/>
<feGaussianBlur stdDeviation="0.6"/>
<feComposite in2="hardAlpha" operator="out"/>
<feColorMatrix type="matrix" values="0 0 0 0 0 0 0 0 0 0 0 0 0 0 0 0 0 0 0.25 0"/>
<feBlend mode="normal" in2="effect1_dropShadow_1_2" result="effect2_dropShadow_1_2"/>
<feBlend mode="normal" in="SourceGraphic" in2="effect2_dropShadow_1_2" result="shape"/>
</filter>
<linearGradient id="paint0_linear_1_2" x1="960" y1="0" x2="960" y2="1280" gradientUnits="userSpaceOnUse">
<stop stop-color="#2D4E00"/>
<stop offset="1" stop-color="#003827"/>
</linearGradient>
<linearGradient id="paint1_linear_1_2" x1="1362.17" y1="1008.38" x2="1267.37" y2="986.481" gradientUnits="userSpaceOnUse">
<stop offset="0.167901" stop-color="#59260A"/>
<stop offset="1" stop-color="#B25622"/>
</linearGradient>
<linearGradient id="paint2_linear_1_2" x1="1366.86" y1="1143.46" x2="1366.86" y2="1149.89" gradientUnits="userSpaceOnUse">
<stop stop-color="#59260A"/>
<stop offset="1" stop-color="#AA8239"/>
</linearGradient>
<linearGradient id="paint3_linear_1_2" x1="1326.32" y1="1161.68" x2="1425.17" y2="1154.18" gradientUnits="userSpaceOnUse">
<stop stop-color="#B2661B"/>
<stop offset="1" stop-color="#59260A"/>
</linearGradient>
<linearGradient id="paint4_linear_1_2" x1="1395.15" y1="1152.08" x2="1395.15" y2="1174.36" gradientUnits="userSpaceOnUse">
<stop stop-color="#AA8239"/>
<stop offset="1" stop-color="#B2661B"/>
</linearGradient>
<linearGradient id="paint5_linear_1_2" x1="1377.32" y1="1176.38" x2="1418.72" y2="1164.98" gradientUnits="userSpaceOnUse">
<stop stop-color="#B25622"/>
<stop offset="1" stop-color="#59260A"/>
</linearGradient>
<linearGradient id="paint6_linear_1_2" x1="1363.37" y1="1194.83" x2="1431.32" y2="1170.23" gradientUnits="userSpaceOnUse">
<stop stop-color="#B2661B"/>
<stop offset="1" stop-color="#59260A"/>
</linearGradient>
<linearGradient id="paint7_linear_1_2" x1="1438.57" y1="1135.43" x2="1378.07" y2="1213.58" gradientUnits="userSpaceOnUse">
<stop offset="0.234863" stop-color="#8D4319"/>
<stop offset="0.596019" stop-color="#AA8239"/>
</linearGradient>
<linearGradient id="paint8_linear_1_2" x1="1552.76" y1="937.431" x2="1552.76" y2="1587.68" gradientUnits="userSpaceOnUse">
<stop offset="0.473958" stop-color="#D7CAAA"/>
<stop offset="1" stop-color="#59260A"/>
</linearGradient>
<radialGradient id="paint9_radial_1_2" cx="0" cy="0" r="1" gradientUnits="userSpaceOnUse" gradientTransform="translate(1393.67 825.591) rotate(90) scale(133.591 134.85)">
<stop stop-color="white"/>
<stop offset="1" stop-color="white" stop-opacity="0"/>
</radialGradient>
<radialGradient id="paint10_radial_1_2" cx="0" cy="0" r="1" gradientUnits="userSpaceOnUse" gradientTransform="translate(1394.42 855.231) rotate(-90) scale(157.95 138.47)">
<stop stop-color="#59260A"/>
<stop offset="0.177083" stop-color="#B25622"/>
<stop offset="1" stop-color="white"/>
</radialGradient>
<linearGradient id="paint11_linear_1_2" x1="1396.04" y1="785.19" x2="1396.04" y2="865.559" gradientUnits="userSpaceOnUse">
<stop stop-color="#1F69EB"/>
<stop offset="1" stop-color="#0E5440"/>
</linearGradient>
<linearGradient id="paint12_linear_1_2" x1="1372.37" y1="809.181" x2="1383.32" y2="821.781" gradientUnits="userSpaceOnUse">
<stop stop-color="#D9D9D9" stop-opacity="0.6"/>
<stop offset="1" stop-color="#D9D9D9" stop-opacity="0.2"/>
</linearGradient>
<linearGradient id="paint13_linear_1_2" x1="1406.57" y1="754.961" x2="1406.57" y2="793.281" gradientUnits="userSpaceOnUse">
<stop stop-color="#59260A"/>
<stop offset="1" stop-color="#59260A" stop-opacity="0"/>
</linearGradient>
<linearGradient id="paint14_linear_1_2" x1="21.0279" y1="0" x2="21.0279" y2="70.0004" gradientUnits="userSpaceOnUse">
<stop stop-color="#1F69EB"/>
<stop offset="1" stop-color="#0E5440"/>
</linearGradient>
<linearGradient id="paint15_linear_1_2" x1="1265.87" y1="804.981" x2="1299.62" y2="780.681" gradientUnits="userSpaceOnUse">
<stop stop-color="#59260A"/>
<stop offset="1" stop-color="#59260A" stop-opacity="0"/>
</linearGradient>
<linearGradient id="paint16_linear_1_2" x1="1308.7" y1="880.581" x2="1308.7" y2="959.724" gradientUnits="userSpaceOnUse">
<stop stop-color="#EB671D"/>
<stop offset="1" stop-color="#6C4935"/>
</linearGradient>
<linearGradient id="paint17_linear_1_2" x1="1257.33" y1="876.295" x2="1257.33" y2="950.59" gradientUnits="userSpaceOnUse">
<stop stop-color="#EB671D"/>
<stop offset="1" stop-color="#6C4935"/>
</linearGradient>
<linearGradient id="paint18_linear_1_2" x1="1361.53" y1="880.478" x2="1361.53" y2="979.663" gradientUnits="userSpaceOnUse">
<stop stop-color="#EB671D"/>
<stop offset="1" stop-color="#6C4935"/>
</linearGradient>
<linearGradient id="paint19_linear_1_2" x1="1402.81" y1="885.052" x2="1402.81" y2="968.934" gradientUnits="userSpaceOnUse">
<stop stop-color="#EB671D"/>
<stop offset="1" stop-color="#6C4935"/>
</linearGradient>
<linearGradient id="paint20_linear_1_2" x1="1424.86" y1="1032.75" x2="1424.86" y2="1152.26" gradientUnits="userSpaceOnUse">
<stop stop-color="#856A5B"/>
<stop offset="1" stop-color="#59260A"/>
</linearGradient>
<linearGradient id="paint21_linear_1_2" x1="1453.69" y1="1016.6" x2="1453.69" y2="1140.51" gradientUnits="userSpaceOnUse">
<stop offset="0.0260417" stop-color="#AA8239"/>
<stop offset="0.46875" stop-color="#D9D9D9"/>
<stop offset="0.989583" stop-color="#B25622"/>
</linearGradient>
<radialGradient id="paint22_angular_1_2" cx="0" cy="0" r="1" gradientUnits="userSpaceOnUse" gradientTransform="translate(515 968.5) rotate(72.633) scale(262.989 269.403)">
<stop offset="0.113165" stop-color="#480020"/>
<stop offset="0.380208" stop-color="#6B6B6B" stop-opacity="0.938393"/>
<stop offset="0.664675" stop-color="#90305A"/>
</radialGradient>
</defs>
</svg>
