<svg width="1920" height="1280" viewBox="0 0 1920 1280" fill="none" xmlns="http://www.w3.org/2000/svg">
<rect width="1920" height="1280" fill="#003827"/>
<path d="M242.182 175.909V165.909H312V175.909H282.727V259H271.455V175.909H242.182ZM358.125 259H329.398V165.909H359.398C368.428 165.909 376.155 167.773 382.58 171.5C389.004 175.197 393.928 180.515 397.352 187.455C400.777 194.364 402.489 202.636 402.489 212.273C402.489 221.97 400.761 230.318 397.307 237.318C393.852 244.288 388.822 249.652 382.216 253.409C375.61 257.136 367.58 259 358.125 259ZM340.67 249H357.398C365.095 249 371.473 247.515 376.534 244.545C381.595 241.576 385.367 237.348 387.852 231.864C390.337 226.379 391.58 219.848 391.58 212.273C391.58 204.758 390.352 198.288 387.898 192.864C385.443 187.409 381.777 183.227 376.898 180.318C372.019 177.379 365.943 175.909 358.67 175.909H340.67V249ZM421.398 259V165.909H432.67V249H475.943V259H421.398ZM301.25 352.384C298.758 352.384 296.482 351.776 294.422 350.561C292.363 349.325 290.715 347.677 289.479 345.618C288.264 343.558 287.656 341.282 287.656 338.79C287.656 336.277 288.264 334.001 289.479 331.962C290.715 329.902 292.363 328.265 294.422 327.05C296.482 325.814 298.758 325.196 301.25 325.196C303.763 325.196 306.039 325.814 308.078 327.05C310.137 328.265 311.775 329.902 312.99 331.962C314.226 334.001 314.844 336.277 314.844 338.79C314.844 341.282 314.226 343.558 312.99 345.618C311.775 347.677 310.137 349.325 308.078 350.561C306.039 351.776 303.763 352.384 301.25 352.384ZM385.655 364L368.354 300.727H376.139L389.362 352.26H389.98L403.45 300.727H412.101L425.571 352.26H426.189L439.412 300.727H447.197L429.896 364H421.987L408.023 313.58H407.528L393.564 364H385.655ZM471.234 364.989C466.661 364.989 462.717 363.979 459.401 361.961C456.105 359.922 453.562 357.08 451.77 353.434C449.999 349.768 449.113 345.504 449.113 340.643C449.113 335.783 449.999 331.499 451.77 327.791C453.562 324.063 456.054 321.159 459.246 319.079C462.46 316.978 466.208 315.928 470.492 315.928C472.964 315.928 475.404 316.339 477.814 317.163C480.224 317.987 482.418 319.326 484.395 321.18C486.372 323.013 487.948 325.443 489.122 328.471C490.296 331.499 490.883 335.227 490.883 339.655V342.744H454.303V336.442H483.468C483.468 333.764 482.933 331.375 481.862 329.274C480.811 327.173 479.308 325.515 477.351 324.3C475.415 323.085 473.129 322.477 470.492 322.477C467.588 322.477 465.075 323.198 462.954 324.64C460.853 326.061 459.236 327.915 458.103 330.201C456.971 332.487 456.404 334.938 456.404 337.554V341.756C456.404 345.339 457.022 348.377 458.258 350.87C459.514 353.341 461.255 355.226 463.479 356.523C465.703 357.8 468.288 358.439 471.234 358.439C473.149 358.439 474.879 358.171 476.424 357.636C477.989 357.08 479.338 356.256 480.471 355.164C481.604 354.052 482.479 352.672 483.097 351.024L490.141 353.001C489.4 355.391 488.154 357.491 486.403 359.304C484.652 361.096 482.49 362.496 479.915 363.506C477.341 364.494 474.447 364.989 471.234 364.989ZM509.265 300.727V364H501.974V300.727H509.265ZM541.898 364.989C537.449 364.989 533.618 363.938 530.405 361.837C527.192 359.737 524.72 356.843 522.99 353.156C521.26 349.469 520.395 345.257 520.395 340.52C520.395 335.7 521.281 331.447 523.052 327.76C524.844 324.053 527.336 321.159 530.529 319.079C533.742 316.978 537.49 315.928 541.774 315.928C545.111 315.928 548.118 316.545 550.796 317.781C553.473 319.017 555.667 320.747 557.376 322.972C559.086 325.196 560.147 327.791 560.559 330.757H553.267C552.711 328.594 551.475 326.679 549.56 325.011C547.665 323.322 545.111 322.477 541.898 322.477C539.056 322.477 536.563 323.219 534.421 324.702C532.3 326.164 530.642 328.234 529.447 330.912C528.273 333.569 527.686 336.689 527.686 340.273C527.686 343.939 528.263 347.131 529.416 349.85C530.59 352.569 532.238 354.68 534.36 356.184C536.502 357.687 539.014 358.439 541.898 358.439C543.793 358.439 545.513 358.109 547.057 357.45C548.602 356.791 549.91 355.844 550.981 354.608C552.052 353.372 552.814 351.889 553.267 350.159H560.559C560.147 352.96 559.127 355.483 557.5 357.728C555.893 359.953 553.762 361.724 551.105 363.042C548.468 364.34 545.399 364.989 541.898 364.989ZM590.496 364.989C586.212 364.989 582.453 363.969 579.219 361.93C576.006 359.891 573.493 357.038 571.681 353.372C569.889 349.706 568.993 345.422 568.993 340.52C568.993 335.577 569.889 331.262 571.681 327.575C573.493 323.888 576.006 321.025 579.219 318.986C582.453 316.947 586.212 315.928 590.496 315.928C594.78 315.928 598.528 316.947 601.741 318.986C604.975 321.025 607.488 323.888 609.28 327.575C611.092 331.262 611.998 335.577 611.998 340.52C611.998 345.422 611.092 349.706 609.28 353.372C607.488 357.038 604.975 359.891 601.741 361.93C598.528 363.969 594.78 364.989 590.496 364.989ZM590.496 358.439C593.75 358.439 596.427 357.605 598.528 355.936C600.629 354.268 602.184 352.075 603.193 349.356C604.203 346.637 604.707 343.692 604.707 340.52C604.707 337.348 604.203 334.392 603.193 331.653C602.184 328.914 600.629 326.7 598.528 325.011C596.427 323.322 593.75 322.477 590.496 322.477C587.241 322.477 584.564 323.322 582.463 325.011C580.362 326.7 578.807 328.914 577.798 331.653C576.789 334.392 576.284 337.348 576.284 340.52C576.284 343.692 576.789 346.637 577.798 349.356C578.807 352.075 580.362 354.268 582.463 355.936C584.564 357.605 587.241 358.439 590.496 358.439ZM623.128 364V316.545H630.172V323.96H630.79C631.779 321.427 633.375 319.46 635.579 318.059C637.783 316.638 640.43 315.928 643.519 315.928C646.65 315.928 649.255 316.638 651.335 318.059C653.436 319.46 655.074 321.427 656.248 323.96H656.742C657.957 321.509 659.78 319.563 662.21 318.121C664.641 316.659 667.555 315.928 670.954 315.928C675.197 315.928 678.667 317.256 681.365 319.913C684.063 322.549 685.412 326.658 685.412 332.24V364H678.121V332.24C678.121 328.739 677.164 326.236 675.248 324.733C673.333 323.229 671.077 322.477 668.482 322.477C665.145 322.477 662.561 323.487 660.727 325.505C658.894 327.503 657.978 330.036 657.978 333.105V364H650.563V331.499C650.563 328.8 649.688 326.627 647.937 324.98C646.186 323.311 643.931 322.477 641.171 322.477C639.276 322.477 637.505 322.982 635.857 323.991C634.23 325 632.912 326.401 631.903 328.193C630.914 329.964 630.42 332.013 630.42 334.341V364H623.128ZM718.64 364.989C714.067 364.989 710.123 363.979 706.807 361.961C703.512 359.922 700.968 357.08 699.176 353.434C697.405 349.768 696.519 345.504 696.519 340.643C696.519 335.783 697.405 331.499 699.176 327.791C700.968 324.063 703.46 321.159 706.653 319.079C709.866 316.978 713.614 315.928 717.898 315.928C720.37 315.928 722.811 316.339 725.221 317.163C727.63 317.987 729.824 319.326 731.801 321.18C733.778 323.013 735.354 325.443 736.528 328.471C737.702 331.499 738.289 335.227 738.289 339.655V342.744H701.71V336.442H730.874C730.874 333.764 730.339 331.375 729.268 329.274C728.217 327.173 726.714 325.515 724.757 324.3C722.821 323.085 720.535 322.477 717.898 322.477C714.994 322.477 712.482 323.198 710.36 324.64C708.259 326.061 706.642 327.915 705.51 330.201C704.377 332.487 703.81 334.938 703.81 337.554V341.756C703.81 345.339 704.428 348.377 705.664 350.87C706.92 353.341 708.661 355.226 710.885 356.523C713.11 357.8 715.695 358.439 718.64 358.439C720.555 358.439 722.286 358.171 723.83 357.636C725.396 357.08 726.745 356.256 727.877 355.164C729.01 354.052 729.886 352.672 730.504 351.024L737.548 353.001C736.806 355.391 735.56 357.491 733.809 359.304C732.059 361.096 729.896 362.496 727.321 363.506C724.747 364.494 721.853 364.989 718.64 364.989ZM431.75 457.384C429.258 457.384 426.982 456.776 424.922 455.561C422.863 454.325 421.215 452.677 419.979 450.618C418.764 448.558 418.156 446.282 418.156 443.79C418.156 441.277 418.764 439.001 419.979 436.962C421.215 434.902 422.863 433.265 424.922 432.05C426.982 430.814 429.258 430.196 431.75 430.196C434.263 430.196 436.539 430.814 438.578 432.05C440.637 433.265 442.275 434.902 443.49 436.962C444.726 439.001 445.344 441.277 445.344 443.79C445.344 446.282 444.726 448.558 443.49 450.618C442.275 452.677 440.637 454.325 438.578 455.561C436.539 456.776 434.263 457.384 431.75 457.384ZM504.662 405.727H513.807L535.31 458.249H536.051L557.554 405.727H566.699V469H559.531V420.928H558.913L539.141 469H532.22L512.447 420.928H511.83V469H504.662V405.727ZM595.037 470.112C592.03 470.112 589.301 469.546 586.85 468.413C584.399 467.26 582.453 465.602 581.011 463.439C579.569 461.256 578.848 458.619 578.848 455.53C578.848 452.811 579.384 450.607 580.455 448.918C581.526 447.209 582.957 445.87 584.749 444.902C586.541 443.934 588.518 443.213 590.681 442.739C592.864 442.245 595.058 441.854 597.262 441.565C600.145 441.195 602.483 440.917 604.275 440.731C606.087 440.525 607.405 440.185 608.229 439.712C609.074 439.238 609.496 438.414 609.496 437.24V436.993C609.496 433.945 608.662 431.576 606.994 429.887C605.346 428.198 602.843 427.354 599.486 427.354C596.005 427.354 593.276 428.116 591.299 429.64C589.322 431.164 587.931 432.791 587.128 434.521L580.208 432.05C581.443 429.166 583.091 426.921 585.151 425.315C587.231 423.687 589.497 422.555 591.948 421.916C594.419 421.257 596.85 420.928 599.239 420.928C600.763 420.928 602.514 421.113 604.491 421.484C606.489 421.834 608.415 422.565 610.268 423.677C612.143 424.789 613.698 426.468 614.934 428.713C616.169 430.958 616.787 433.965 616.787 437.734V469H609.496V462.574H609.125C608.631 463.604 607.807 464.706 606.654 465.88C605.5 467.054 603.966 468.053 602.05 468.876C600.135 469.7 597.797 470.112 595.037 470.112ZM596.149 463.562C599.033 463.562 601.463 462.996 603.441 461.863C605.438 460.73 606.942 459.268 607.951 457.476C608.981 455.684 609.496 453.8 609.496 451.822V445.149C609.187 445.52 608.507 445.86 607.457 446.169C606.427 446.457 605.233 446.714 603.873 446.941C602.534 447.147 601.226 447.332 599.949 447.497C598.693 447.641 597.674 447.765 596.891 447.868C594.996 448.115 593.225 448.517 591.577 449.073C589.95 449.608 588.632 450.422 587.622 451.513C586.634 452.585 586.139 454.047 586.139 455.901C586.139 458.434 587.077 460.349 588.951 461.647C590.846 462.924 593.245 463.562 596.149 463.562ZM649.25 487.784C645.728 487.784 642.7 487.331 640.167 486.425C637.634 485.539 635.522 484.365 633.833 482.903C632.165 481.461 630.837 479.916 629.848 478.268L635.656 474.19C636.315 475.055 637.15 476.044 638.159 477.156C639.168 478.289 640.548 479.267 642.299 480.091C644.07 480.936 646.387 481.358 649.25 481.358C653.081 481.358 656.243 480.431 658.735 478.577C661.227 476.724 662.473 473.82 662.473 469.865V460.226H661.855C661.32 461.091 660.558 462.162 659.569 463.439C658.601 464.695 657.2 465.818 655.367 466.806C653.555 467.775 651.104 468.259 648.014 468.259C644.183 468.259 640.744 467.352 637.695 465.54C634.668 463.727 632.268 461.091 630.497 457.631C628.746 454.17 627.871 449.969 627.871 445.026C627.871 440.165 628.725 435.932 630.435 432.328C632.145 428.703 634.523 425.902 637.572 423.924C640.62 421.926 644.142 420.928 648.138 420.928C651.227 420.928 653.678 421.442 655.491 422.472C657.324 423.482 658.724 424.635 659.692 425.933C660.681 427.21 661.443 428.26 661.979 429.084H662.72V421.545H669.764V470.359C669.764 474.438 668.837 477.754 666.984 480.308C665.151 482.882 662.679 484.767 659.569 485.961C656.479 487.176 653.04 487.784 649.25 487.784ZM649.003 461.709C651.928 461.709 654.399 461.039 656.418 459.701C658.436 458.362 659.971 456.436 661.021 453.923C662.071 451.411 662.597 448.403 662.597 444.902C662.597 441.483 662.082 438.466 661.052 435.85C660.022 433.234 658.498 431.185 656.479 429.702C654.461 428.219 651.969 427.477 649.003 427.477C645.913 427.477 643.339 428.26 641.279 429.825C639.24 431.391 637.706 433.491 636.676 436.128C635.667 438.764 635.162 441.689 635.162 444.902C635.162 448.197 635.677 451.112 636.707 453.645C637.757 456.158 639.302 458.135 641.341 459.577C643.401 460.998 645.955 461.709 649.003 461.709ZM683.111 469V421.545H690.402V469H683.111ZM686.818 413.636C685.397 413.636 684.172 413.152 683.142 412.184C682.132 411.216 681.628 410.053 681.628 408.693C681.628 407.334 682.132 406.17 683.142 405.202C684.172 404.234 685.397 403.75 686.818 403.75C688.239 403.75 689.455 404.234 690.464 405.202C691.494 406.17 692.009 407.334 692.009 408.693C692.009 410.053 691.494 411.216 690.464 412.184C689.455 413.152 688.239 413.636 686.818 413.636ZM723.035 469.989C718.586 469.989 714.755 468.938 711.542 466.837C708.329 464.737 705.857 461.843 704.127 458.156C702.397 454.469 701.532 450.257 701.532 445.52C701.532 440.7 702.418 436.447 704.189 432.76C705.981 429.053 708.473 426.159 711.665 424.079C714.878 421.978 718.627 420.928 722.911 420.928C726.248 420.928 729.255 421.545 731.932 422.781C734.61 424.017 736.804 425.747 738.513 427.972C740.223 430.196 741.283 432.791 741.695 435.757H734.404C733.848 433.594 732.612 431.679 730.697 430.011C728.802 428.322 726.248 427.477 723.035 427.477C720.192 427.477 717.7 428.219 715.558 429.702C713.437 431.164 711.779 433.234 710.584 435.912C709.41 438.569 708.823 441.689 708.823 445.273C708.823 448.939 709.4 452.131 710.553 454.85C711.727 457.569 713.375 459.68 715.496 461.184C717.638 462.687 720.151 463.439 723.035 463.439C724.93 463.439 726.649 463.109 728.194 462.45C729.739 461.791 731.047 460.844 732.118 459.608C733.189 458.372 733.951 456.889 734.404 455.159H741.695C741.283 457.96 740.264 460.483 738.637 462.728C737.03 464.953 734.898 466.724 732.241 468.042C729.605 469.34 726.536 469.989 723.035 469.989ZM796.966 469.865C792.723 469.865 788.975 469.113 785.72 467.61C782.487 466.086 779.964 463.995 778.151 461.338C776.339 458.661 775.443 455.612 775.463 452.193C775.443 449.516 775.968 447.044 777.039 444.778C778.11 442.492 779.572 440.587 781.426 439.063C783.3 437.518 785.391 436.54 787.698 436.128V435.757C784.67 434.974 782.26 433.275 780.468 430.659C778.676 428.023 777.791 425.026 777.811 421.669C777.791 418.456 778.604 415.583 780.252 413.049C781.9 410.516 784.165 408.518 787.049 407.056C789.953 405.593 793.259 404.862 796.966 404.862C800.632 404.862 803.907 405.593 806.791 407.056C809.674 408.518 811.94 410.516 813.588 413.049C815.256 415.583 816.1 418.456 816.121 421.669C816.1 425.026 815.184 428.023 813.371 430.659C811.579 433.275 809.201 434.974 806.235 435.757V436.128C808.521 436.54 810.581 437.518 812.414 439.063C814.247 440.587 815.709 442.492 816.801 444.778C817.892 447.044 818.448 449.516 818.469 452.193C818.448 455.612 817.522 458.661 815.688 461.338C813.876 463.995 811.353 466.086 808.119 467.61C804.906 469.113 801.188 469.865 796.966 469.865ZM796.966 463.068C799.829 463.068 802.301 462.605 804.381 461.678C806.461 460.751 808.068 459.443 809.201 457.754C810.333 456.065 810.91 454.088 810.931 451.822C810.91 449.433 810.292 447.322 809.077 445.489C807.862 443.656 806.204 442.214 804.103 441.164C802.023 440.113 799.644 439.588 796.966 439.588C794.268 439.588 791.858 440.113 789.737 441.164C787.636 442.214 785.978 443.656 784.763 445.489C783.568 447.322 782.981 449.433 783.002 451.822C782.981 454.088 783.527 456.065 784.639 457.754C785.772 459.443 787.389 460.751 789.49 461.678C791.59 462.605 794.083 463.068 796.966 463.068ZM796.966 433.038C799.232 433.038 801.24 432.585 802.991 431.679C804.762 430.773 806.152 429.506 807.161 427.879C808.171 426.252 808.686 424.347 808.706 422.163C808.686 420.021 808.181 418.157 807.192 416.571C806.204 414.965 804.834 413.729 803.083 412.864C801.333 411.978 799.294 411.536 796.966 411.536C794.598 411.536 792.528 411.978 790.756 412.864C788.985 413.729 787.615 414.965 786.647 416.571C785.679 418.157 785.206 420.021 785.226 422.163C785.206 424.347 785.69 426.252 786.678 427.879C787.687 429.506 789.078 430.773 790.849 431.679C792.62 432.585 794.659 433.038 796.966 433.038ZM855.89 469V405.727H878.011C882.419 405.727 886.054 406.489 888.917 408.013C891.78 409.517 893.912 411.546 895.312 414.1C896.713 416.633 897.413 419.445 897.413 422.534C897.413 425.253 896.929 427.498 895.961 429.269C895.014 431.04 893.757 432.441 892.192 433.471C890.647 434.501 888.969 435.263 887.156 435.757V436.375C889.092 436.499 891.039 437.178 892.995 438.414C894.952 439.65 896.589 441.421 897.907 443.728C899.226 446.035 899.885 448.857 899.885 452.193C899.885 455.365 899.164 458.218 897.722 460.751C896.28 463.284 894.004 465.293 890.894 466.776C887.784 468.259 883.737 469 878.753 469H855.89ZM863.552 462.203H878.753C883.758 462.203 887.311 461.235 889.411 459.299C891.533 457.342 892.594 454.974 892.594 452.193C892.594 450.051 892.048 448.074 890.956 446.261C889.865 444.428 888.309 442.966 886.291 441.874C884.273 440.762 881.883 440.206 879.123 440.206H863.552V462.203ZM863.552 433.533H877.764C880.071 433.533 882.151 433.08 884.005 432.173C885.879 431.267 887.362 429.99 888.454 428.342C889.566 426.695 890.122 424.759 890.122 422.534C890.122 419.754 889.154 417.395 887.218 415.459C885.282 413.502 882.213 412.524 878.011 412.524H863.552V433.533ZM925.45 470.112C922.443 470.112 919.714 469.546 917.263 468.413C914.812 467.26 912.866 465.602 911.424 463.439C909.982 461.256 909.261 458.619 909.261 455.53C909.261 452.811 909.797 450.607 910.868 448.918C911.939 447.209 913.37 445.87 915.162 444.902C916.954 443.934 918.931 443.213 921.094 442.739C923.277 442.245 925.471 441.854 927.675 441.565C930.558 441.195 932.896 440.917 934.688 440.731C936.5 440.525 937.819 440.185 938.642 439.712C939.487 439.238 939.909 438.414 939.909 437.24V436.993C939.909 433.945 939.075 431.576 937.407 429.887C935.759 428.198 933.256 427.354 929.899 427.354C926.418 427.354 923.689 428.116 921.712 429.64C919.735 431.164 918.344 432.791 917.541 434.521L910.621 432.05C911.857 429.166 913.504 426.921 915.564 425.315C917.644 423.687 919.91 422.555 922.361 421.916C924.832 421.257 927.263 420.928 929.652 420.928C931.176 420.928 932.927 421.113 934.904 421.484C936.902 421.834 938.828 422.565 940.681 423.677C942.556 424.789 944.111 426.468 945.347 428.713C946.582 430.958 947.2 433.965 947.2 437.734V469H939.909V462.574H939.538C939.044 463.604 938.22 464.706 937.067 465.88C935.913 467.054 934.379 468.053 932.463 468.876C930.548 469.7 928.21 470.112 925.45 470.112ZM926.562 463.562C929.446 463.562 931.876 462.996 933.854 461.863C935.852 460.73 937.355 459.268 938.364 457.476C939.394 455.684 939.909 453.8 939.909 451.822V445.149C939.6 445.52 938.92 445.86 937.87 446.169C936.84 446.457 935.646 446.714 934.286 446.941C932.947 447.147 931.64 447.332 930.363 447.497C929.106 447.641 928.087 447.765 927.304 447.868C925.409 448.115 923.638 448.517 921.99 449.073C920.363 449.608 919.045 450.422 918.036 451.513C917.047 452.585 916.553 454.047 916.553 455.901C916.553 458.434 917.49 460.349 919.364 461.647C921.259 462.924 923.658 463.562 926.562 463.562ZM967.799 405.727V469H960.508V405.727H967.799ZM988.445 405.727V469H981.154V405.727H988.445ZM1027.26 469V405.727H1034.92V462.203H1064.33V469H1027.26ZM1094.48 469.989C1090.2 469.989 1086.44 468.969 1083.21 466.93C1079.99 464.891 1077.48 462.038 1075.67 458.372C1073.88 454.706 1072.98 450.422 1072.98 445.52C1072.98 440.577 1073.88 436.262 1075.67 432.575C1077.48 428.888 1079.99 426.025 1083.21 423.986C1086.44 421.947 1090.2 420.928 1094.48 420.928C1098.77 420.928 1102.52 421.947 1105.73 423.986C1108.96 426.025 1111.48 428.888 1113.27 432.575C1115.08 436.262 1115.99 440.577 1115.99 445.52C1115.99 450.422 1115.08 454.706 1113.27 458.372C1111.48 462.038 1108.96 464.891 1105.73 466.93C1102.52 468.969 1098.77 469.989 1094.48 469.989ZM1094.48 463.439C1097.74 463.439 1100.42 462.605 1102.52 460.936C1104.62 459.268 1106.17 457.075 1107.18 454.356C1108.19 451.637 1108.7 448.692 1108.7 445.52C1108.7 442.348 1108.19 439.392 1107.18 436.653C1106.17 433.914 1104.62 431.7 1102.52 430.011C1100.42 428.322 1097.74 427.477 1094.48 427.477C1091.23 427.477 1088.55 428.322 1086.45 430.011C1084.35 431.7 1082.8 433.914 1081.79 436.653C1080.78 439.392 1080.27 442.348 1080.27 445.52C1080.27 448.692 1080.78 451.637 1081.79 454.356C1082.8 457.075 1084.35 459.268 1086.45 460.936C1088.55 462.605 1091.23 463.439 1094.48 463.439ZM1146.27 487.784C1142.75 487.784 1139.72 487.331 1137.19 486.425C1134.66 485.539 1132.54 484.365 1130.85 482.903C1129.19 481.461 1127.86 479.916 1126.87 478.268L1132.68 474.19C1133.34 475.055 1134.17 476.044 1135.18 477.156C1136.19 478.289 1137.57 479.267 1139.32 480.091C1141.09 480.936 1143.41 481.358 1146.27 481.358C1150.1 481.358 1153.26 480.431 1155.76 478.577C1158.25 476.724 1159.49 473.82 1159.49 469.865V460.226H1158.88C1158.34 461.091 1157.58 462.162 1156.59 463.439C1155.62 464.695 1154.22 465.818 1152.39 466.806C1150.58 467.775 1148.13 468.259 1145.04 468.259C1141.2 468.259 1137.77 467.352 1134.72 465.54C1131.69 463.727 1129.29 461.091 1127.52 457.631C1125.77 454.17 1124.89 449.969 1124.89 445.026C1124.89 440.165 1125.75 435.932 1127.46 432.328C1129.17 428.703 1131.54 425.902 1134.59 423.924C1137.64 421.926 1141.16 420.928 1145.16 420.928C1148.25 420.928 1150.7 421.442 1152.51 422.472C1154.35 423.482 1155.75 424.635 1156.71 425.933C1157.7 427.21 1158.46 428.26 1159 429.084H1159.74V421.545H1166.79V470.359C1166.79 474.438 1165.86 477.754 1164.01 480.308C1162.17 482.882 1159.7 484.767 1156.59 485.961C1153.5 487.176 1150.06 487.784 1146.27 487.784ZM1146.02 461.709C1148.95 461.709 1151.42 461.039 1153.44 459.701C1155.46 458.362 1156.99 456.436 1158.04 453.923C1159.09 451.411 1159.62 448.403 1159.62 444.902C1159.62 441.483 1159.1 438.466 1158.07 435.85C1157.04 433.234 1155.52 431.185 1153.5 429.702C1151.48 428.219 1148.99 427.477 1146.02 427.477C1142.93 427.477 1140.36 428.26 1138.3 429.825C1136.26 431.391 1134.73 433.491 1133.7 436.128C1132.69 438.764 1132.18 441.689 1132.18 444.902C1132.18 448.197 1132.7 451.112 1133.73 453.645C1134.78 456.158 1136.32 458.135 1138.36 459.577C1140.42 460.998 1142.98 461.709 1146.02 461.709ZM1199.41 469.989C1195.13 469.989 1191.37 468.969 1188.13 466.93C1184.92 464.891 1182.41 462.038 1180.6 458.372C1178.8 454.706 1177.91 450.422 1177.91 445.52C1177.91 440.577 1178.8 436.262 1180.6 432.575C1182.41 428.888 1184.92 426.025 1188.13 423.986C1191.37 421.947 1195.13 420.928 1199.41 420.928C1203.69 420.928 1207.44 421.947 1210.66 423.986C1213.89 426.025 1216.4 428.888 1218.19 432.575C1220.01 436.262 1220.91 440.577 1220.91 445.52C1220.91 450.422 1220.01 454.706 1218.19 458.372C1216.4 462.038 1213.89 464.891 1210.66 466.93C1207.44 468.969 1203.69 469.989 1199.41 469.989ZM1199.41 463.439C1202.66 463.439 1205.34 462.605 1207.44 460.936C1209.54 459.268 1211.1 457.075 1212.11 454.356C1213.12 451.637 1213.62 448.692 1213.62 445.52C1213.62 442.348 1213.12 439.392 1212.11 436.653C1211.1 433.914 1209.54 431.7 1207.44 430.011C1205.34 428.322 1202.66 427.477 1199.41 427.477C1196.16 427.477 1193.48 428.322 1191.38 430.011C1189.28 431.7 1187.72 433.914 1186.71 436.653C1185.7 439.392 1185.2 442.348 1185.2 445.52C1185.2 448.692 1185.7 451.637 1186.71 454.356C1187.72 457.075 1189.28 459.268 1191.38 460.936C1193.48 462.605 1196.16 463.439 1199.41 463.439ZM431.75 562.384C429.258 562.384 426.982 561.776 424.922 560.561C422.863 559.325 421.215 557.677 419.979 555.618C418.764 553.558 418.156 551.282 418.156 548.79C418.156 546.277 418.764 544.001 419.979 541.962C421.215 539.902 422.863 538.265 424.922 537.05C426.982 535.814 429.258 535.196 431.75 535.196C434.263 535.196 436.539 535.814 438.578 537.05C440.637 538.265 442.275 539.902 443.49 541.962C444.726 544.001 445.344 546.277 445.344 548.79C445.344 551.282 444.726 553.558 443.49 555.618C442.275 557.677 440.637 559.325 438.578 560.561C436.539 561.776 434.263 562.384 431.75 562.384ZM524.188 574H504.662V510.727H525.053C531.19 510.727 536.442 511.994 540.809 514.527C545.175 517.04 548.522 520.655 550.85 525.371C553.177 530.067 554.341 535.69 554.341 542.24C554.341 548.831 553.167 554.505 550.819 559.263C548.471 564 545.052 567.646 540.562 570.2C536.072 572.733 530.614 574 524.188 574ZM512.324 567.203H523.693C528.925 567.203 533.26 566.194 536.7 564.175C540.14 562.157 542.704 559.284 544.393 555.556C546.082 551.828 546.926 547.389 546.926 542.24C546.926 537.132 546.092 532.735 544.424 529.048C542.755 525.341 540.263 522.498 536.947 520.521C533.631 518.523 529.501 517.524 524.558 517.524H512.324V567.203ZM586.101 574.989C581.528 574.989 577.584 573.979 574.268 571.961C570.973 569.922 568.429 567.08 566.637 563.434C564.866 559.768 563.98 555.504 563.98 550.643C563.98 545.783 564.866 541.499 566.637 537.791C568.429 534.063 570.921 531.159 574.114 529.079C577.327 526.978 581.075 525.928 585.359 525.928C587.831 525.928 590.272 526.339 592.681 527.163C595.091 527.987 597.285 529.326 599.262 531.18C601.239 533.013 602.815 535.443 603.989 538.471C605.163 541.499 605.75 545.227 605.75 549.655V552.744H569.17V546.442H598.335C598.335 543.764 597.8 541.375 596.729 539.274C595.678 537.173 594.175 535.515 592.218 534.3C590.282 533.085 587.996 532.477 585.359 532.477C582.455 532.477 579.942 533.198 577.821 534.64C575.72 536.061 574.103 537.915 572.971 540.201C571.838 542.487 571.271 544.938 571.271 547.554V551.756C571.271 555.339 571.889 558.377 573.125 560.87C574.381 563.341 576.122 565.226 578.346 566.523C580.571 567.8 583.156 568.439 586.101 568.439C588.016 568.439 589.746 568.171 591.291 567.636C592.857 567.08 594.206 566.256 595.338 565.164C596.471 564.052 597.347 562.672 597.964 561.024L605.009 563.001C604.267 565.391 603.021 567.491 601.27 569.304C599.52 571.096 597.357 572.496 594.782 573.506C592.208 574.494 589.314 574.989 586.101 574.989ZM617.83 574V510.727H625.121V534.084H625.739C626.275 533.26 627.016 532.21 627.963 530.933C628.931 529.635 630.311 528.482 632.103 527.472C633.916 526.442 636.367 525.928 639.456 525.928C643.452 525.928 646.974 526.926 650.022 528.924C653.071 530.922 655.45 533.754 657.159 537.42C658.869 541.087 659.723 545.412 659.723 550.396C659.723 555.422 658.869 559.778 657.159 563.465C655.45 567.131 653.081 569.973 650.053 571.992C647.026 573.99 643.534 574.989 639.58 574.989C636.532 574.989 634.091 574.484 632.258 573.475C630.425 572.445 629.014 571.281 628.025 569.984C627.037 568.665 626.275 567.574 625.739 566.709H624.874V574H617.83ZM624.998 550.273C624.998 553.857 625.523 557.018 626.573 559.757C627.624 562.476 629.158 564.608 631.176 566.153C633.195 567.677 635.667 568.439 638.591 568.439C641.64 568.439 644.183 567.636 646.222 566.029C648.282 564.402 649.827 562.219 650.857 559.479C651.907 556.719 652.432 553.651 652.432 550.273C652.432 546.936 651.917 543.929 650.887 541.251C649.878 538.553 648.344 536.422 646.284 534.856C644.245 533.27 641.681 532.477 638.591 532.477C635.625 532.477 633.133 533.229 631.115 534.733C629.096 536.216 627.572 538.296 626.542 540.973C625.512 543.63 624.998 546.73 624.998 550.273ZM700.783 554.598V526.545H708.074V574H700.783V565.967H700.288C699.176 568.377 697.446 570.426 695.098 572.115C692.75 573.784 689.784 574.618 686.2 574.618C683.234 574.618 680.598 573.969 678.291 572.672C675.984 571.353 674.172 569.376 672.854 566.74C671.536 564.083 670.876 560.736 670.876 556.699V526.545H678.168V556.205C678.168 559.665 679.136 562.425 681.072 564.484C683.028 566.544 685.521 567.574 688.548 567.574C690.361 567.574 692.204 567.11 694.078 566.184C695.973 565.257 697.559 563.836 698.836 561.92C700.134 560.005 700.783 557.564 700.783 554.598ZM740.583 592.784C737.061 592.784 734.033 592.331 731.5 591.425C728.967 590.539 726.855 589.365 725.166 587.903C723.498 586.461 722.17 584.916 721.181 583.268L726.989 579.19C727.648 580.055 728.483 581.044 729.492 582.156C730.501 583.289 731.881 584.267 733.632 585.091C735.403 585.936 737.72 586.358 740.583 586.358C744.414 586.358 747.576 585.431 750.068 583.577C752.56 581.724 753.806 578.82 753.806 574.865V565.226H753.188C752.653 566.091 751.891 567.162 750.902 568.439C749.934 569.695 748.533 570.818 746.7 571.806C744.888 572.775 742.437 573.259 739.347 573.259C735.516 573.259 732.077 572.352 729.028 570.54C726.001 568.727 723.601 566.091 721.83 562.631C720.079 559.17 719.204 554.969 719.204 550.026C719.204 545.165 720.059 540.932 721.768 537.328C723.478 533.703 725.856 530.902 728.905 528.924C731.953 526.926 735.475 525.928 739.471 525.928C742.56 525.928 745.011 526.442 746.824 527.472C748.657 528.482 750.057 529.635 751.025 530.933C752.014 532.21 752.776 533.26 753.312 534.084H754.053V526.545H761.097V575.359C761.097 579.438 760.17 582.754 758.317 585.308C756.484 587.882 754.012 589.767 750.902 590.961C747.812 592.176 744.373 592.784 740.583 592.784ZM740.336 566.709C743.261 566.709 745.732 566.039 747.751 564.701C749.769 563.362 751.304 561.436 752.354 558.923C753.404 556.411 753.93 553.403 753.93 549.902C753.93 546.483 753.415 543.466 752.385 540.85C751.355 538.234 749.831 536.185 747.812 534.702C745.794 533.219 743.302 532.477 740.336 532.477C737.246 532.477 734.672 533.26 732.612 534.825C730.573 536.391 729.039 538.491 728.009 541.128C727 543.764 726.495 546.689 726.495 549.902C726.495 553.197 727.01 556.112 728.04 558.645C729.09 561.158 730.635 563.135 732.674 564.577C734.734 565.998 737.288 566.709 740.336 566.709ZM793.599 592.784C790.077 592.784 787.049 592.331 784.516 591.425C781.982 590.539 779.871 589.365 778.182 587.903C776.514 586.461 775.185 584.916 774.197 583.268L780.005 579.19C780.664 580.055 781.498 581.044 782.507 582.156C783.517 583.289 784.897 584.267 786.647 585.091C788.419 585.936 790.736 586.358 793.599 586.358C797.43 586.358 800.591 585.431 803.083 583.577C805.576 581.724 806.822 578.82 806.822 574.865V565.226H806.204C805.668 566.091 804.906 567.162 803.918 568.439C802.949 569.695 801.549 570.818 799.716 571.806C797.903 572.775 795.452 573.259 792.363 573.259C788.532 573.259 785.092 572.352 782.044 570.54C779.016 568.727 776.617 566.091 774.845 562.631C773.095 559.17 772.219 554.969 772.219 550.026C772.219 545.165 773.074 540.932 774.784 537.328C776.493 533.703 778.872 530.902 781.92 528.924C784.969 526.926 788.491 525.928 792.486 525.928C795.576 525.928 798.027 526.442 799.839 527.472C801.672 528.482 803.073 529.635 804.041 530.933C805.03 532.21 805.792 533.26 806.327 534.084H807.069V526.545H814.113V575.359C814.113 579.438 813.186 582.754 811.332 585.308C809.499 587.882 807.028 589.767 803.918 590.961C800.828 592.176 797.388 592.784 793.599 592.784ZM793.351 566.709C796.276 566.709 798.748 566.039 800.766 564.701C802.785 563.362 804.319 561.436 805.37 558.923C806.42 556.411 806.945 553.403 806.945 549.902C806.945 546.483 806.43 543.466 805.4 540.85C804.371 538.234 802.847 536.185 800.828 534.702C798.81 533.219 796.317 532.477 793.351 532.477C790.262 532.477 787.687 533.26 785.628 534.825C783.589 536.391 782.054 538.491 781.024 541.128C780.015 543.764 779.511 546.689 779.511 549.902C779.511 553.197 780.025 556.112 781.055 558.645C782.106 561.158 783.65 563.135 785.69 564.577C787.749 565.998 790.303 566.709 793.351 566.709ZM827.459 574V526.545H834.751V574H827.459ZM831.167 518.636C829.746 518.636 828.52 518.152 827.49 517.184C826.481 516.216 825.976 515.053 825.976 513.693C825.976 512.334 826.481 511.17 827.49 510.202C828.52 509.234 829.746 508.75 831.167 508.75C832.588 508.75 833.803 509.234 834.812 510.202C835.842 511.17 836.357 512.334 836.357 513.693C836.357 515.053 835.842 516.216 834.812 517.184C833.803 518.152 832.588 518.636 831.167 518.636ZM855.396 545.453V574H848.105V526.545H855.149V533.96H855.767C856.879 531.55 858.568 529.614 860.834 528.152C863.099 526.669 866.024 525.928 869.608 525.928C872.821 525.928 875.632 526.587 878.042 527.905C880.452 529.202 882.326 531.18 883.665 533.837C885.004 536.473 885.673 539.81 885.673 543.847V574H878.382V544.341C878.382 540.613 877.414 537.709 875.478 535.629C873.542 533.528 870.885 532.477 867.507 532.477C865.18 532.477 863.099 532.982 861.266 533.991C859.454 535 858.022 536.473 856.972 538.409C855.921 540.345 855.396 542.693 855.396 545.453ZM918.151 592.784C914.629 592.784 911.602 592.331 909.068 591.425C906.535 590.539 904.424 589.365 902.735 587.903C901.066 586.461 899.738 584.916 898.749 583.268L904.558 579.19C905.217 580.055 906.051 581.044 907.06 582.156C908.069 583.289 909.449 584.267 911.2 585.091C912.971 585.936 915.288 586.358 918.151 586.358C921.982 586.358 925.144 585.431 927.636 583.577C930.128 581.724 931.374 578.82 931.374 574.865V565.226H930.756C930.221 566.091 929.459 567.162 928.47 568.439C927.502 569.695 926.102 570.818 924.269 571.806C922.456 572.775 920.005 573.259 916.916 573.259C913.085 573.259 909.645 572.352 906.597 570.54C903.569 568.727 901.169 566.091 899.398 562.631C897.647 559.17 896.772 554.969 896.772 550.026C896.772 545.165 897.627 540.932 899.336 537.328C901.046 533.703 903.425 530.902 906.473 528.924C909.521 526.926 913.043 525.928 917.039 525.928C920.129 525.928 922.58 526.442 924.392 527.472C926.225 528.482 927.626 529.635 928.594 530.933C929.582 532.21 930.345 533.26 930.88 534.084H931.622V526.545H938.666V575.359C938.666 579.438 937.739 582.754 935.885 585.308C934.052 587.882 931.58 589.767 928.47 590.961C925.381 592.176 921.941 592.784 918.151 592.784ZM917.904 566.709C920.829 566.709 923.301 566.039 925.319 564.701C927.337 563.362 928.872 561.436 929.922 558.923C930.973 556.411 931.498 553.403 931.498 549.902C931.498 546.483 930.983 543.466 929.953 540.85C928.923 538.234 927.399 536.185 925.381 534.702C923.362 533.219 920.87 532.477 917.904 532.477C914.815 532.477 912.24 533.26 910.18 534.825C908.141 536.391 906.607 538.491 905.577 541.128C904.568 543.764 904.063 546.689 904.063 549.902C904.063 553.197 904.578 556.112 905.608 558.645C906.658 561.158 908.203 563.135 910.242 564.577C912.302 565.998 914.856 566.709 917.904 566.709ZM977.47 574V510.727H985.131V567.203H1014.54V574H977.47ZM1044.7 574.989C1040.41 574.989 1036.65 573.969 1033.42 571.93C1030.21 569.891 1027.69 567.038 1025.88 563.372C1024.09 559.706 1023.19 555.422 1023.19 550.52C1023.19 545.577 1024.09 541.262 1025.88 537.575C1027.69 533.888 1030.21 531.025 1033.42 528.986C1036.65 526.947 1040.41 525.928 1044.7 525.928C1048.98 525.928 1052.73 526.947 1055.94 528.986C1059.18 531.025 1061.69 533.888 1063.48 537.575C1065.29 541.262 1066.2 545.577 1066.2 550.52C1066.2 555.422 1065.29 559.706 1063.48 563.372C1061.69 567.038 1059.18 569.891 1055.94 571.93C1052.73 573.969 1048.98 574.989 1044.7 574.989ZM1044.7 568.439C1047.95 568.439 1050.63 567.605 1052.73 565.936C1054.83 564.268 1056.39 562.075 1057.39 559.356C1058.4 556.637 1058.91 553.692 1058.91 550.52C1058.91 547.348 1058.4 544.392 1057.39 541.653C1056.39 538.914 1054.83 536.7 1052.73 535.011C1050.63 533.322 1047.95 532.477 1044.7 532.477C1041.44 532.477 1038.77 533.322 1036.66 535.011C1034.56 536.7 1033.01 538.914 1032 541.653C1030.99 544.392 1030.49 547.348 1030.49 550.52C1030.49 553.692 1030.99 556.637 1032 559.356C1033.01 562.075 1034.56 564.268 1036.66 565.936C1038.77 567.605 1041.44 568.439 1044.7 568.439ZM1096.48 592.784C1092.96 592.784 1089.93 592.331 1087.4 591.425C1084.87 590.539 1082.76 589.365 1081.07 587.903C1079.4 586.461 1078.07 584.916 1077.08 583.268L1082.89 579.19C1083.55 580.055 1084.38 581.044 1085.39 582.156C1086.4 583.289 1087.78 584.267 1089.53 585.091C1091.3 585.936 1093.62 586.358 1096.48 586.358C1100.32 586.358 1103.48 585.431 1105.97 583.577C1108.46 581.724 1109.71 578.82 1109.71 574.865V565.226H1109.09C1108.55 566.091 1107.79 567.162 1106.8 568.439C1105.84 569.695 1104.43 570.818 1102.6 571.806C1100.79 572.775 1098.34 573.259 1095.25 573.259C1091.42 573.259 1087.98 572.352 1084.93 570.54C1081.9 568.727 1079.5 566.091 1077.73 562.631C1075.98 559.17 1075.11 554.969 1075.11 550.026C1075.11 545.165 1075.96 540.932 1077.67 537.328C1079.38 533.703 1081.76 530.902 1084.81 528.924C1087.85 526.926 1091.38 525.928 1095.37 525.928C1098.46 525.928 1100.91 526.442 1102.73 527.472C1104.56 528.482 1105.96 529.635 1106.93 530.933C1107.92 532.21 1108.68 533.26 1109.21 534.084H1109.95V526.545H1117V575.359C1117 579.438 1116.07 582.754 1114.22 585.308C1112.38 587.882 1109.91 589.767 1106.8 590.961C1103.71 592.176 1100.27 592.784 1096.48 592.784ZM1096.24 566.709C1099.16 566.709 1101.63 566.039 1103.65 564.701C1105.67 563.362 1107.2 561.436 1108.26 558.923C1109.31 556.411 1109.83 553.403 1109.83 549.902C1109.83 546.483 1109.32 543.466 1108.29 540.85C1107.26 538.234 1105.73 536.185 1103.71 534.702C1101.7 533.219 1099.2 532.477 1096.24 532.477C1093.15 532.477 1090.57 533.26 1088.51 534.825C1086.47 536.391 1084.94 538.491 1083.91 541.128C1082.9 543.764 1082.4 546.689 1082.4 549.902C1082.4 553.197 1082.91 556.112 1083.94 558.645C1084.99 561.158 1086.54 563.135 1088.58 564.577C1090.63 565.998 1093.19 566.709 1096.24 566.709ZM1149.62 574.989C1145.34 574.989 1141.58 573.969 1138.35 571.93C1135.13 569.891 1132.62 567.038 1130.81 563.372C1129.02 559.706 1128.12 555.422 1128.12 550.52C1128.12 545.577 1129.02 541.262 1130.81 537.575C1132.62 533.888 1135.13 531.025 1138.35 528.986C1141.58 526.947 1145.34 525.928 1149.62 525.928C1153.91 525.928 1157.66 526.947 1160.87 528.986C1164.1 531.025 1166.62 533.888 1168.41 537.575C1170.22 541.262 1171.13 545.577 1171.13 550.52C1171.13 555.422 1170.22 559.706 1168.41 563.372C1166.62 567.038 1164.1 569.891 1160.87 571.93C1157.66 573.969 1153.91 574.989 1149.62 574.989ZM1149.62 568.439C1152.88 568.439 1155.56 567.605 1157.66 565.936C1159.76 564.268 1161.31 562.075 1162.32 559.356C1163.33 556.637 1163.84 553.692 1163.84 550.52C1163.84 547.348 1163.33 544.392 1162.32 541.653C1161.31 538.914 1159.76 536.7 1157.66 535.011C1155.56 533.322 1152.88 532.477 1149.62 532.477C1146.37 532.477 1143.69 533.322 1141.59 535.011C1139.49 536.7 1137.94 538.914 1136.93 541.653C1135.92 544.392 1135.41 547.348 1135.41 550.52C1135.41 553.692 1135.92 556.637 1136.93 559.356C1137.94 562.075 1139.49 564.268 1141.59 565.936C1143.69 567.605 1146.37 568.439 1149.62 568.439ZM301.25 667.384C298.758 667.384 296.482 666.776 294.422 665.561C292.363 664.325 290.715 662.677 289.479 660.618C288.264 658.558 287.656 656.282 287.656 653.79C287.656 651.277 288.264 649.001 289.479 646.962C290.715 644.902 292.363 643.265 294.422 642.05C296.482 640.814 298.758 640.196 301.25 640.196C303.763 640.196 306.039 640.814 308.078 642.05C310.137 643.265 311.775 644.902 312.99 646.962C314.226 649.001 314.844 651.277 314.844 653.79C314.844 656.282 314.226 658.558 312.99 660.618C311.775 662.677 310.137 664.325 308.078 665.561C306.039 666.776 303.763 667.384 301.25 667.384ZM424.335 615.727V679H416.92L382.442 629.321H381.824V679H374.162V615.727H381.577L416.179 665.53H416.797V615.727H424.335ZM452.643 680.112C449.636 680.112 446.907 679.546 444.456 678.413C442.005 677.26 440.058 675.602 438.616 673.439C437.175 671.256 436.454 668.619 436.454 665.53C436.454 662.811 436.989 660.607 438.06 658.918C439.131 657.209 440.563 655.87 442.355 654.902C444.147 653.934 446.124 653.213 448.286 652.739C450.47 652.245 452.663 651.854 454.867 651.565C457.751 651.195 460.088 650.917 461.88 650.731C463.693 650.525 465.011 650.185 465.835 649.712C466.679 649.238 467.101 648.414 467.101 647.24V646.993C467.101 643.945 466.267 641.576 464.599 639.887C462.951 638.198 460.449 637.354 457.092 637.354C453.611 637.354 450.882 638.116 448.904 639.64C446.927 641.164 445.537 642.791 444.734 644.521L437.813 642.05C439.049 639.166 440.697 636.921 442.756 635.315C444.837 633.687 447.102 632.555 449.553 631.916C452.025 631.257 454.455 630.928 456.844 630.928C458.369 630.928 460.119 631.113 462.097 631.484C464.094 631.834 466.02 632.565 467.874 633.677C469.748 634.789 471.303 636.468 472.539 638.713C473.775 640.958 474.393 643.965 474.393 647.734V679H467.101V672.574H466.731C466.236 673.604 465.413 674.706 464.259 675.88C463.106 677.054 461.571 678.053 459.656 678.876C457.74 679.7 455.403 680.112 452.643 680.112ZM453.755 673.562C456.638 673.562 459.069 672.996 461.046 671.863C463.044 670.73 464.547 669.268 465.557 667.476C466.587 665.684 467.101 663.8 467.101 661.822V655.149C466.793 655.52 466.113 655.86 465.062 656.169C464.033 656.457 462.838 656.714 461.479 656.941C460.14 657.147 458.832 657.332 457.555 657.497C456.299 657.641 455.279 657.765 454.496 657.868C452.601 658.115 450.83 658.517 449.182 659.073C447.555 659.608 446.237 660.422 445.228 661.513C444.239 662.585 443.745 664.047 443.745 665.901C443.745 668.434 444.682 670.349 446.556 671.647C448.451 672.924 450.851 673.562 453.755 673.562ZM524.805 631.545L507.257 679H499.842L482.294 631.545H490.203L503.303 669.361H503.797L516.896 631.545H524.805ZM559.887 679V615.727H582.007C586.415 615.727 590.05 616.489 592.913 618.013C595.776 619.517 597.908 621.546 599.308 624.1C600.709 626.633 601.409 629.445 601.409 632.534C601.409 635.253 600.925 637.498 599.957 639.269C599.01 641.04 597.753 642.441 596.188 643.471C594.643 644.501 592.965 645.263 591.152 645.757V646.375C593.088 646.499 595.035 647.178 596.991 648.414C598.948 649.65 600.585 651.421 601.904 653.728C603.222 656.035 603.881 658.857 603.881 662.193C603.881 665.365 603.16 668.218 601.718 670.751C600.276 673.284 598.001 675.293 594.89 676.776C591.78 678.259 587.733 679 582.749 679H559.887ZM567.548 672.203H582.749C587.754 672.203 591.307 671.235 593.407 669.299C595.529 667.342 596.59 664.974 596.59 662.193C596.59 660.051 596.044 658.074 594.952 656.261C593.861 654.428 592.306 652.966 590.287 651.874C588.269 650.762 585.879 650.206 583.119 650.206H567.548V672.203ZM567.548 643.533H581.76C584.067 643.533 586.147 643.08 588.001 642.173C589.875 641.267 591.358 639.99 592.45 638.342C593.562 636.695 594.118 634.759 594.118 632.534C594.118 629.754 593.15 627.395 591.214 625.459C589.278 623.502 586.209 622.524 582.007 622.524H567.548V643.533ZM629.446 680.112C626.439 680.112 623.71 679.546 621.259 678.413C618.808 677.26 616.862 675.602 615.42 673.439C613.978 671.256 613.257 668.619 613.257 665.53C613.257 662.811 613.793 660.607 614.864 658.918C615.935 657.209 617.366 655.87 619.158 654.902C620.95 653.934 622.928 653.213 625.09 652.739C627.273 652.245 629.467 651.854 631.671 651.565C634.554 651.195 636.892 650.917 638.684 650.731C640.496 650.525 641.815 650.185 642.638 649.712C643.483 649.238 643.905 648.414 643.905 647.24V646.993C643.905 643.945 643.071 641.576 641.403 639.887C639.755 638.198 637.252 637.354 633.895 637.354C630.414 637.354 627.685 638.116 625.708 639.64C623.731 641.164 622.341 642.791 621.537 644.521L614.617 642.05C615.853 639.166 617.5 636.921 619.56 635.315C621.64 633.687 623.906 632.555 626.357 631.916C628.828 631.257 631.259 630.928 633.648 630.928C635.172 630.928 636.923 631.113 638.9 631.484C640.898 631.834 642.824 632.565 644.678 633.677C646.552 634.789 648.107 636.468 649.343 638.713C650.578 640.958 651.196 643.965 651.196 647.734V679H643.905V672.574H643.534C643.04 673.604 642.216 674.706 641.063 675.88C639.909 677.054 638.375 678.053 636.46 678.876C634.544 679.7 632.206 680.112 629.446 680.112ZM630.559 673.562C633.442 673.562 635.873 672.996 637.85 671.863C639.848 670.73 641.351 669.268 642.36 667.476C643.39 665.684 643.905 663.8 643.905 661.822V655.149C643.596 655.52 642.917 655.86 641.866 656.169C640.836 656.457 639.642 656.714 638.282 656.941C636.944 657.147 635.636 657.332 634.359 657.497C633.102 657.641 632.083 657.765 631.3 657.868C629.405 658.115 627.634 658.517 625.986 659.073C624.359 659.608 623.041 660.422 622.032 661.513C621.043 662.585 620.549 664.047 620.549 665.901C620.549 668.434 621.486 670.349 623.36 671.647C625.255 672.924 627.654 673.562 630.559 673.562ZM664.504 679V631.545H671.548V638.713H672.043C672.908 636.365 674.473 634.46 676.739 632.998C679.004 631.535 681.558 630.804 684.401 630.804C684.936 630.804 685.606 630.814 686.409 630.835C687.212 630.855 687.82 630.886 688.232 630.928V638.342C687.984 638.281 687.418 638.188 686.532 638.064C685.667 637.92 684.751 637.848 683.783 637.848C681.476 637.848 679.416 638.332 677.604 639.3C675.812 640.248 674.391 641.566 673.34 643.255C672.31 644.923 671.796 646.828 671.796 648.97V679H664.504Z" fill="#D890AF"/>
</svg>
