<svg width="1920" height="1920" viewBox="0 0 1920 1920" fill="none" xmlns="http://www.w3.org/2000/svg">
<g clip-path="url(#clip0_4_9)">
<rect width="1920" height="1920" fill="#59260A"/>
<rect width="1920" height="1920" fill="url(#paint0_radial_4_9)"/>
<path d="M966 1120C961.208 1126.57 956.263 1131.75 950.934 1135.61C905.797 1189.55 797.5 1323.5 797.5 1323.5C734.642 1316.68 717.729 1300.48 719.5 1250C651.5 1250 643.431 1241.64 682 1200C582 1211 593.226 1190.07 666 1146.5C425 1162.5 576.58 993.736 730.5 1066.5C864.129 1129.67 915.84 1161.06 950.934 1135.61C967.875 1115.37 975.918 1106.39 966 1120Z" fill="url(#paint1_linear_4_9)" stroke="#59260A" stroke-width="5"/>
<path d="M1070 1645.5C779.5 1616 719 1667.5 850 1656L1070 1645.5Z" fill="url(#paint2_linear_4_9)" stroke="#B25622" stroke-width="5"/>
<path d="M856.5 1656C1004.5 1629 1136 1635 1136 1635L1219.5 1656C1219.5 1656 999.5 1710 863 1710C726.5 1710 708.5 1683 856.5 1656Z" fill="url(#paint3_linear_4_9)" stroke="#AA8239" stroke-width="5"/>
<path d="M860.5 1708.5C727.57 1756.79 935 1752.5 1223.5 1665L860.5 1708.5Z" fill="url(#paint4_linear_4_9)" stroke="#B25622" stroke-width="5"/>
<path d="M1161.5 1711C926 1692 864 1780.5 994 1744.5L1161.5 1711Z" fill="url(#paint5_linear_4_9)" stroke="#B2661B" stroke-width="5"/>
<path d="M997 1744.5C1141 1691.5 1148.5 1714 1148.5 1714L1209.5 1744.5C1209.5 1744.5 1134 1821.5 1002.5 1827C871 1832.5 853 1797.5 997 1744.5Z" fill="url(#paint6_linear_4_9)" stroke="#B25622" stroke-width="5"/>
<path d="M1263 1719C1227.87 1680.14 1221.42 1655.86 1226 1609.5H1139.5C1152.9 1697.62 1144.32 1746.32 1009.5 1828C889.937 1880.91 875.5 1916 1173 1872C1470.5 1828 1454.97 1733.44 1263 1719Z" fill="url(#paint7_linear_4_9)" stroke="#B2661B" stroke-width="5"/>
<path fill-rule="evenodd" clip-rule="evenodd" d="M1143 1168C1109 1130.5 1109.45 1034.17 1163 949.5L1029.5 963L951.989 1080.1C951.502 1080.56 951.006 1081.02 950.5 1081.5C936.761 1094.48 922.716 1107.11 908.786 1119.63L908.785 1119.63C821.832 1197.8 739.342 1271.96 763.5 1403C766.272 1369.37 768.521 1357.15 774 1349.5L774.035 1349.45C792.217 1583.99 872.534 1627.06 1109 1586C1126.5 1539.74 1142.39 1454.59 1151.01 1372.82C1203.67 1478.97 1304 1655.75 1369 1611C1460.5 1548 1546.23 1301.41 1412 1177.5C1413.46 1250.72 1378.37 1281.92 1358.18 1299.89C1353.73 1303.85 1350 1307.16 1347.54 1310.14C1355.11 1297.65 1372.85 1259.77 1334.5 1243C1355.79 1290.62 1305.12 1319.53 1161.5 1373L1152.49 1358.14C1160.97 1269.05 1160.29 1187.07 1143 1168Z" fill="url(#paint8_linear_4_9)"/>
<path d="M1163 949.5L1165.11 950.836L1167.86 946.496L1162.75 947.013L1163 949.5ZM1143 1168L1144.85 1166.32V1166.32L1143 1168ZM1029.5 963L1029.25 960.513L1028.07 960.632L1027.42 961.62L1029.5 963ZM951.989 1080.1L953.695 1081.93L953.911 1081.73L954.073 1081.48L951.989 1080.1ZM950.5 1081.5L948.783 1079.68L948.783 1079.68L950.5 1081.5ZM908.786 1119.63L910.44 1121.5L910.449 1121.5L910.458 1121.49L908.786 1119.63ZM908.785 1119.63L907.131 1117.76L907.123 1117.76L907.114 1117.77L908.785 1119.63ZM763.5 1403L761.041 1403.45L765.992 1403.21L763.5 1403ZM774 1349.5L772.012 1347.98L771.989 1348.01L771.968 1348.04L774 1349.5ZM774.035 1349.45L776.528 1349.26L776.021 1342.72L772.047 1347.94L774.035 1349.45ZM1109 1586L1109.43 1588.46L1110.83 1588.22L1111.34 1586.88L1109 1586ZM1151.01 1372.82L1153.25 1371.7L1149.43 1364L1148.53 1372.55L1151.01 1372.82ZM1369 1611L1370.42 1613.06L1369 1611ZM1412 1177.5L1413.7 1175.66L1409.38 1171.68L1409.5 1177.55L1412 1177.5ZM1358.18 1299.89L1356.51 1298.02L1358.18 1299.89ZM1347.54 1310.14L1345.4 1308.85L1349.47 1311.73L1347.54 1310.14ZM1334.5 1243L1335.5 1240.71L1329.58 1238.12L1332.22 1244.02L1334.5 1243ZM1161.5 1373L1159.36 1374.3L1160.43 1376.06L1162.37 1375.34L1161.5 1373ZM1152.49 1358.14L1150 1357.91L1149.92 1358.73L1150.35 1359.44L1152.49 1358.14ZM1160.89 948.164C1133.89 990.846 1120.26 1036.5 1117.67 1076.28C1115.1 1115.94 1123.5 1150.21 1141.15 1169.68L1144.85 1166.32C1128.5 1148.29 1120.13 1115.64 1122.66 1076.6C1125.19 1037.67 1138.56 992.823 1165.11 950.836L1160.89 948.164ZM1029.75 965.487L1163.25 951.987L1162.75 947.013L1029.25 960.513L1029.75 965.487ZM954.073 1081.48L1031.58 964.38L1027.42 961.62L949.904 1078.72L954.073 1081.48ZM952.217 1083.32C952.719 1082.84 953.212 1082.38 953.695 1081.93L950.282 1078.27C949.792 1078.73 949.292 1079.2 948.783 1079.68L952.217 1083.32ZM910.458 1121.49C924.384 1108.97 938.452 1096.32 952.217 1083.32L948.783 1079.68C935.07 1092.64 921.049 1105.24 907.115 1117.77L910.458 1121.49ZM910.44 1121.5L910.44 1121.5L907.132 1117.75L907.131 1117.76L910.44 1121.5ZM765.959 1402.55C742.088 1273.06 823.333 1199.81 910.457 1121.49L907.114 1117.77C820.331 1195.79 736.597 1270.86 761.041 1403.45L765.959 1402.55ZM771.968 1348.04C768.932 1352.28 766.907 1357.65 765.281 1366.03C763.658 1374.39 762.394 1385.98 761.008 1402.79L765.992 1403.21C767.378 1386.39 768.625 1375.05 770.189 1366.98C771.75 1358.93 773.59 1354.37 776.032 1350.96L771.968 1348.04ZM772.047 1347.94L772.012 1347.98L775.988 1351.02L776.023 1350.97L772.047 1347.94ZM1108.57 1583.54C1049.53 1593.79 1000.38 1598.76 959.577 1596.84C918.792 1594.93 886.51 1586.14 861.057 1569C810.2 1534.76 785.615 1466.48 776.528 1349.26L771.543 1349.65C780.637 1466.96 805.301 1537.49 858.265 1573.15C884.722 1590.96 917.993 1599.9 959.342 1601.84C1000.68 1603.78 1050.24 1598.74 1109.43 1588.46L1108.57 1583.54ZM1148.53 1372.55C1139.91 1454.28 1124.05 1539.17 1106.66 1585.12L1111.34 1586.88C1128.96 1540.31 1144.87 1454.9 1153.5 1373.08L1148.53 1372.55ZM1367.58 1608.94C1352.47 1619.34 1335.16 1617.13 1316.23 1605.46C1297.26 1593.77 1277.2 1572.84 1257.36 1546.98C1217.73 1495.31 1179.57 1424.75 1153.25 1371.7L1148.78 1373.93C1175.12 1427.03 1213.45 1497.95 1253.4 1550.02C1273.35 1576.03 1293.85 1597.54 1313.61 1609.72C1333.43 1621.93 1353.03 1625.03 1370.42 1613.06L1367.58 1608.94ZM1410.3 1179.34C1476.54 1240.48 1488.7 1332.07 1472.69 1416.63C1464.7 1458.87 1449.69 1499.22 1431.01 1532.9C1412.31 1566.61 1390.03 1593.49 1367.58 1608.94L1370.42 1613.06C1393.72 1597.01 1416.47 1569.44 1435.38 1535.32C1454.32 1501.18 1469.51 1460.33 1477.6 1417.56C1493.78 1332.09 1481.69 1238.43 1413.7 1175.66L1410.3 1179.34ZM1359.84 1301.76C1369.95 1292.77 1384.04 1280.24 1395.37 1260.67C1406.73 1241.06 1415.24 1214.5 1414.5 1177.45L1409.5 1177.55C1410.22 1213.72 1401.92 1239.38 1391.05 1258.16C1380.15 1276.98 1366.6 1289.05 1356.51 1298.02L1359.84 1301.76ZM1349.47 1311.73C1351.78 1308.94 1355.33 1305.77 1359.84 1301.76L1356.51 1298.02C1352.12 1301.93 1348.22 1305.39 1345.61 1308.55L1349.47 1311.73ZM1333.5 1245.29C1342.69 1249.31 1348.33 1254.5 1351.63 1260.08C1354.94 1265.67 1356.02 1271.86 1355.74 1278.06C1355.18 1290.56 1349.11 1302.72 1345.4 1308.85L1349.68 1311.44C1353.54 1305.07 1360.12 1292.04 1360.74 1278.28C1361.05 1271.36 1359.85 1264.15 1355.93 1257.53C1352.01 1250.91 1345.48 1245.07 1335.5 1240.71L1333.5 1245.29ZM1162.37 1375.34C1234.12 1348.63 1283.01 1327.93 1311.29 1307.84C1325.45 1297.78 1334.72 1287.69 1338.97 1276.79C1343.27 1265.79 1342.31 1254.34 1336.78 1241.98L1332.22 1244.02C1337.33 1255.47 1338.02 1265.49 1334.32 1274.97C1330.57 1284.56 1322.19 1293.96 1308.39 1303.77C1280.75 1323.41 1232.5 1343.9 1160.63 1370.66L1162.37 1375.34ZM1150.35 1359.44L1159.36 1374.3L1163.64 1371.7L1154.62 1356.85L1150.35 1359.44ZM1141.15 1169.68C1144.99 1173.91 1148.17 1182.03 1150.52 1193.72C1152.84 1205.3 1154.28 1219.97 1154.91 1236.91C1156.17 1270.77 1154.23 1313.42 1150 1357.91L1154.98 1358.38C1159.22 1313.77 1161.18 1270.89 1159.91 1236.72C1159.27 1219.64 1157.82 1204.68 1155.42 1192.73C1153.04 1180.91 1149.66 1171.62 1144.85 1166.32L1141.15 1169.68Z" fill="#B25622"/>
<rect x="567" y="131.396" width="899" height="890.604" fill="url(#paint9_radial_4_9)"/>
<rect x="567" y="131.396" width="899" height="890.604" stroke="black"/>
<mask id="path-11-inside-1_4_9" fill="white">
<path fill-rule="evenodd" clip-rule="evenodd" d="M905 44C879 92.4999 858.5 13.0001 905 24C947.704 34.1021 955.829 112.098 892.195 145.677C707.06 186.43 569.498 353.309 571.827 551.301C572.293 590.938 578.335 629.197 589.195 665.333C568.003 727.782 568.846 772.583 597 833.5L671.385 815.051C675.422 819.735 679.563 824.325 683.804 828.819C751.275 943.308 891.479 1022 1053.5 1022C1281.32 1022 1466 866.419 1466 674.5C1466 594.196 1433.67 520.253 1379.37 461.409C1341.1 279.049 1182.56 141.836 991.922 136.341C979.39 45.7154 925.462 2 905 2C883.5 2 857 8.5 854.5 44C856 59.5 866.5 76.5 882 77.5C898 75 903 70 904 62C905 54 905 44 905 44Z"/>
</mask>
<path fill-rule="evenodd" clip-rule="evenodd" d="M905 44C879 92.4999 858.5 13.0001 905 24C947.704 34.1021 955.829 112.098 892.195 145.677C707.06 186.43 569.498 353.309 571.827 551.301C572.293 590.938 578.335 629.197 589.195 665.333C568.003 727.782 568.846 772.583 597 833.5L671.385 815.051C675.422 819.735 679.563 824.325 683.804 828.819C751.275 943.308 891.479 1022 1053.5 1022C1281.32 1022 1466 866.419 1466 674.5C1466 594.196 1433.67 520.253 1379.37 461.409C1341.1 279.049 1182.56 141.836 991.922 136.341C979.39 45.7154 925.462 2 905 2C883.5 2 857 8.5 854.5 44C856 59.5 866.5 76.5 882 77.5C898 75 903 70 904 62C905 54 905 44 905 44Z" fill="url(#paint10_radial_4_9)"/>
<path d="M905 24L906.151 19.1343V19.1343L905 24ZM905 44H910L900.593 41.6377L905 44ZM892.195 145.677L893.27 150.561L893.931 150.415L894.529 150.1L892.195 145.677ZM571.827 551.301L576.827 551.242L571.827 551.301ZM589.195 665.333L593.93 666.94L594.444 665.425L593.983 663.894L589.195 665.333ZM597 833.5L592.461 835.598L594.194 839.347L598.204 838.353L597 833.5ZM671.385 815.051L675.172 811.787L673.165 809.458L670.181 810.198L671.385 815.051ZM683.804 828.819L688.112 826.28L687.826 825.796L687.441 825.387L683.804 828.819ZM1379.37 461.409L1374.47 462.436L1374.76 463.786L1375.69 464.8L1379.37 461.409ZM991.922 136.341L986.969 137.026L987.548 141.217L991.778 141.339L991.922 136.341ZM854.5 44L849.512 43.6488L849.483 44.0657L849.523 44.4817L854.5 44ZM882 77.5L881.678 82.4896L882.228 82.5251L882.772 82.4401L882 77.5ZM906.151 19.1343C893.189 16.0682 883.585 19.1344 877.856 26.1392C872.445 32.7546 871.418 41.8062 872.915 49.0715C873.675 52.761 875.149 56.343 877.387 59.181C879.641 62.0389 882.884 64.3738 887.019 64.7667C891.163 65.1603 895.199 63.5098 898.847 60.4399C902.464 57.3962 905.988 52.7403 909.407 46.3624L900.593 41.6377C897.512 47.3847 894.708 50.8538 892.408 52.7886C890.14 54.6973 888.673 54.8788 887.965 54.8115C887.249 54.7434 886.293 54.3244 885.24 52.989C884.171 51.6336 883.231 49.5828 882.71 47.0536C881.644 41.8813 882.586 36.1518 885.597 32.4703C888.289 29.1783 893.56 26.4319 903.849 28.8658L906.151 19.1343ZM894.529 150.1C927.96 132.458 942.846 102.91 943.473 76.1519C944.092 49.7404 930.583 24.914 906.151 19.1343L903.849 28.8658C922.121 33.1881 934.027 52.4107 933.476 75.9176C932.933 99.0778 920.064 125.318 889.862 141.255L894.529 150.1ZM576.827 551.242C574.526 355.649 710.419 190.811 893.27 150.561L891.121 140.794C703.7 182.05 564.47 350.969 566.827 551.36L576.827 551.242ZM593.983 663.894C583.257 628.202 577.287 590.407 576.827 551.242L566.827 551.36C567.299 591.469 573.414 630.193 584.407 666.772L593.983 663.894ZM601.539 831.402C587.656 801.363 580.636 775.584 579.589 749.788C578.541 723.977 583.457 697.802 593.93 666.94L584.46 663.726C573.741 695.313 568.483 722.763 569.597 750.194C570.712 777.64 578.191 804.72 592.461 835.598L601.539 831.402ZM670.181 810.198L595.797 828.647L598.204 838.353L672.589 819.904L670.181 810.198ZM687.441 825.387C683.251 820.948 679.16 816.413 675.172 811.787L667.598 818.316C671.684 823.056 675.875 827.702 680.168 832.251L687.441 825.387ZM1053.5 1017C893.018 1017 754.572 939.056 688.112 826.28L679.497 831.357C747.977 947.561 889.939 1027 1053.5 1027V1017ZM1461 674.5C1461 862.888 1279.39 1017 1053.5 1017V1027C1283.24 1027 1471 869.949 1471 674.5H1461ZM1375.69 464.8C1429.24 522.83 1461 595.594 1461 674.5H1471C1471 592.797 1438.09 517.677 1383.04 458.018L1375.69 464.8ZM991.778 141.339C1180.06 146.766 1336.67 282.287 1374.47 462.436L1384.26 460.382C1345.53 275.811 1185.07 136.906 992.066 131.343L991.778 141.339ZM905 7C908.631 7 914.824 9.07901 922.645 14.3843C930.296 19.5747 938.982 27.5033 947.513 38.2879C964.555 59.8322 980.823 92.5791 986.969 137.026L996.875 135.656C990.489 89.477 973.526 55.0536 955.356 32.0838C946.281 20.6114 936.865 11.9471 928.258 6.10875C919.821 0.385411 911.6 -3 905 -3V7ZM859.488 44.3513C860.639 28.0053 867.163 19.0371 875.29 13.9182C883.737 8.59718 894.612 7 905 7V-3C893.887 -3 880.762 -1.34718 869.96 5.45681C858.837 12.4629 850.861 24.4947 849.512 43.6488L859.488 44.3513ZM882.322 72.5104C876.437 72.1307 871.15 68.7031 866.995 63.1812C862.832 57.6485 860.144 50.4097 859.477 43.5184L849.523 44.4817C850.356 53.0903 853.668 62.1015 859.005 69.1938C864.35 76.2969 872.063 81.8693 881.678 82.4896L882.322 72.5104ZM899.039 61.3799C898.67 64.3321 897.693 66.2421 895.602 67.8303C893.214 69.6434 888.945 71.3541 881.228 72.5599L882.772 82.4401C891.055 81.1459 897.287 79.1066 901.649 75.7947C906.307 72.2579 908.331 67.6679 908.962 62.6201L899.039 61.3799ZM905 44C900 44 900 43.9998 900 43.9997C900 43.9997 900 43.9995 900 43.9995C900 43.9995 900 43.9996 900 43.9999C900 44.0005 900 44.0016 900 44.0034C900 44.0069 900 44.0128 900 44.021C900 44.0375 900 44.0633 900 44.0981C899.999 44.1677 899.999 44.2731 899.998 44.4116C899.996 44.6885 899.992 45.0971 899.985 45.614C899.97 46.6486 899.939 48.113 899.878 49.8216C899.755 53.2643 899.512 57.595 899.039 61.3799L908.962 62.6201C909.488 58.405 909.745 53.7357 909.872 50.1784C909.936 48.3871 909.968 46.8514 909.984 45.761C909.992 45.2155 909.996 44.7803 909.998 44.4791C909.999 44.3285 909.999 44.2113 910 44.1305C910 44.0901 910 44.0588 910 44.0369C910 44.026 910 44.0174 910 44.0113C910 44.0082 910 44.0057 910 44.0038C910 44.0029 910 44.0021 910 44.0015C910 44.0012 910 44.0008 910 44.0006C910 44.0003 910 44 905 44Z" fill="#B25622" mask="url(#path-11-inside-1_4_9)"/>
<ellipse cx="1006" cy="647.5" rx="139" ry="189.5" fill="#D9D9D9"/>
<ellipse cx="1024.41" cy="575.978" rx="92" ry="133.949" transform="rotate(-14.5129 1024.41 575.978)" fill="url(#paint11_linear_4_9)"/>
<ellipse cx="1028.36" cy="563.633" rx="68.5" ry="94.7124" transform="rotate(-14.9755 1028.36 563.633)" fill="black"/>
<path d="M909.5 510L883 555L892 522L909.5 491L929.5 469.5L958 448.5L988 438H1025L1054 448.5L1083.5 469.5L1102 491L1119 518L1129.5 546V556.5L1114.5 527L1083 487.5L1046.5 463.5L1003.5 454.5L951.5 471C933.601 480.948 924.644 490.332 909.5 510Z" fill="#B2661B" stroke="#D9D9D9"/>
<ellipse cx="960" cy="543" rx="22" ry="21" fill="url(#paint12_linear_4_9)"/>
<path fill-rule="evenodd" clip-rule="evenodd" d="M1141.96 640.789C1141.09 693.762 1125.8 741.401 1101.74 775.981C1077.11 811.395 1043.62 832.734 1007.18 832.998C1006.96 832.999 1006.73 833 1006.5 833C1006.27 833 1006.04 832.999 1005.82 832.998C969.376 832.734 935.888 811.395 911.256 775.981C887.205 741.401 871.911 693.762 871.039 640.789C871.91 590.359 887.176 545.004 911.191 512.075C935.932 478.152 969.69 457.704 1006.5 457.704C1043.31 457.704 1077.07 478.152 1101.81 512.075C1125.82 545.004 1141.09 590.359 1141.96 640.789ZM1007.23 837.997C1084.49 837.462 1147 751.417 1147 645.352C1147 643.826 1146.99 642.304 1146.96 640.787C1146.99 639.196 1147 637.6 1147 636C1147 524.438 1084.1 434 1006.5 434C928.904 434 866 524.438 866 636C866 637.6 866.013 639.196 866.039 640.787C866.013 642.304 866 643.826 866 645.352C866 751.417 928.512 837.462 1005.77 837.997C1006.02 837.999 1006.26 838 1006.5 838C1006.74 838 1006.98 837.999 1007.23 837.997ZM885.478 547.43C892.139 528.277 900.883 510.934 911.256 496.019C936.043 460.384 969.796 439 1006.5 439C1043.2 439 1076.96 460.384 1101.74 496.019C1112.12 510.934 1120.86 528.277 1127.52 547.43C1103.07 490.73 1058.02 452.704 1006.5 452.704C954.977 452.704 909.932 490.73 885.478 547.43Z" fill="#59260A"/>
<path d="M958.5 342C1059.41 335.733 1101.54 368.863 1160.5 469" stroke="url(#paint13_linear_4_9)" stroke-opacity="0.8" stroke-width="5" stroke-linecap="round"/>
<ellipse cx="677.077" cy="667.159" rx="81.7206" ry="144.21" transform="rotate(-13.3208 677.077 667.159)" fill="#D9D9D9"/>
<ellipse cx="70.0928" cy="116.667" rx="70.0928" ry="116.667" transform="matrix(0.948275 -0.317451 0.287962 0.957642 590 552.502)" fill="url(#paint14_linear_4_9)"/>
<ellipse cx="51.6432" cy="82.1043" rx="51.6432" ry="82.1043" transform="matrix(0.979932 -0.199333 0.179739 0.983714 634.086 553.767)" fill="black"/>
<path d="M607.5 589L596.5 625.5L592.5 630L599 585L610.5 557.5L625.5 534L650 519L671 516.5L703.5 529L727.5 551L738.5 568L752 595.5L749 601L723 564L685.5 540L650 543.5L625.5 560.5L607.5 589Z" fill="#B2661B" stroke="#59260A" stroke-linecap="round"/>
<path d="M767.646 661.005C773.495 698.426 769.112 733.698 757.427 760.449C745.728 787.231 726.894 805.141 703.957 808.727C681.021 812.312 657.619 801.003 638.305 779.068C619.015 757.159 604.078 724.907 598.229 687.486C592.38 650.066 596.763 614.794 608.447 588.043C620.146 561.26 638.98 543.35 661.917 539.765C684.854 536.18 708.255 547.488 727.569 569.424C746.859 591.333 761.797 623.585 767.646 661.005Z" stroke="#59260A" stroke-width="5"/>
<path d="M765.801 649.209C772.165 689.923 768.231 728.176 756.852 757.078C745.447 786.045 726.793 805.157 703.957 808.727C681.121 812.296 657.524 799.787 637.825 775.683C618.169 751.631 602.749 716.404 596.385 675.689C590.021 634.975 593.955 596.722 605.335 567.82C616.739 538.853 635.393 519.741 658.229 516.171C681.065 512.602 704.662 525.111 724.361 549.215C744.018 573.267 759.438 608.494 765.801 649.209Z" stroke="#59260A" stroke-width="5"/>
<ellipse cx="746" cy="669" rx="8" ry="9" fill="#D9D9D9" fill-opacity="0.3"/>
<circle cx="1086.5" cy="617.5" r="11.5" fill="#D9D9D9" fill-opacity="0.3"/>
<path d="M574.5 508C618.619 452.209 646.345 432.746 703 426.5" stroke="url(#paint15_linear_4_9)" stroke-width="5" stroke-linecap="round"/>
<path d="M676 807L614.5 770.5L663 941.5C756.246 1013.68 796.4 1028.85 852 1022.5L801.5 760C763.201 759.888 742.383 766.593 708 807H676Z" fill="url(#paint16_linear_4_9)"/>
<path d="M488 941.5C544.555 1016.52 621.781 1004.52 662 941.5L634 781C565.271 746.105 527.06 727.401 488 771.5C484.313 763.633 431.445 866.482 488 941.5Z" fill="url(#paint17_linear_4_9)"/>
<path d="M936 806C853.781 768.798 813.391 752.627 788.5 762.5L744 786L854.5 1026C896.483 1100.63 994.5 1112 1058 1051C1121.5 990 983.5 811 983.5 811C968.45 815.542 957.782 813.95 936 806Z" fill="url(#paint18_linear_4_9)"/>
<path d="M975 818C1011.88 785.973 1029.23 773.68 1046.5 775C1100.75 788.702 1122.18 862.297 1118.5 936C1115.1 1004.11 1059.88 1048.16 1056.28 1053.87L1056.5 1054.5C1056.04 1054.56 1055.99 1054.34 1056.28 1053.87L975 818Z" fill="url(#paint19_linear_4_9)"/>
<g filter="url(#filter0_dd_4_9)">
<path d="M1038 860C1038 860 1004.89 1014.51 853.5 1024C702.113 1033.49 595.702 850.132 574 860C552.298 869.868 551.815 872.769 552 890.5M665 942C596.273 1054.14 412.365 958.54 473 797C533.635 635.459 755.503 916.429 841.5 860M678.5 806.5C700.75 808.437 707.434 806.924 713.5 802C781.337 713.683 894.278 789.819 939.5 806.5C984.722 823.181 988 806.5 988 806.5C1033.74 767.262 1057.64 758.684 1092 806.5C1202.42 1032.5 945.387 1188.6 851.5 1025" stroke="#59260A" stroke-width="5"/>
</g>
<path d="M1124.79 1295.07C1116.45 1298.55 1113.07 1298.61 1121.5 1291L1124.79 1295.07C1151.89 1283.75 1231.39 1236.31 1127.98 1299.02L1377 1607C1175.85 1752.73 619.5 1607 986 1385C1052.56 1344.68 1097.97 1317.21 1127.98 1299.02L1124.79 1295.07Z" fill="url(#paint20_linear_4_9)"/>
<path d="M1121.5 1291C1077.73 1330.54 1352.5 1163 986 1385C619.5 1607 1175.85 1752.73 1377 1607L1121.5 1291Z" stroke="#B25622" stroke-width="5"/>
<path d="M1116 1215C1165.42 1197.28 1377.23 1331.08 1290.5 1413.5C1359.46 1452 1362.81 1467.5 1308 1484.5C1386.51 1499.98 1387.82 1511.09 1308 1535.5L1391 1607.5C1225.98 1675.25 1032.33 1545.4 1042.5 1467.5C1052.67 1389.6 1077.78 1393.76 1089.5 1333.5C1083.71 1323.64 1066.58 1232.72 1116 1215Z" fill="url(#paint21_linear_4_9)" stroke="#B25622" stroke-width="5"/>
<ellipse cx="641.098" cy="602.473" rx="17.5" ry="18" transform="rotate(-12.991 641.098 602.473)" fill="url(#paint22_linear_4_9)"/>
</g>
<defs>
<filter id="filter0_dd_4_9" x="454.423" y="743.773" width="671.14" height="359.491" filterUnits="userSpaceOnUse" color-interpolation-filters="sRGB">
<feFlood flood-opacity="0" result="BackgroundImageFix"/>
<feColorMatrix in="SourceAlpha" type="matrix" values="0 0 0 0 0 0 0 0 0 0 0 0 0 0 0 0 0 0 127 0" result="hardAlpha"/>
<feOffset dy="4"/>
<feGaussianBlur stdDeviation="2"/>
<feComposite in2="hardAlpha" operator="out"/>
<feColorMatrix type="matrix" values="0 0 0 0 0 0 0 0 0 0 0 0 0 0 0 0 0 0 0.25 0"/>
<feBlend mode="normal" in2="BackgroundImageFix" result="effect1_dropShadow_4_9"/>
<feColorMatrix in="SourceAlpha" type="matrix" values="0 0 0 0 0 0 0 0 0 0 0 0 0 0 0 0 0 0 127 0" result="hardAlpha"/>
<feOffset dy="4"/>
<feGaussianBlur stdDeviation="2"/>
<feComposite in2="hardAlpha" operator="out"/>
<feColorMatrix type="matrix" values="0 0 0 0 0 0 0 0 0 0 0 0 0 0 0 0 0 0 0.25 0"/>
<feBlend mode="normal" in2="effect1_dropShadow_4_9" result="effect2_dropShadow_4_9"/>
<feBlend mode="normal" in="SourceGraphic" in2="effect2_dropShadow_4_9" result="shape"/>
</filter>
<radialGradient id="paint0_radial_4_9" cx="0" cy="0" r="1" gradientUnits="userSpaceOnUse" gradientTransform="translate(960 960) rotate(90) scale(1215.11)">
<stop stop-color="#152C55"/>
<stop offset="1" stop-color="#0E5440"/>
</radialGradient>
<linearGradient id="paint1_linear_4_9" x1="911.5" y1="1186" x2="595.5" y2="1113" gradientUnits="userSpaceOnUse">
<stop offset="0.167901" stop-color="#59260A"/>
<stop offset="1" stop-color="#B25622"/>
</linearGradient>
<linearGradient id="paint2_linear_4_9" x1="927.128" y1="1636.25" x2="927.128" y2="1657.71" gradientUnits="userSpaceOnUse">
<stop stop-color="#59260A"/>
<stop offset="1" stop-color="#AA8239"/>
</linearGradient>
<linearGradient id="paint3_linear_4_9" x1="792" y1="1697" x2="1121.5" y2="1672" gradientUnits="userSpaceOnUse">
<stop stop-color="#B2661B"/>
<stop offset="1" stop-color="#59260A"/>
</linearGradient>
<linearGradient id="paint4_linear_4_9" x1="1021.44" y1="1665" x2="1021.44" y2="1739.27" gradientUnits="userSpaceOnUse">
<stop stop-color="#AA8239"/>
<stop offset="1" stop-color="#B2661B"/>
</linearGradient>
<linearGradient id="paint5_linear_4_9" x1="962" y1="1746" x2="1100" y2="1708" gradientUnits="userSpaceOnUse">
<stop stop-color="#B25622"/>
<stop offset="1" stop-color="#59260A"/>
</linearGradient>
<linearGradient id="paint6_linear_4_9" x1="915.5" y1="1807.5" x2="1142" y2="1725.5" gradientUnits="userSpaceOnUse">
<stop stop-color="#B2661B"/>
<stop offset="1" stop-color="#59260A"/>
</linearGradient>
<linearGradient id="paint7_linear_4_9" x1="1166.16" y1="1609.5" x2="964.5" y2="1870" gradientUnits="userSpaceOnUse">
<stop offset="0.234863" stop-color="#8D4319"/>
<stop offset="0.596019" stop-color="#AA8239"/>
</linearGradient>
<linearGradient id="paint8_linear_4_9" x1="1120.37" y1="949.5" x2="1120.37" y2="1618.12" gradientUnits="userSpaceOnUse">
<stop offset="0.473958" stop-color="#D7CAAA"/>
<stop offset="1" stop-color="#59260A"/>
</linearGradient>
<radialGradient id="paint9_radial_4_9" cx="0" cy="0" r="1" gradientUnits="userSpaceOnUse" gradientTransform="translate(1016.5 576.698) rotate(90) scale(445.302 449.5)">
<stop stop-color="white"/>
<stop offset="1" stop-color="white" stop-opacity="0"/>
</radialGradient>
<radialGradient id="paint10_radial_4_9" cx="0" cy="0" r="1" gradientUnits="userSpaceOnUse" gradientTransform="translate(1019 675.5) rotate(-90) scale(526.5 461.566)">
<stop stop-color="#59260A"/>
<stop offset="0.177083" stop-color="#B25622"/>
<stop offset="1" stop-color="white"/>
</radialGradient>
<linearGradient id="paint11_linear_4_9" x1="1024.41" y1="442.029" x2="1024.41" y2="709.926" gradientUnits="userSpaceOnUse">
<stop stop-color="#1F69EB"/>
<stop offset="1" stop-color="#0E5440"/>
</linearGradient>
<linearGradient id="paint12_linear_4_9" x1="945.5" y1="522" x2="982" y2="564" gradientUnits="userSpaceOnUse">
<stop stop-color="#D9D9D9" stop-opacity="0.6"/>
<stop offset="1" stop-color="#D9D9D9" stop-opacity="0.2"/>
</linearGradient>
<linearGradient id="paint13_linear_4_9" x1="1059.5" y1="341.266" x2="1059.5" y2="469" gradientUnits="userSpaceOnUse">
<stop stop-color="#59260A"/>
<stop offset="1" stop-color="#59260A" stop-opacity="0"/>
</linearGradient>
<linearGradient id="paint14_linear_4_9" x1="70.0928" y1="0" x2="70.0928" y2="233.335" gradientUnits="userSpaceOnUse">
<stop stop-color="#1F69EB"/>
<stop offset="1" stop-color="#0E5440"/>
</linearGradient>
<linearGradient id="paint15_linear_4_9" x1="590.5" y1="508" x2="703" y2="427" gradientUnits="userSpaceOnUse">
<stop stop-color="#59260A"/>
<stop offset="1" stop-color="#59260A" stop-opacity="0"/>
</linearGradient>
<linearGradient id="paint16_linear_4_9" x1="733.25" y1="759.999" x2="733.25" y2="1023.81" gradientUnits="userSpaceOnUse">
<stop stop-color="#EB671D"/>
<stop offset="1" stop-color="#6C4935"/>
</linearGradient>
<linearGradient id="paint17_linear_4_9" x1="562.013" y1="745.714" x2="562.013" y2="993.363" gradientUnits="userSpaceOnUse">
<stop stop-color="#EB671D"/>
<stop offset="1" stop-color="#6C4935"/>
</linearGradient>
<linearGradient id="paint18_linear_4_9" x1="909.352" y1="759.658" x2="909.352" y2="1090.27" gradientUnits="userSpaceOnUse">
<stop stop-color="#EB671D"/>
<stop offset="1" stop-color="#6C4935"/>
</linearGradient>
<linearGradient id="paint19_linear_4_9" x1="1046.95" y1="774.905" x2="1046.95" y2="1054.51" gradientUnits="userSpaceOnUse">
<stop stop-color="#EB671D"/>
<stop offset="1" stop-color="#6C4935"/>
</linearGradient>
<linearGradient id="paint20_linear_4_9" x1="1120.46" y1="1267.22" x2="1120.46" y2="1665.59" gradientUnits="userSpaceOnUse">
<stop stop-color="#856A5B"/>
<stop offset="1" stop-color="#59260A"/>
</linearGradient>
<linearGradient id="paint21_linear_4_9" x1="1216.56" y1="1213.4" x2="1216.56" y2="1626.44" gradientUnits="userSpaceOnUse">
<stop offset="0.0260417" stop-color="#AA8239"/>
<stop offset="0.46875" stop-color="#D9D9D9"/>
<stop offset="0.989583" stop-color="#B25622"/>
</linearGradient>
<linearGradient id="paint22_linear_4_9" x1="629.564" y1="584.473" x2="661.091" y2="618.139" gradientUnits="userSpaceOnUse">
<stop stop-color="#D9D9D9" stop-opacity="0.6"/>
<stop offset="1" stop-color="#D9D9D9" stop-opacity="0.2"/>
</linearGradient>
<clipPath id="clip0_4_9">
<rect width="1920" height="1920" fill="white"/>
</clipPath>
</defs>
</svg>
