<svg width="179" height="166" viewBox="0 0 179 166" fill="none" xmlns="http://www.w3.org/2000/svg">
<path d="M110.87 1.00699C110.598 0.526487 109.988 0.357694 109.507 0.629978C109.027 0.902261 108.858 1.51251 109.13 1.99301L110.87 1.00699ZM109.13 1.99301C111.201 5.64786 111.805 8.1829 111.743 10.1875C111.68 12.2015 110.946 13.8087 110.037 15.6898C109.138 17.5507 108.083 19.6507 107.675 22.4494C107.265 25.2607 107.513 28.7017 109.051 33.3162L110.949 32.6838C109.487 28.2983 109.298 25.1768 109.654 22.7381C110.011 20.2868 110.925 18.4493 111.838 16.5602C112.741 14.6913 113.664 12.736 113.742 10.25C113.82 7.7546 113.049 4.85214 110.87 1.00699L109.13 1.99301Z" fill="url(#paint0_linear_27_112)"/>
<path d="M104.87 1.00699C104.598 0.526487 103.988 0.357694 103.507 0.629978C103.027 0.902261 102.858 1.51251 103.13 1.99301L104.87 1.00699ZM103.13 1.99301C105.201 5.64786 105.805 8.1829 105.743 10.1875C105.68 12.2015 104.946 13.8087 104.037 15.6898C103.138 17.5507 102.083 19.6507 101.675 22.4494C101.265 25.2607 101.513 28.7017 103.051 33.3162L104.949 32.6838C103.487 28.2983 103.298 25.1768 103.654 22.7381C104.011 20.2868 104.925 18.4493 105.838 16.5602C106.741 14.6913 107.664 12.736 107.742 10.25C107.82 7.7546 107.049 4.85214 104.87 1.00699L103.13 1.99301Z" fill="url(#paint1_linear_27_112)"/>
<rect x="98.5" y="25.5" width="16" height="35" fill="#59260A" stroke="white"/>
<rect x="43" y="70" width="89" height="93" fill="url(#paint2_linear_27_112)" stroke="#FFC8AA" stroke-width="5"/>
<path d="M9.1788 139.61L56.8103 11.5276L177.454 84.7259C95.5284 68.3167 58.5143 79.9689 9.1788 139.61Z" fill="url(#paint3_radial_27_112)" stroke="#FFC8AA" stroke-width="3"/>
<defs>
<linearGradient id="paint0_linear_27_112" x1="110.623" y1="1.5" x2="110.623" y2="33" gradientUnits="userSpaceOnUse">
<stop stop-opacity="0"/>
<stop offset="1"/>
</linearGradient>
<linearGradient id="paint1_linear_27_112" x1="104.623" y1="1.5" x2="104.623" y2="33" gradientUnits="userSpaceOnUse">
<stop stop-opacity="0"/>
<stop offset="1"/>
</linearGradient>
<linearGradient id="paint2_linear_27_112" x1="87.5" y1="67.5" x2="87.5" y2="165.5" gradientUnits="userSpaceOnUse">
<stop stop-color="#90305A"/>
<stop offset="1" stop-color="#AA6039"/>
</linearGradient>
<radialGradient id="paint3_radial_27_112" cx="0" cy="0" r="1" gradientUnits="userSpaceOnUse" gradientTransform="translate(58.0507 15.3304) rotate(109.178) scale(123.103 203.637)">
<stop stop-color="#D890AF"/>
<stop offset="1" stop-color="#D48F6A"/>
</radialGradient>
</defs>
</svg>
